<?xml version="1.0" encoding="utf-8"?>
<!-- Generator: Adobe Illustrator 26.0.1, SVG Export Plug-In . SVG Version: 6.00 Build 0)  -->
<svg version="1.1" id="Layer_1" xmlns="http://www.w3.org/2000/svg" xmlns:xlink="http://www.w3.org/1999/xlink" x="0px" y="0px"
	 viewBox="0 0 1920 1080" style="enable-background:new 0 0 1920 1080;" xml:space="preserve">
<style type="text/css">
	.st0{fill:#005C50;}
	.st1{fill:#026455;}
	.st2{fill:#006C5A;}
	.st3{fill:#04745F;}
	.st4{fill:#077D63;}
	.st5{fill:#058869;}
	.st6{fill:#088F6F;}
	.st7{fill:#1F9A74;}
	.st8{fill:#2BA379;}
	.st9{fill:#38AB7E;}
	.st10{fill:#43BA82;}
</style>
<g>
	<path class="st0" d="M319.81,669.1H335l21.68,32.78l0.61,1.64l0.43-1.64l21.77-32.78h8.24v62.45h-8.85v-48.92l-0.7,2.34
		l-18.39,26.81h-5.2l-18.21-26.81l-0.7-1.99v48.57h-8.85v-56.12l-7.03-1.91"/>
	<path class="st0" d="M413.33,674.49l-7.2,4.42l-4.33-7.37l7.37-4.34L413.33,674.49z M411.94,688.19v43.37h-8.33v-38.08l-5.28-1.47
		v-3.82L411.94,688.19z"/>
	<path class="st0" d="M466.76,702.14v29.41h-8.32v-27.24c0-6.33-2.77-9.63-8.41-9.89c-4.25-0.26-9.2,2.17-15,7.28v29.84h-8.33
		v-37.99L421.4,692v-3.81h12.75l0.7,7.37c6.08-5.73,12.14-8.59,18.13-8.59C461.05,686.97,466.76,692.35,466.76,702.14"/>
	<path class="st0" d="M490.72,674.49l-7.2,4.42l-4.33-7.37l7.37-4.34L490.72,674.49z M489.33,688.19v43.37H481v-38.08l-5.29-1.47
		v-3.82L489.33,688.19z"/>
	<g>
		<path class="st0" d="M519.68,732.33c-6.68,0.95-14.4-0.18-20.98-2.87l1.65-6.24c10.32,3.73,22.98,4.86,23.24-3.21
			c0-1.82-0.7-3.12-3.21-4.51c-1.3-0.7-2.34-1.21-3.21-1.65c-0.96-0.34-2.52-0.95-4.77-1.82c-8.76-3.21-13.36-6.33-13.1-13.01
			c0.26-13.44,19.43-14.14,30.45-9.19l-1.56,6.24c-8.59-3.73-21.08-3.56-20.9,2.86c0,2.26,1.3,3.47,3.64,4.69
			c1.73,0.95,2.43,1.13,4.95,1.99c1.22,0.44,2.08,0.78,2.69,1.04c8.59,3.12,13.27,6.42,13.01,13.36
			C531.31,727.04,526.36,731.37,519.68,732.33"/>
		<path class="st0" d="M564.28,731.03c-7.11,2.43-12.49,2.34-16.04-0.26c-3.56-2.52-5.38-6.42-5.38-11.63V694.6h-7.28v-3.91
			l7.28-3.03v-9.81h8.42v10.33h9.11v6.42h-9.11v23.5c0,6.51,2.87,9.28,11.45,6.6L564.28,731.03z"/>
		<path class="st0" d="M581.54,695.38c6.16-6.5,10.58-9.63,17.18-7.98l-0.78,7.28c-5.9-1.12-9.97,1.82-16.13,8.32v28.54h-8.42
			v-37.98L568.1,692v-3.82h12.75L581.54,695.38z"/>
	</g>
	<path class="st0" d="M638.35,688.19h8.59l-24.55,62.45h-8.67l9.2-22.38h-3.38l-16.91-40.07h8.5l14.13,33.82"/>
	<g>
		<path class="st0" d="M695.3,725.83c3.99,0,7.2-1.48,9.71-4.34c2.52-2.87,3.72-6.85,3.72-11.8s-1.21-8.85-3.63-11.71
			c-2.52-2.86-5.73-4.25-9.81-4.25c-4.08,0-7.29,1.39-9.71,4.25c-2.52,2.86-3.73,6.76-3.73,11.71s1.21,8.93,3.73,11.8
			C688.1,724.35,691.31,725.83,695.3,725.83 M695.3,732.59c-6.51,0-11.71-2.17-15.79-6.42c-4.08-4.26-6.16-9.8-6.16-16.48
			s2.09-12.14,6.16-16.4c4.08-4.24,9.28-6.33,15.79-6.33c6.5,0,11.79,2.09,15.87,6.33c4.08,4.25,6.16,9.71,6.16,16.4
			s-2.09,12.22-6.16,16.48C707.1,730.42,701.81,732.59,695.3,732.59"/>
		<path class="st0" d="M751.42,670.57c-10.5-2.68-13.88,0.26-13.88,6.77v10.85h10.93v6.42h-10.93v36.95h-8.32V694.6h-6.68v-6.42
			h6.68v-10.67c0-5.64,1.82-9.89,5.55-12.66c3.73-2.69,9.81-2.95,18.3-0.7L751.42,670.57z"/>
	</g>
	<path class="st0" d="M822.99,676.3h-28.88v22.81h23.51v7.29h-23.51v25.15h-8.84V675.6l-7.12-2.08v-4.42h44.84"/>
	<path class="st0" d="M844.7,674.49l-7.2,4.42l-4.34-7.37l7.38-4.34L844.7,674.49z M843.3,688.19v43.37h-8.33v-38.08l-5.29-1.47
		v-3.82L843.3,688.19z"/>
	<g>
		<path class="st0" d="M898.12,702.14v29.41h-8.33v-27.24c0-6.33-2.77-9.63-8.41-9.89c-4.24-0.26-9.19,2.17-15,7.28v29.84h-8.32
			v-37.99l-5.29-1.56v-3.81h12.75l0.7,7.37c6.07-5.73,12.14-8.59,18.12-8.59C892.4,686.97,898.12,692.35,898.12,702.14"/>
		<path class="st0" d="M935.36,719.83l0.09-8.84c-11.35-0.6-16.2-0.26-18.63,3.12c-2.69,3.13-2.26,11.28,4.76,12.06
			C925.47,726.61,930.07,724.44,935.36,719.83 M909.88,727.99c-2.17-2.95-3.12-6.16-2.86-9.54c0.26-3.38,1.21-6.07,3.03-8.06
			c2.17-2.6,5.11-4.16,8.93-4.78c3.81-0.52,9.36-0.6,16.64-0.25v-4.95c0-6.94-7.11-8.33-21.22-4.25l-1.65-6.24
			c7.01-2.34,13.77-3.21,20.27-2.52c6.5,0.69,10.75,4.77,10.75,11.79l-0.09,27.16l5.38,1.38v3.81h-12.74l-0.52-6.59
			c-5.64,5.2-10.05,8.15-16.2,7.81C915.25,732.5,912.05,730.94,909.88,727.99"/>
		<path class="st0" d="M999.45,702.14v29.41h-8.32v-27.24c0-6.33-2.77-9.63-8.42-9.89c-4.25-0.26-9.19,2.17-15.01,7.28v29.84h-8.32
			v-37.99l-5.28-1.56v-3.81h12.75l0.7,7.37c6.07-5.73,12.14-8.59,18.12-8.59C993.72,686.97,999.45,692.35,999.45,702.14"/>
		<path class="st0" d="M1014.98,726.52c-3.82-4.26-5.73-9.81-5.73-16.75c0-6.85,1.91-12.32,5.64-16.56
			c3.73-4.16,8.67-6.24,14.83-6.24c5.2,0,10.15,1.47,14.92,4.42l-1.47,5.99c-4.77-2.69-8.94-3.9-12.49-3.73
			c-7.99,0.09-12.93,6.42-12.93,16.13c0,9.63,4.94,15.88,13.27,16.22c4.08,0.18,8.5-1.04,13.26-3.56l1.48,5.99
			c-4.95,2.77-10.15,4.25-15.61,4.34C1023.83,732.85,1018.81,730.76,1014.98,726.52"/>
		<path class="st0" d="M1083.25,705.71c0.6-6.85-2.09-11.89-10.15-11.97c-6.94,0-11.54,4.68-12.22,11.97H1083.25z M1057.75,726.17
			c-3.73-4.26-5.56-9.71-5.56-16.4c0-6.85,1.91-12.32,5.81-16.56c3.91-4.26,8.93-6.34,15.18-6.25c15.96,0,19.61,12.75,17.26,24.46
			h-29.92c0.09,9.28,5.29,14.31,14.57,14.4c4.51,0,9.02-1.22,13.44-3.56l1.39,5.72c-4.34,3.21-9.72,4.77-16.05,4.77
			C1066.86,732.68,1061.48,730.51,1057.75,726.17"/>
	</g>
	<path class="st0" d="M977.2,500.84v5.53l-7.67,2.13v90.34h-12.06v-98.01"/>
	<path class="st0" d="M1015.15,515.8l-11.09,6.73l-6.6-11.22l11.35-6.73"/>
	<g>
		<path class="st0" d="M999.03,536.03v69.86c0,8.29-0.5,14.45-13.69,11.81l-2.39,9.3c24.25,5.53,28.15-7.79,28.27-21.36v-61.95
			l7.54-2.13v-5.53H999.03z"/>
		<path class="st0" d="M917.8,536.03v69.86c0,8.29-0.5,14.45-13.69,11.81l-2.39,9.3c24.26,5.53,28.15-7.79,28.28-21.36v-61.95
			l7.54-2.13v-5.53H917.8z"/>
	</g>
	<path class="st0" d="M886.72,515.8l-11.08,6.73l-6.59-11.22l11.34-6.73"/>
	<path class="st0" d="M866.62,515.8l-11.08,6.73l-6.59-11.22l11.34-6.73"/>
	<g>
		<path class="st0" d="M860.04,588.8c-6.47,0-15.96-3.62-15.96-20.26c0-22.06,19.41-22.7,26.69-22.7h6.64v42.97H860.04z
			 M870.76,536.03c-11.31,0-39.01,2.07-39.01,32.51c0,28.04,20.82,30.32,28.29,30.32h29.55v-55.04l7.79-2.26v-5.53
			C897.38,536.03,870.76,536.03,870.76,536.03z"/>
		<path class="st0" d="M1078.92,588.8h-13.86c-11.44,0-19.48-9.24-19.48-19.85c0-7.16,1.75-12.81,5.4-16.96
			c3.52-4.15,8.17-6.15,14.08-6.15h13.86V588.8z M1091.1,536.03h-26.04c-9.42,0-16.96,3.01-22.87,9.17
			c-5.91,6.16-8.92,14.08-8.92,23.75c0,22.01,19.36,29.91,31.79,29.91h14.1c0,20.73-13.57,22.61-35.81,16.08l-2.39,9.42
			c15.84,4.78,28.15,4.78,36.95-0.12c8.79-4.91,13.19-12.57,13.19-25.38L1091.1,536.03z"/>
	</g>
	<path class="st0" d="M503.48,617.34l6.6,11.22l11.08-6.73l-6.32-11.22"/>
	<path class="st0" d="M483.39,617.34l6.6,11.22l11.08-6.73l-6.33-11.22"/>
	<path class="st0" d="M383.27,513.83l-6.33-11.22l-11.35,6.73l6.6,11.22"/>
	<path class="st0" d="M363.18,513.83l-6.33-11.22l-11.35,6.73l6.6,11.22"/>
	<path class="st0" d="M780.1,500.84v98.01h12.06v-90.34l7.66-2.13v-5.53"/>
	<path class="st0" d="M703.68,588.8h-17.36c-6.47,0-15.97-3.63-15.97-20.27c0-22.05,9.39-22.7,16.67-22.7
		c7.28,0,16.67,0.65,16.67,22.7V588.8z M745.68,500.84v87.96H716v-20.27c0-30.43-17.68-32.5-28.99-32.5
		c-11.31,0-28.98,2.07-28.98,32.5v3.7c0,16.64-9.5,16.57-15.97,16.57H594.8v-87.96h-12.06v98.01h59.32c5.14,0,16.63,0.66,23.27-8.09
		c6.75,7.2,16.39,8.09,20.99,8.09h71.43v-90.34l7.67-2.13v-5.53H745.68z"/>
	<path class="st0" d="M369.99,582.15h-7.85c-6.47,0-22.98-0.91-22.98-18.64c0-22.06,16.91-22.71,24.19-22.71h6.64V582.15z
		 M548.31,500.84v87.96h-21.94c-6.23,0-15.42,0.01-16.11-14.8v-37.97h-12.18v36.2c0,16.64-9.7,16.57-16.17,16.57h-98.52
		c-0.67,0-1.21-0.54-1.21-1.21v-48.8l7.79-2.26V531h-26.62c-11.31,0-36.51,2.07-36.51,32.51c0,28.04,27.84,28.69,35.31,28.69h7.85
		v1.63c0,2.77,2.25,5.02,5.02,5.02h106.9c4.89,0,15.48,0.55,22.22-6.91c6.75,7.46,17.34,6.91,22.23,6.91h34v-90.34l7.67-2.13v-5.53
		H548.31z"/>
	<path class="st0" d="M1301.94,721.71c12.04,0,26.49,5.41,34.42,13.35l26.38,26.37c3.94,3.94,9.21,6.12,14.83,6.12
		c5.62,0,10.89-2.17,14.83-6.12l26.38-26.37c9.16-9.17,27.03-14.97,39.83-12.95l36.84,5.84c11.44,1.81,22.2-6.02,24.01-17.43
		l5.83-36.84c2.03-12.8,13.07-28,24.62-33.89l33.23-16.93c10.31-5.25,14.42-17.91,9.17-28.22l-16.93-33.23
		c-5.88-11.55-5.88-30.34,0-41.88l16.93-33.23c2.53-4.97,2.98-10.66,1.24-16c-1.73-5.34-5.43-9.68-10.4-12.22l-33.23-16.93
		c-11.55-5.89-22.59-21.08-24.62-33.89l-5.83-36.84c-0.87-5.51-3.86-10.37-8.41-13.67c-4.54-3.31-10.08-4.64-15.6-3.77l-36.84,5.84
		c-12.79,2.03-30.67-3.78-39.83-12.95l-26.38-26.37c-3.94-3.94-9.22-6.12-14.83-6.12c-5.62,0-10.89,2.18-14.83,6.12l-26.38,26.37
		c-9.16,9.17-27.03,14.98-39.83,12.95l-36.84-5.84c-11.44-1.81-22.2,6.01-24.01,17.44l-5.83,36.84c-2.03,12.8-13.07,28-24.62,33.89
		L1172,458.06c-4.97,2.53-8.67,6.88-10.4,12.22c-1.73,5.35-1.3,11.03,1.24,16l16.92,33.23c5.89,11.55,5.89,30.34,0,41.88
		l-16.92,33.23c-2.53,4.97-2.97,10.66-1.24,16c1.73,5.35,5.43,9.68,10.4,12.22l33.23,16.93c11.55,5.89,22.59,21.08,24.62,33.89
		l5.83,36.84c1.81,11.42,12.58,19.26,24.01,17.43l36.84-5.84C1298.26,721.84,1300.07,721.71,1301.94,721.71 M1377.58,770.89
		c-6.52,0-12.62-2.52-17.2-7.09L1334,737.42c-8.5-8.5-25.08-13.89-36.94-12.01l-36.84,5.84c-13.25,2.1-25.73-6.97-27.83-20.22
		l-5.83-36.84c-1.88-11.87-12.13-25.97-22.84-31.43l-33.23-16.93c-5.76-2.93-10.05-7.97-12.06-14.16
		c-2.01-6.2-1.51-12.78,1.43-18.55l16.93-33.23c5.46-10.72,5.46-28.14,0-38.85l-16.93-33.23c-2.94-5.77-3.45-12.36-1.43-18.55
		c2.01-6.2,6.3-11.23,12.06-14.17l33.23-16.93c10.71-5.46,20.95-19.56,22.84-31.43l5.83-36.84c2.1-13.25,14.58-22.32,27.83-20.22
		l36.84,5.84c11.88,1.89,28.44-3.51,36.94-12.01l26.37-26.37c4.58-4.58,10.68-7.1,17.2-7.1c6.52,0,12.62,2.52,17.2,7.1l26.37,26.37
		c8.5,8.5,25.08,13.89,36.94,12.01l36.84-5.84c6.4-1.02,12.81,0.54,18.09,4.37c5.27,3.83,8.73,9.46,9.74,15.85l5.83,36.84
		c1.88,11.87,12.13,25.97,22.84,31.43l33.23,16.93c5.76,2.94,10.05,7.97,12.06,14.17c2.01,6.2,1.5,12.78-1.43,18.55l-16.94,33.23
		c-5.46,10.71-5.46,28.13,0,38.85l16.94,33.23c6.08,11.95,1.32,26.63-10.63,32.72l-33.23,16.93c-10.71,5.46-20.96,19.56-22.84,31.43
		l-5.83,36.84c-2.1,13.25-14.59,22.32-27.83,20.22l-36.84-5.84c-11.88-1.89-28.45,3.51-36.94,12.01l-26.37,26.37
		C1390.2,768.37,1384.09,770.89,1377.58,770.89"/>
	<path class="st1" d="M1312.36,713.05c13.9,0,30.14,5.56,39.51,14.13l16.63,15.21c10.38,9.49,26.55,8.77,36.04-1.61l15.21-16.63
		c10.43-11.4,31.42-19.27,46.78-17.53l22.39,2.53c6.72,0.76,13.39-1.16,18.74-5.42c5.35-4.26,8.71-10.32,9.47-17.06l2.53-22.39
		c1.73-15.36,14.09-34.06,27.54-41.68l19.61-11.11c5.9-3.35,10.16-8.82,11.97-15.4c1.82-6.59,0.98-13.47-2.36-19.37l-11.11-19.61
		c-7.62-13.44-8.62-35.83-2.22-49.91l9.33-20.51c5.83-12.81,0.15-27.96-12.66-33.79l-20.51-9.33c-14.07-6.4-28.04-23.93-31.13-39.07
		l-4.51-22.09c-2.82-13.77-16.3-22.7-30.1-19.89l-22.08,4.52c-15.14,3.09-36.75-2.88-48.15-13.31l-16.62-15.21
		c-10.38-9.49-26.55-8.77-36.04,1.61l-15.21,16.63c-10.44,11.41-31.42,19.27-46.78,17.53l-22.39-2.53
		c-6.75-0.77-13.4,1.16-18.75,5.42c-5.34,4.26-8.71,10.32-9.47,17.06l-2.53,22.39c-1.73,15.36-14.08,34.06-27.53,41.68l-19.61,11.11
		c-5.91,3.35-10.16,8.82-11.98,15.4s-0.98,13.47,2.36,19.37l11.11,19.61c7.62,13.44,8.62,35.83,2.22,49.91l-9.33,20.51
		c-5.83,12.81-0.15,27.96,12.65,33.79l20.52,9.33c14.07,6.4,28.04,23.93,31.12,39.07l4.51,22.07c1.36,6.65,5.25,12.38,10.96,16.16
		c5.7,3.77,12.51,5.09,19.15,3.74l22.07-4.52C1306.42,713.31,1309.34,713.05,1312.36,713.05 M1385.7,752.41
		c-6.96,0-13.94-2.5-19.47-7.55l-16.62-15.21c-10.72-9.8-30.99-15.4-45.23-12.5l-22.08,4.51c-7.52,1.53-15.21,0.04-21.66-4.23
		c-6.45-4.26-10.85-10.75-12.38-18.27l-4.52-22.09c-2.91-14.22-16.02-30.68-29.24-36.69l-20.52-9.33
		c-6.98-3.18-12.32-8.91-15.04-16.15c-2.71-7.23-2.46-15.07,0.72-22.06l9.33-20.51c6.01-13.22,5.08-34.25-2.08-46.88l-11.12-19.61
		c-3.79-6.68-4.73-14.46-2.68-21.91c2.06-7.44,6.87-13.63,13.55-17.42l19.61-11.12c12.63-7.15,24.23-24.72,25.86-39.15l2.53-22.39
		c0.86-7.63,4.66-14.48,10.71-19.3s13.56-6.98,21.2-6.13l22.39,2.53c14.45,1.62,34.13-5.75,43.94-16.46l15.21-16.63
		c10.74-11.73,29.03-12.55,40.76-1.81l16.63,15.21c10.72,9.8,31.01,15.4,45.23,12.5l22.07-4.5c15.58-3.19,30.86,6.9,34.05,22.49
		l4.52,22.09c2.9,14.22,16.02,30.69,29.23,36.69l20.52,9.33c14.48,6.59,20.9,23.73,14.32,38.21l-9.33,20.51
		c-6.01,13.22-5.08,34.25,2.09,46.88l11.11,19.61c3.79,6.67,4.74,14.46,2.68,21.91c-2.05,7.44-6.87,13.63-13.55,17.42l-19.61,11.11
		c-12.63,7.16-24.23,24.72-25.86,39.15l-2.54,22.39c-0.86,7.63-4.66,14.48-10.7,19.3c-6.05,4.82-13.59,6.98-21.21,6.13l-22.39-2.53
		c-14.42-1.64-34.14,5.75-43.94,16.46L1407,743.04C1401.32,749.26,1393.52,752.41,1385.7,752.41"/>
	<path class="st2" d="M1324.32,704.67c15.38,0,32.79,5.36,43.41,14.11l6.13,5.06c12.79,10.53,31.76,8.71,42.29-4.07l5.06-6.14
		c11.42-13.85,35.26-24.22,53.22-23.13l7.94,0.49c7.97,0.49,15.68-2.18,21.71-7.51s9.62-12.66,10.11-20.63l0.49-7.94
		c1.1-17.93,14.31-40.35,29.46-50l6.71-4.27c13.97-8.9,18.1-27.51,9.2-41.48l-4.27-6.71c-9.65-15.14-12.14-41.05-5.56-57.76
		l2.92-7.39c6.08-15.41-1.52-32.89-16.93-38.96l-7.4-2.92c-16.7-6.58-33.95-26.08-38.44-43.46l-1.99-7.7
		c-4.15-16.03-20.56-25.71-36.6-21.57l-7.7,1.99c-17.39,4.5-42.79-1.14-56.65-12.56l-6.13-5.06c-6.17-5.08-13.98-7.46-21.99-6.69
		c-8.01,0.77-15.23,4.59-20.31,10.75l-5.05,6.13c-11.42,13.85-35.27,24.22-53.22,23.13l-7.94-0.49c-7.95-0.5-15.68,2.18-21.71,7.51
		c-6.03,5.33-9.62,12.66-10.11,20.63l-0.49,7.94c-1.09,17.92-14.31,40.35-29.45,49.99l-6.71,4.28
		c-6.74,4.29-11.41,10.98-13.16,18.84c-1.74,7.86-0.34,15.9,3.96,22.64l4.27,6.71c9.65,15.14,12.14,41.05,5.56,57.76l-2.91,7.39
		c-2.93,7.44-2.78,15.6,0.43,22.98c3.21,7.38,9.07,13.05,16.5,15.99l7.4,2.91c16.7,6.58,33.95,26.08,38.44,43.47l1.99,7.7
		c4.15,16.04,20.57,25.71,36.6,21.56l7.7-1.99C1315.14,705.17,1319.64,704.67,1324.32,704.67 M1392.95,734.03
		c-7.48,0-15-2.49-21.21-7.61l-6.13-5.06c-13.12-10.82-37.21-16.17-53.68-11.91l-7.7,1.99c-17.83,4.61-36.07-6.15-40.68-23.97
		l-1.99-7.7c-4.26-16.47-20.6-34.95-36.44-41.19l-7.39-2.92c-8.26-3.25-14.78-9.56-18.34-17.76c-3.57-8.2-3.73-17.27-0.48-25.53
		l2.92-7.4c6.23-15.83,3.87-40.39-5.27-54.74l-4.27-6.71c-4.77-7.49-6.33-16.43-4.4-25.16c1.94-8.72,7.13-16.16,14.62-20.93
		l6.71-4.28c14.35-9.14,26.88-30.4,27.92-47.38l0.49-7.93c0.54-8.87,4.53-17.01,11.23-22.93c6.69-5.92,15.26-8.88,24.13-8.35
		l7.94,0.49c17.01,1.08,39.61-8.79,50.43-21.93l5.06-6.13c5.65-6.85,13.66-11.1,22.57-11.95c8.9-0.86,17.58,1.78,24.43,7.44
		l6.13,5.06c13.13,10.83,37.22,16.17,53.69,11.91l7.7-1.99c17.83-4.61,36.07,6.14,40.68,23.96l1.99,7.7
		c4.26,16.47,20.6,34.95,36.43,41.19l7.4,2.92c17.12,6.75,25.57,26.18,18.82,43.3l-2.92,7.39c-6.24,15.84-3.88,40.39,5.27,54.74
		l4.27,6.71c9.89,15.53,5.3,36.2-10.22,46.09l-6.71,4.27c-14.35,9.14-26.87,30.4-27.92,47.38l-0.49,7.94
		c-0.54,8.87-4.53,17.02-11.23,22.94c-6.7,5.92-15.29,8.87-24.13,8.34l-7.93-0.49c-16.96-1.08-39.61,8.79-50.43,21.92l-5.06,6.13
		C1412.14,729.9,1402.58,734.03,1392.95,734.03"/>
	<path class="st3" d="M1339.76,695.76c14.89,0,31.1,4.4,41.65,12.09c6.74,4.9,15.02,6.9,23.32,5.59c8.31-1.3,15.58-5.73,20.49-12.48
		c10.99-15.08,35.1-27.34,53.79-27.34h0.09c17.28,0,31.34-14.05,31.36-31.32c0.02-18.68,12.35-42.81,27.49-53.76
		c14-10.15,17.14-29.8,6.99-43.8c-10.96-15.13-15.16-41.89-9.36-59.65c5.36-16.44-3.64-34.18-20.08-39.55
		c-17.77-5.8-36.89-24.98-42.64-42.76c-5.33-16.45-23.05-25.51-39.5-20.19c-17.78,5.75-44.52,1.48-59.63-9.52
		c-6.74-4.92-15.03-6.9-23.33-5.59c-8.3,1.3-15.57,5.73-20.49,12.48c-10.99,15.08-35.1,27.34-53.78,27.34h-0.1
		c-17.27,0-31.33,14.04-31.36,31.32c-0.02,18.68-12.35,42.8-27.48,53.77c-6.76,4.89-11.2,12.16-12.53,20.45
		c-1.33,8.31,0.64,16.59,5.53,23.35c10.96,15.13,15.17,41.89,9.37,59.65c-2.59,7.92-1.92,16.42,1.88,23.91
		c3.8,7.49,10.27,13.04,18.2,15.63c17.76,5.8,36.89,24.98,42.64,42.75c5.32,16.46,23.05,25.52,39.5,20.19
		C1327.15,696.58,1333.33,695.76,1339.76,695.76 M1399.75,717.17c-7.28,0-14.34-2.28-20.31-6.63
		c-14.34-10.45-39.75-14.51-56.63-9.05c-18.22,5.89-37.82-4.13-43.7-22.34c-5.46-16.88-23.63-35.1-40.5-40.61
		c-8.78-2.86-15.93-9.01-20.14-17.29c-4.21-8.29-4.95-17.69-2.09-26.47c5.51-16.87,1.52-42.28-8.9-56.65
		c-5.42-7.48-7.6-16.65-6.13-25.83c1.46-9.19,6.39-17.22,13.87-22.64c14.37-10.4,26.08-33.31,26.1-51.06
		c0.02-19.12,15.59-34.65,34.7-34.65h0.1c17.74,0,40.63-11.65,51.08-25.97c5.43-7.46,13.49-12.36,22.67-13.81
		c9.19-1.45,18.35,0.76,25.81,6.2c14.34,10.45,39.75,14.51,56.63,9.04c18.21-5.88,37.81,4.14,43.7,22.34
		c5.46,16.88,23.62,35.1,40.5,40.61c18.19,5.94,28.16,25.57,22.22,43.75c-5.51,16.87-1.51,42.28,8.9,56.65
		c11.23,15.5,7.75,37.24-7.75,48.47c-14.37,10.42-26.08,33.32-26.1,51.07c-0.03,19.11-15.6,34.65-34.71,34.65h-0.1
		c-17.74,0-40.65,11.64-51.08,25.97c-5.44,7.46-13.49,12.37-22.67,13.81C1403.41,717.03,1401.58,717.17,1399.75,717.17"/>
	<path class="st4" d="M1357.85,685.73c12.31,0,25.17,3.01,34.15,8.64c6.5,4.07,14.23,5.36,21.77,3.64c7.53-1.73,13.92-6.27,18-12.77
		c9.18-14.65,30.69-27.55,47.94-28.74c7.66-0.53,14.67-4.02,19.75-9.85c5.08-5.83,7.58-13.26,7.06-20.91
		c-1.19-17.26,8.63-40.33,21.9-51.43c12.2-10.21,13.81-28.44,3.61-40.64c-11.11-13.26-16.72-37.71-12.52-54.48
		c3.87-15.43-5.54-31.13-20.97-34.99c-16.78-4.2-35.69-20.68-42.15-36.72c-2.87-7.12-8.36-12.7-15.48-15.74
		c-7.11-3.03-14.94-3.12-22.06-0.25c-16.04,6.46-41.02,4.24-55.68-4.93c-13.48-8.44-31.32-4.35-39.76,9.13
		c-9.19,14.66-30.69,27.56-47.95,28.74c-15.87,1.1-27.89,14.89-26.8,30.77c1.19,17.26-8.63,40.33-21.9,51.43
		c-12.2,10.21-13.81,28.44-3.61,40.64c11.11,13.26,16.72,37.7,12.52,54.48c-1.87,7.44-0.7,15.19,3.27,21.82
		c3.97,6.63,10.26,11.31,17.7,13.17c16.78,4.21,35.69,20.68,42.15,36.72c2.87,7.12,8.36,12.7,15.48,15.73
		c7.11,3.03,14.94,3.12,22.06,0.25C1342.53,686.93,1350.08,685.73,1357.85,685.73 M1407.19,702.1c-5.97,0-11.81-1.67-16.97-4.89
		c-13.87-8.69-37.5-10.78-52.66-4.67c-7.95,3.2-16.69,3.1-24.62-0.28c-7.94-3.38-14.07-9.62-17.27-17.56
		c-6.12-15.17-23.99-30.75-39.86-34.73c-8.31-2.08-15.32-7.3-19.76-14.69c-4.44-7.4-5.73-16.05-3.64-24.36
		c3.97-15.87-1.33-38.99-11.84-51.52c-11.39-13.61-9.59-33.96,4.02-45.35c12.54-10.5,21.83-32.32,20.71-48.64
		c-1.22-17.71,12.2-33.1,29.91-34.32c16.32-1.13,36.66-13.32,45.34-27.18c9.43-15.04,29.33-19.61,44.37-10.19
		c13.86,8.68,37.49,10.77,52.66,4.66c7.94-3.2,16.68-3.11,24.62,0.28c7.93,3.37,14.06,9.61,17.26,17.56
		c6.11,15.17,23.99,30.75,39.86,34.73c17.22,4.31,27.72,21.83,23.4,39.05c-3.97,15.87,1.33,38.98,11.84,51.52
		c11.39,13.61,9.59,33.95-4.02,45.35c-12.54,10.5-21.83,32.32-20.71,48.64c0.59,8.55-2.2,16.83-7.87,23.33
		c-5.66,6.5-13.49,10.41-22.03,10.99c-16.32,1.13-36.67,13.32-45.35,27.18c-4.55,7.26-11.68,12.32-20.09,14.25
		C1412.08,701.82,1409.63,702.1,1407.19,702.1"/>
	<path class="st5" d="M1376.27,675.28c9.52,0,19.06,1.88,26.29,5.61c12.97,6.71,29.01,1.62,35.73-11.36
		c7.35-14.22,26.21-27.75,42.04-30.15c14.45-2.2,24.42-15.74,22.22-30.19c-2.41-15.83,4.9-37.85,16.3-49.11
		c10.4-10.27,10.51-27.09,0.23-37.48c-11.25-11.39-18.28-33.51-15.68-49.3c1.15-6.96-0.5-13.97-4.64-19.74
		c-4.14-5.78-10.25-9.58-17.21-10.74c-15.79-2.6-34.48-16.36-41.66-30.67c-3.16-6.3-8.61-11.01-15.35-13.24
		c-6.76-2.25-13.93-1.73-20.23,1.43c-14.3,7.18-37.51,7.04-51.73-0.32c-6.26-3.24-13.44-3.85-20.2-1.69
		c-6.77,2.15-12.29,6.79-15.52,13.05c-7.36,14.21-26.22,27.74-42.04,30.15c-14.45,2.2-24.42,15.74-22.23,30.19
		c2.41,15.82-4.9,37.85-16.3,49.1c-10.4,10.28-10.5,27.09-0.23,37.5c11.25,11.39,18.28,33.5,15.68,49.3
		c-1.15,6.96,0.5,13.96,4.64,19.74c4.14,5.77,10.25,9.58,17.21,10.73c15.79,2.6,34.48,16.36,41.66,30.67
		c3.16,6.3,8.61,11,15.36,13.24c6.74,2.23,13.92,1.73,20.23-1.43C1357.86,677.04,1367.06,675.28,1376.27,675.28 M1414.7,687.19
		c-4.61,0-9.3-1.07-13.67-3.33c-13.38-6.93-35.23-7.06-48.7-0.31c-7.09,3.56-15.19,4.14-22.77,1.62
		c-7.59-2.52-13.73-7.82-17.29-14.92c-6.76-13.47-24.35-26.42-39.22-28.87c-7.84-1.29-14.72-5.58-19.38-12.08
		c-4.66-6.5-6.52-14.4-5.22-22.23c2.45-14.87-4.18-35.69-14.77-46.41c-11.56-11.71-11.44-30.64,0.26-42.22
		c10.73-10.59,17.61-31.33,15.34-46.22c-2.48-16.28,8.75-31.52,25.03-34c14.89-2.26,32.65-15,39.58-28.38
		c3.65-7.06,9.85-12.27,17.47-14.7c7.62-2.42,15.7-1.75,22.76,1.9c13.38,6.93,35.23,7.06,48.7,0.31c7.1-3.56,15.19-4.13,22.77-1.62
		c7.59,2.52,13.73,7.81,17.29,14.91c6.76,13.47,24.35,26.42,39.22,28.87c7.84,1.29,14.72,5.58,19.38,12.08
		c4.66,6.5,6.51,14.39,5.22,22.23c-2.45,14.87,4.18,35.69,14.77,46.41c11.57,11.71,11.44,30.65-0.26,42.22
		c-10.72,10.59-17.61,31.32-15.34,46.22c2.48,16.28-8.75,31.52-25.03,34c-14.89,2.26-32.66,14.99-39.58,28.37
		C1435.96,681.31,1425.51,687.19,1414.7,687.19"/>
	<path class="st6" d="M1333,411.75c-9.68,0-18.86,5.8-22.68,15.31c-5.52,13.77-21.72,27.94-36.11,31.57
		c-13.04,3.29-20.98,16.57-17.69,29.62c3.63,14.4-1.16,35.37-10.66,46.77c-4.16,4.98-6.13,11.31-5.54,17.82
		c0.58,6.51,3.65,12.38,8.63,16.54c11.39,9.51,19.86,29.29,18.86,44.1c-0.9,13.42,9.28,25.07,22.7,25.97
		c14.81,1,33.28,12.03,41.18,24.6c3.45,5.49,8.87,9.31,15.23,10.77c6.38,1.45,12.91,0.35,18.4-3.1c12.57-7.9,34-9.83,47.78-4.31
		c6.02,2.41,12.64,2.33,18.65-0.24c6.01-2.57,10.65-7.3,13.06-13.33c5.52-13.78,21.73-27.94,36.12-31.57
		c13.04-3.29,20.98-16.57,17.69-29.62c-3.63-14.39,1.15-35.37,10.66-46.77c4.16-4.98,6.12-11.31,5.54-17.82
		c-0.59-6.51-3.65-12.38-8.64-16.54c-11.39-9.5-19.85-29.29-18.86-44.1c0.9-13.42-9.28-25.07-22.7-25.97
		c-14.81-1-33.28-12.03-41.18-24.6c-7.16-11.39-22.25-14.83-33.64-7.67c-12.56,7.9-33.98,9.83-47.77,4.31
		C1339.08,412.31,1336.01,411.75,1333,411.75 M1352.45,678.79c-2.08,0-4.18-0.23-6.27-0.71c-7.24-1.65-13.39-6-17.32-12.25
		c-7.4-11.77-24.71-22.1-38.58-23.04c-15.26-1.03-26.84-14.28-25.81-29.53c0.93-13.88-6.99-32.41-17.67-41.32
		c-5.67-4.73-9.15-11.41-9.82-18.81c-0.67-7.4,1.57-14.59,6.29-20.26c8.91-10.67,13.39-30.32,9.99-43.81
		c-3.73-14.83,5.28-29.94,20.12-33.68c13.48-3.4,28.66-16.67,33.83-29.57c5.69-14.2,21.87-21.11,36.07-15.42
		c12.9,5.17,32.98,3.37,44.75-4.04c6.24-3.93,13.67-5.18,20.92-3.53c7.24,1.65,13.4,6,17.32,12.25c7.4,11.77,24.71,22.1,38.58,23.04
		c15.26,1.03,26.84,14.28,25.81,29.53c-0.93,13.87,6.99,32.41,17.66,41.32c5.67,4.73,9.16,11.41,9.82,18.81s-1.57,14.59-6.3,20.26
		c-8.91,10.68-13.39,30.33-9.99,43.81c3.74,14.83-5.28,29.94-20.11,33.68c-13.48,3.4-28.66,16.67-33.84,29.57
		c-2.74,6.85-8.02,12.23-14.85,15.15c-6.82,2.92-14.35,3.01-21.21,0.27c-12.91-5.18-32.98-3.37-44.75,4.04
		C1362.66,677.35,1357.61,678.79,1352.45,678.79"/>
	<path class="st7" d="M1308.89,640.81c13.61,0,30.9,8.09,39.22,18.52c3.75,4.69,9.11,7.65,15.12,8.33
		c6.01,0.68,11.9-1.01,16.59-4.75c10.82-8.63,30.45-12.64,43.79-8.96c5.78,1.6,11.87,0.83,17.12-2.15
		c5.26-2.98,9.04-7.81,10.63-13.6c3.69-13.33,17.21-28.13,30.16-32.99c11.65-4.37,17.57-17.4,13.2-29.04
		c-4.85-12.96-2.61-32.88,5.01-44.42c6.85-10.38,3.98-24.4-6.4-31.26c-11.54-7.62-21.44-25.06-22.06-38.87
		c-0.55-12.43-11.15-22.09-23.55-21.53c-13.81,0.59-32.07-7.68-40.7-18.49c-3.74-4.69-9.1-7.65-15.12-8.33
		c-6.02-0.68-11.9,1.01-16.59,4.75c-10.82,8.62-30.46,12.64-43.8,8.96c-5.78-1.59-11.86-0.83-17.12,2.15
		c-5.26,2.98-9.03,7.81-10.63,13.6c-3.68,13.33-17.21,28.13-30.16,32.99c-5.62,2.11-10.08,6.3-12.58,11.81
		c-2.5,5.51-2.72,11.63-0.61,17.24c4.85,12.96,2.61,32.88-5.02,44.42c-3.3,5.01-4.45,11.02-3.24,16.95c1.21,5.92,4.64,11,9.65,14.31
		c11.54,7.62,21.43,25.06,22.06,38.88c0.56,12.42,11.11,22.09,23.55,21.53C1307.9,640.81,1308.39,640.81,1308.89,640.81
		 M1365.83,671.14c-0.99,0-1.98-0.06-2.98-0.17c-6.9-0.78-13.06-4.18-17.35-9.56c-8.04-10.08-25.1-17.8-37.93-17.24
		c-14.35,0.66-26.4-10.45-27.04-24.72c-0.58-12.88-9.8-29.14-20.56-36.24c-5.75-3.8-9.68-9.63-11.07-16.43
		c-1.39-6.8-0.07-13.71,3.73-19.46c7.1-10.76,9.2-29.33,4.67-41.4c-2.42-6.45-2.18-13.49,0.7-19.8c2.87-6.32,8-11.13,14.46-13.55
		c12.07-4.53,24.68-18.33,28.12-30.75c1.83-6.64,6.16-12.19,12.2-15.61c6.04-3.43,13.02-4.3,19.66-2.47
		c12.43,3.43,30.74-0.31,40.82-8.35c5.39-4.3,12.16-6.24,19.05-5.46c6.9,0.78,13.06,4.17,17.36,9.55
		c8.03,10.08,25.16,17.8,37.93,17.24c14.35-0.66,26.4,10.45,27.04,24.72c0.57,12.88,9.79,29.14,20.55,36.24
		c11.92,7.87,15.22,23.97,7.35,35.9c-7.11,10.75-9.2,29.33-4.67,41.4c5.02,13.37-1.78,28.34-15.15,33.35
		c-12.07,4.53-24.68,18.33-28.11,30.75c-1.83,6.64-6.16,12.19-12.2,15.61c-6.04,3.43-13.02,4.31-19.66,2.47
		c-12.45-3.44-30.74,0.31-40.82,8.35C1377.29,669.19,1371.67,671.14,1365.83,671.14"/>
	<path class="st8" d="M1330.6,641.23c11.91,0,26.06,5.14,33.96,12.79c8.31,8.05,21.61,7.83,29.64-0.47
		c9.02-9.3,26.76-15.39,39.6-13.57c5.5,0.78,11.03-0.65,15.52-4.02c4.49-3.37,7.39-8.27,8.18-13.79
		c1.82-12.82,12.61-28.19,24.05-34.25c4.93-2.61,8.55-7.01,10.2-12.38c1.65-5.37,1.12-11.04-1.49-15.96
		c-6.07-11.45-6.37-30.22-0.67-41.85c5.08-10.39,0.77-22.97-9.62-28.05c-11.63-5.7-22.91-20.71-25.14-33.47
		c-0.96-5.49-4.02-10.29-8.62-13.52c-4.6-3.23-10.17-4.48-15.64-3.52c-12.75,2.24-30.71-3.28-40.01-12.29
		c-8.3-8.04-21.6-7.83-29.64,0.47c-9.01,9.3-26.78,15.39-39.6,13.57c-5.5-0.78-11.02,0.64-15.52,4.02
		c-4.49,3.37-7.39,8.27-8.18,13.79c-1.82,12.83-12.61,28.19-24.05,34.25c-4.92,2.61-8.55,7-10.2,12.37
		c-1.65,5.37-1.12,11.04,1.49,15.97c6.07,11.44,6.37,30.21,0.67,41.85c-5.08,10.38-0.77,22.97,9.62,28.05
		c11.63,5.69,22.91,20.7,25.14,33.46c0.97,5.49,4.02,10.29,8.62,13.52c4.6,3.23,10.16,4.48,15.64,3.52
		C1326.47,641.4,1328.51,641.23,1330.6,641.23 M1379.14,663.26c-6.1,0-12.19-2.27-16.91-6.83c-8.63-8.35-25.27-13.47-37.11-11.41
		c-6.37,1.12-12.81-0.33-18.14-4.08c-5.33-3.73-8.88-9.31-9.99-15.68c-2.07-11.83-12.53-25.75-23.32-31.03
		c-12.04-5.89-17.04-20.48-11.15-32.52c5.28-10.79,5-28.2-0.62-38.82c-3.03-5.71-3.64-12.29-1.73-18.51
		c1.91-6.22,6.12-11.31,11.83-14.34c10.61-5.63,20.63-19.88,22.31-31.77c0.9-6.4,4.28-12.09,9.48-16c5.2-3.91,11.58-5.57,18-4.66
		c11.88,1.7,28.36-3.95,36.72-12.58c9.32-9.63,24.75-9.87,34.37-0.55c8.63,8.35,25.3,13.47,37.11,11.4
		c6.37-1.11,12.81,0.33,18.14,4.07c5.33,3.75,8.88,9.31,9.99,15.69c2.07,11.83,12.53,25.75,23.32,31.03
		c12.03,5.89,17.03,20.48,11.14,32.52c-5.28,10.79-5,28.2,0.62,38.82c3.03,5.72,3.65,12.29,1.73,18.51
		c-1.91,6.22-6.11,11.32-11.83,14.34c-10.61,5.63-20.62,19.88-22.31,31.77c-0.9,6.4-4.28,12.09-9.48,16s-11.58,5.56-18,4.66
		c-11.87-1.7-28.36,3.95-36.72,12.58C1391.85,660.79,1385.5,663.26,1379.14,663.26"/>
	<path class="st9" d="M1354.03,638.83c9.56,0,19.96,2.8,26.74,7.7c8.65,6.26,20.78,4.31,27.03-4.34
		c7.07-9.79,22.63-17.76,34.71-17.79c5.14-0.01,10-2.04,13.66-5.72c3.66-3.68,5.67-8.54,5.65-13.69
		c-0.03-12.07,7.88-27.67,17.63-34.79c8.61-6.3,10.51-18.44,4.21-27.06c-7.12-9.74-9.9-27.02-6.2-38.51
		c1.57-4.9,1.14-10.14-1.22-14.76c-2.36-4.61-6.37-8.03-11.26-9.61c-11.49-3.7-23.89-16.04-27.65-27.51
		c-1.61-4.89-5.03-8.88-9.66-11.22c-4.63-2.34-9.87-2.76-14.77-1.15c-11.47,3.76-28.75,1.06-38.53-6.01
		c-4.17-3.01-9.3-4.23-14.41-3.4c-5.13,0.82-9.61,3.57-12.63,7.75c-7.07,9.78-22.64,17.76-34.7,17.79
		c-10.68,0.02-19.35,8.73-19.32,19.41c0.03,12.06-7.87,27.67-17.62,34.79c-4.16,3.03-6.89,7.53-7.68,12.65
		c-0.81,5.13,0.42,10.24,3.47,14.4c7.11,9.74,9.89,27.02,6.19,38.5c-1.58,4.9-1.14,10.14,1.22,14.77c2.37,4.62,6.37,8.03,11.27,9.61
		c11.49,3.7,23.89,16.04,27.65,27.51c3.32,10.15,14.29,15.7,24.42,12.38C1345.74,639.38,1349.81,638.83,1354.03,638.83
		 M1392.08,653.54c-4.61,0-9.27-1.4-13.28-4.29c-8.87-6.42-25.13-8.95-35.53-5.54c-11.89,3.9-24.76-2.61-28.66-14.51
		c-3.4-10.4-15.07-22.02-25.48-25.37c-5.75-1.86-10.45-5.86-13.22-11.26c-2.77-5.41-3.28-11.56-1.43-17.31
		c3.36-10.41,0.74-26.68-5.71-35.51c-3.56-4.88-5.01-10.87-4.08-16.89c0.94-6,4.14-11.28,9.03-14.84
		c8.83-6.45,16.27-21.14,16.25-32.08c-0.03-12.52,10.13-22.73,22.65-22.76c10.94-0.03,25.6-7.54,32.02-16.41
		c3.54-4.9,8.79-8.13,14.8-9.09c6-0.96,12,0.46,16.9,3.99c8.87,6.4,25.14,8.95,35.54,5.54c5.73-1.88,11.89-1.4,17.31,1.34
		c5.43,2.75,9.45,7.43,11.33,13.17c3.4,10.4,15.07,22.01,25.49,25.37c5.75,1.85,10.45,5.85,13.22,11.26
		c2.77,5.41,3.28,11.56,1.43,17.31c-3.35,10.41-0.74,26.67,5.72,35.5c3.56,4.88,5.01,10.88,4.07,16.89
		c-0.94,6-4.15,11.28-9.02,14.84c-8.84,6.45-16.28,21.14-16.25,32.08c0.01,6.04-2.34,11.74-6.63,16.05
		c-4.29,4.31-9.97,6.69-16.02,6.71c-10.94,0.02-25.6,7.54-32,16.41C1406.08,650.28,1399.13,653.54,1392.08,653.54"/>
	<path class="st10" d="M1377.57,633.13c6.56,0,13.13,1.27,18.12,3.82c4.22,2.15,9.04,2.52,13.58,1.05
		c4.54-1.48,8.22-4.61,10.37-8.83c5.09-9.99,18.24-19.55,29.31-21.29c9.7-1.54,16.33-10.68,14.8-20.38
		c-1.76-11.07,3.26-26.53,11.19-34.45c3.35-3.35,5.19-7.82,5.19-12.59c0-4.77-1.85-9.25-5.19-12.59
		c-7.93-7.93-12.95-23.38-11.19-34.45c1.53-9.7-5.11-18.84-14.8-20.38c-11.07-1.75-24.22-11.3-29.31-21.29
		c-2.15-4.21-5.83-7.35-10.37-8.83c-4.54-1.47-9.36-1.1-13.58,1.05c-9.98,5.09-26.24,5.09-36.23,0c-4.21-2.15-9.03-2.52-13.57-1.05
		s-8.23,4.61-10.37,8.83c-5.09,9.99-18.24,19.54-29.31,21.29c-4.68,0.74-8.8,3.27-11.6,7.14c-2.8,3.86-3.94,8.56-3.2,13.24
		c1.75,11.07-3.27,26.53-11.19,34.45c-3.35,3.35-5.19,7.82-5.19,12.59c0,4.77,1.84,9.24,5.19,12.59
		c7.92,7.92,12.94,23.38,11.19,34.45c-0.74,4.68,0.4,9.38,3.2,13.24c2.81,3.86,6.93,6.39,11.6,7.14
		c11.07,1.75,24.21,11.3,29.31,21.29c2.15,4.21,5.83,7.35,10.37,8.83c4.53,1.48,9.36,1.1,13.57-1.05
		C1364.45,634.4,1371.02,633.13,1377.57,633.13 M1403.71,642.24c-3.29,0-6.54-0.78-9.54-2.3c-8.99-4.58-24.2-4.58-33.19,0
		c-5.02,2.55-10.74,3-16.14,1.25c-5.38-1.75-9.76-5.48-12.31-10.5c-4.59-8.99-16.88-17.93-26.85-19.51
		c-5.56-0.89-10.46-3.89-13.79-8.47c-3.33-4.59-4.68-10.17-3.8-15.73c1.57-9.97-3.12-24.43-10.26-31.57
		c-3.98-3.97-6.17-9.29-6.17-14.95c0-5.67,2.19-10.98,6.17-14.96c7.14-7.14,11.84-21.6,10.26-31.57c-0.88-5.56,0.47-11.14,3.8-15.73
		c3.33-4.58,8.23-7.59,13.79-8.47c9.97-1.59,22.27-10.52,26.85-19.51c2.55-5.01,6.93-8.74,12.31-10.5c5.4-1.75,11.12-1.3,16.14,1.25
		c8.99,4.58,24.2,4.58,33.19,0c5.02-2.55,10.74-3,16.14-1.25c5.38,1.75,9.76,5.48,12.32,10.5c4.58,8.99,16.88,17.93,26.85,19.51
		c11.52,1.82,19.4,12.68,17.58,24.2c-1.58,9.97,3.12,24.42,10.26,31.57c3.98,3.97,6.17,9.29,6.17,14.96
		c0,5.66-2.19,10.98-6.17,14.95c-7.14,7.15-11.84,21.6-10.26,31.57c1.82,11.52-6.07,22.38-17.58,24.2
		c-9.97,1.58-22.27,10.51-26.85,19.51c-2.55,5.01-6.93,8.74-12.32,10.5C1408.14,641.89,1405.92,642.24,1403.71,642.24"/>
	<path class="st0" d="M1444.85,559.48l-2.94-0.94c-4.4-1.41-9.62-2.08-15.4-2.04c-14.35,0.11-30.71,4.72-43.93,12.38
		c-3.75-22.69-2-48.92-1.46-55.66c5.48,3.11,12.13,8.9,16.43,24.89l0.56,2.06l0.38-2.1c3.21-17.81-8.94-29.4-9.38-29.82
		c0.49-0.04,3.73,0.06,8.33,2.18c4.26,1.97,10.66,6.24,16.94,15.4l1.34,1.96l-0.48-2.33c-4.68-22.83-23.37-27.48-24.44-27.73
		c0.29-0.22,6.29-4.49,24.02,1.35l1.64,0.54l-1.12-1.31c-10.89-12.74-27.36-9.33-29.14-8.91l0.03-0.06
		c0.68-1.47,3.32-4.98,8.77-8.75l1.67-1.16l-2.01,0.28c-8.95,1.27-13.85,5.49-14.98,6.98c-0.11-1.96-0.49-5.57-1.68-8.29l-0.44-1
		l-0.44,1c-1.19,2.71-1.57,6.32-1.68,8.29c-1.11-1.48-6.02-5.71-14.98-6.98l-2-0.28l1.66,1.16c5.4,3.74,8.05,7.21,8.8,8.81
		c-1.67-0.38-18.3-3.78-29.14,8.91l-1.12,1.31l1.64-0.54c17.79-5.86,23.75-1.56,24.03-1.35c-1.11,0.25-19.77,4.92-24.45,27.72
		l-0.47,2.33l1.34-1.96c6.28-9.15,12.68-13.42,16.94-15.4c4.45-2.06,7.63-2.18,8.29-2.18h0.04c-0.49,0.46-12.58,12.05-9.38,29.82
		l0.38,2.1l0.56-2.06c4.31-15.99,10.94-21.77,16.43-24.89c0.55,6.76,2.29,33-1.46,55.67c-13.21-7.65-29.59-12.27-43.93-12.38
		c-0.21,0-0.42,0-0.63,0c-5.56,0-10.53,0.68-14.76,2.04l-2.93,0.94h3.08c25.05,0,40.2,6.18,57.65,16.86
		c-0.39,0.28-0.84,0.6-1.33,0.95c-7.16,5.15-23.94,17.21-32.22,17.21c-1.48,0-2.77-0.17-3.97-0.52l-1.56-0.46l1.21,1.41
		c1,1.17,3.32,3.91,7.6,3.91c10.27,0,24.33-9.78,32.74-15.61c1.58-1.1,2.97-2.07,4.07-2.77c1.09,0.71,2.49,1.67,4.07,2.78
		c8.4,5.83,22.46,15.61,32.73,15.61c4.28,0,6.6-2.74,7.59-3.91l1.22-1.41l-1.56,0.46c-1.19,0.35-2.5,0.52-3.97,0.52
		c-8.27,0-25.06-12.06-32.22-17.21c-0.49-0.35-0.94-0.67-1.33-0.95c17.46-10.69,32.62-16.86,57.66-16.86H1444.85z"/>
</g>
</svg>
