<?xml version="1.0" encoding="utf-8"?>
<!-- Generator: Adobe Illustrator 24.2.0, SVG Export Plug-In . SVG Version: 6.00 Build 0)  -->
<svg version="1.1" id="Layer_1" xmlns="http://www.w3.org/2000/svg" xmlns:xlink="http://www.w3.org/1999/xlink" x="0px" y="0px"
	 viewBox="0 0 512 512" enable-background="new 0 0 512 512" xml:space="preserve">
<g>
	<path fill="#673525" d="M452.022,195.55c9.743,4.299,19.291,8.793,28.978,13.148c-68.552,9.517-121.955,34.755-166.369,68.697
		c-11.021,8.423-21.374,17.821-31.258,27.504c-2.859,2.799-5.688,5.577-8.452,8.584c-0.268,0.29-0.524,0.916-1.074,0.805
		C316.007,257.576,370.104,212.064,452.022,195.55"/>
	<path fill="#673525" d="M428.676,168.18c8.699,2.416,17.944,4.767,26.299,7.379c-21.668,5.249-40.494,13.424-57.961,23.078
		c-34.747,19.201-64.723,43.251-91.771,70.303c-14.093,14.093-27.36,30.189-39.046,47.093c-0.72,1.04-0.959,1.951-2.011,3.084
		c-0.584,0.626,0.311-1.014,0.268-0.937c8.201-14.221,17.672-28.203,26.968-41.325c16.871-23.802,35.51-45.589,56.888-64.667
		c7.055-6.301,14.4-12.44,22.405-18.115c14.502-10.276,30.9-19.67,50.314-25.626c1.38-0.426,2.859-1.163,3.758-1.206
		C425.724,167.196,427.402,167.826,428.676,168.18"/>
	<path fill="#673525" d="M440.617,345.685c0.162,0.622-0.703,1.521-1.206,2.279c-0.55,0.831-1.052,1.683-1.61,2.284h-31.663V336.56
		c1.5-0.46,2.978-0.954,4.426-1.474c0.311,3.221,0.043,7.021,0.132,10.468c7.157,0.311,14.894,0.042,22.273,0.132
		c-1.312-2.313-5.59-1.474-8.857-1.474h-10.331c0.4-1.619,0.967-3.059,1.478-4.563c5.253,0.507,11.588-0.677,16.5,0
		c3.391,0.469,5.33,3.033,6.173,6.037H440.617z"/>
	<path fill="#673525" d="M432.567,369.433c0.609-0.285,1.725-0.06,2.548-0.132c-0.754,4.141,1.359,9.892-0.805,12.474
		c-1.325,1.585-4.584,1.359-7.11,0.805c-0.153-0.916-0.341-1.806-0.537-2.684c1.606,0.618,5.564,1.713,5.905-0.801
		c-1.845,0.043-3.954,0.264-5.1-0.805c-1.904-1.789-0.49-5.666-0.937-8.989c0.822,0.072,1.939-0.153,2.548,0.132
		c0.234,2.36-0.588,5.777,0.673,7.11c0.78,0.226,1.883,0.145,2.684,0C432.742,374.435,432.478,371.764,432.567,369.433"/>
	<path fill="#673525" d="M425.053,350.784c1.436,0.712,2.254,2.041,3.353,3.085c-0.95,1.286-2.066,2.407-3.353,3.357
		c-0.971-1.086-2.002-2.113-3.085-3.089C422.783,352.808,424.125,352.002,425.053,350.784"/>
	<path fill="#673525" d="M410.161,141.346c9.407,0,19.576-0.158,28.846-0.268c-31.011,13.237-58.422,31.109-82.113,52.193
		c-15.835,14.093-30.862,28.629-44.409,45.078c-19.649,23.87-38.04,49.645-51.92,79.429c-0.226,0.481-0.409,1.5-0.805,1.342
		c18.341-46.953,44.733-88.069,75.672-123.434c12.342-14.11,25.506-27.002,40.784-38.777c6.335-4.878,13.411-9.543,20.931-13.82
		c1.21-0.686,2.437-1.585,3.221-1.743C403.178,140.792,406.931,141.346,410.161,141.346"/>
	<path fill="#673525" d="M424.785,376.813v2.279c-2.561-0.149-4.84,0.473-5.905-1.074c-0.988-1.427-0.094-3.753-0.4-6.169
		c-0.362-0.307-1.291-0.051-1.879-0.136v-2.279c0.4-0.268,1.261-0.077,1.879-0.136v-3.485h2.548v3.353
		c0.942,0.311,2.462,0.043,3.621,0.132v2.416h-3.485c-0.23,1.171-0.213,3.255,0,4.431
		C421.628,377.111,423.431,376.736,424.785,376.813"/>
	<path fill="#673525" d="M414.991,365.677c1.397,2.258-2.386,3.182-2.684,1.206C412.107,365.532,413.709,364.739,414.991,365.677"/>
	<rect x="412.576" y="369.297" fill="#673525" width="2.416" height="9.794"/>
	<path fill="#673525" d="M409.222,373.861c0.682,0.469,1.325,1.402,1.206,2.684c-0.294,3.298-5.849,3.332-8.853,1.879
		c0.124-0.997,0.66-1.576,0.805-2.552c1.103,0.686,4.081,1.606,5.368,0.405c-1.082-1.751-4.341-0.899-5.504-2.684
		c-2.697-4.137,4.699-5.858,7.784-3.757c-0.102,0.976-0.541,1.606-0.805,2.415c-1.112-0.515-3.745-1.384-4.831-0.268
		C405.396,373.469,407.863,372.924,409.222,373.861"/>
	<path fill="#673525" d="M391.782,339.648c8.546-0.946,13.454,1.751,12.206,10.6H355.42c-1.197-9.292,4.691-11.499,13.684-10.6
		v6.037h5.368c0.102-0.912-1.491-1.278-2.416-1.61v-4.426h16.773v4.294c-0.797,0.635-2.249,0.614-2.552,1.742h5.368
		C391.961,343.943,391.692,341.617,391.782,339.648 M396.477,345.685h2.548c-0.026-1.312-1.15-1.534-2.548-1.474V345.685z
		 M381.719,344.211c-0.805,0.089-1.968-0.179-2.552,0.132c0.375,0.251,0.26,0.997,0.537,1.342h1.478
		C381.404,345.238,381.493,344.658,381.719,344.211 M364.409,345.685v-1.474c-1.9-0.068-3.711-0.047-4.026,1.474H364.409z"/>
	<path fill="#673525" d="M400.367,369.165c0.285,0.567,0.068,1.632,0.132,2.416c-1.159-0.047-2.203,0.034-3.217,0.132v7.383h-2.552
		v-9.53C396.485,369.31,398.266,369.075,400.367,369.165"/>
	<path fill="#673525" d="M391.242,370.106c1.146,0.988,1.662,2.369,1.747,4.827c-2.288,0.311-5.146,0.047-7.647,0.136
		c0.29,2.335,4.554,2.028,6.037,0.937c0.205,0.869,0.69,1.453,0.937,2.283c-2.369,1.538-6.446,1.299-8.184-0.405
		C379.526,373.365,386.458,365.961,391.242,370.106 M385.474,372.922h4.831C390.147,370.715,385.653,370.792,385.474,372.922"/>
	<path fill="#673525" d="M379.705,369.299h2.548c-1.04,3.344-2.19,6.574-3.353,9.794h-3.353c-1.133-3.255-2.301-6.467-3.357-9.794
		h2.552c0.886,2.331,1.691,4.746,2.416,7.247C378.124,374.245,378.737,371.595,379.705,369.299"/>
	<path fill="#B7902E" d="M357.433,129.405c9.573-0.358,18.997-0.136,28.442-0.4c-34.572,17.587-60.462,44.814-81.304,76.072
		c-20.948,31.407-37.652,67.645-47.093,110.155c-1.606-5.283-2.825-10.438-3.89-15.567c-1.031-4.946-3.276-9.705-5.236-14.221
		c-11.643-26.9-27.432-50.548-45.884-70.708c-24.642-26.917-54.66-49.445-91.371-64.131c9.377-0.072,19.154-0.013,28.847,0.132
		c3.191,0.051,6.693-0.469,9.662,0c1.312,0.209,3.234,1.478,4.963,2.416c23.73,12.87,41.64,31.599,57.288,52.325
		c17.041,22.575,29.771,48.712,38.909,77.955c-3.847-28.361-2.641-63.07,2.952-88.955c5.257-24.284,14.085-46.305,28.715-61.987
		c0.92-0.989,2.462-2.778,3.084-2.953c1.359-0.371,3.894,0,6.037,0c13.203,0,26.878,0.294,39.672,0.166
		c-13.42,8.555-24.637,18.579-34.304,30.696c-27.586,34.56-43.259,84.98-39.851,148.659c0.047,0.844,0.268,3.89,0.268,3.89
		c0.119-0.115,0-2.671,0-3.89c0-9.701,0.622-18.515,1.61-26.567c3.523-28.604,11.324-53.02,21.199-75.267
		c13.339-30.048,30.095-55.235,51.119-77.414c0.055,0,0.115-0.068,0.068-0.107c0.737-0.008,1.474-0.017,2.211-0.03
		C341.482,129.563,349.479,129.703,357.433,129.405"/>
	<path fill="#673525" d="M370.715,365.677c1.397,2.258-2.386,3.182-2.684,1.206C367.831,365.532,369.437,364.739,370.715,365.677"/>
	<rect x="368.298" y="369.297" fill="#673525" width="2.416" height="9.794"/>
	<path fill="#673525" d="M370.044,336.025c-1.082,0.971-2.113,2.002-3.085,3.085c-0.69-0.243-1.048-0.912-1.61-1.474
		c-0.281-0.281-1.214-1.466-1.478-1.479c-0.916-0.038-2.13,2.876-3.217,2.953c-0.976-1.082-2.002-2.113-3.089-3.085
		c0.818-1.329,2.16-2.134,3.089-3.353c0.89,0.153,2.641,2.935,3.084,2.952c0.831,0.03,2.19-2.697,2.952-2.952
		C367.974,333.623,369.094,334.739,370.044,336.025"/>
	<path fill="#673525" d="M365.751,379.094h-2.548c-0.085-3.647,1.129-9.096-3.758-7.515c-0.307,2.245-0.047,5.057-0.136,7.515
		h-2.416v-9.662c2.467-0.187,5.283-0.937,7.115,0C366.82,370.88,365.406,375.225,365.751,379.094"/>
	<path fill="#673525" d="M351.395,365.14h2.684c-0.452,3.992,0.775,7.72-0.405,11c-1.278,3.562-7.404,4.362-10.195,1.747
		c-2.399-2.254-1.18-7.767-1.474-12.346c0.124-0.861,1.776-0.187,2.548-0.401c0.115,5.394-1.47,13.59,4.963,11.537
		C352.809,375.629,350.858,369.217,351.395,365.14"/>
	<path fill="#673525" d="M347.236,350.247h-4.695v-13.552c1.419-0.635,3.089-1.022,4.563-1.61
		C347.414,339.873,347.146,345.237,347.236,350.247"/>
	<path fill="#673525" d="M340.393,335.086v15.163h-4.563v-2.952c-1.938,0.115-2.969,1.146-3.084,3.084h-4.695
		c0.106-2.3,0.912-3.919,2.011-5.232c-2.347-2.22-3.246-8.086-1.474-11.673c1.619,0.435,2.782,1.329,4.29,1.879
		c-1.282,2.398-0.46,6.13,1.342,7.379c0.571-0.013,0.941-0.222,1.61-0.132v-6.041C337.389,336.108,338.834,335.537,340.393,335.086"
		/>
	<path fill="#673525" d="M332.477,331.061c1.027,0.311,2.637,0.043,3.89,0.132c-0.128,0.814-0.43,1.449-0.669,2.147h-6.978
		c0.268-0.669,0.439-1.436,0.673-2.147h0.669c0.656-1.891,2.117-2.978,4.963-2.68c0.179,0.758,0.494,1.385,0.673,2.147
		C334.513,330.682,333.12,330.494,332.477,331.061"/>
	<path fill="#673525" d="M334.49,376.813v2.279h-8.589c-0.46-2.586,1.282-3.557,2.552-4.827c0.976-0.98,1.994-1.717,2.684-2.552
		h-4.699c-0.217-0.537-0.217-1.879,0-2.416h7.92c0.545,2.773-1.253,3.536-2.552,4.831c-0.971,0.971-1.789,1.875-2.548,2.684H334.49z
		"/>
	<path fill="#673525" d="M313.694,339.648c8.504-0.946,13.39,1.726,12.074,10.6H298.4c-0.818,1.777-1.674,3.515-2.952,4.827
		c-1.197-0.993-2.16-2.224-3.353-3.217c2.42-1.785,1.849-6.561,1.875-10.736c1.504-0.464,2.982-0.954,4.431-1.474h0.268v6.037h7.379
		v-4.563c1.615-0.439,3.025-1.091,4.695-1.474v5.905c0.716,0.311,2.011,0.042,2.953,0.132V339.648z M320.805,345.685
		c0.038-1.38-1.15-1.534-2.548-1.474v1.474H320.805z"/>
	<path fill="#673525" d="M324.025,365.811c1.231,2.028-2.637,3.246-2.816,0.937c-0.064-0.792,0.307-1.103,1.074-1.338
		C323.381,365.074,323.892,365.589,324.025,365.811"/>
	<path fill="#673525" d="M324.025,369.433v9.662h-2.548v-9.394C321.605,368.952,323.475,369.327,324.025,369.433"/>
	<path fill="#673525" d="M319.328,376.813v2.279h-8.589c-0.456-2.586,1.278-3.553,2.552-4.827c0.976-0.98,1.939-1.768,2.684-2.552
		h-4.831c0.068-0.78-0.149-1.849,0.132-2.416h7.784c0.844,2.675-1.091,3.506-2.416,4.831c-0.984,0.984-1.823,1.909-2.548,2.684
		H319.328z"/>
	<path fill="#673525" d="M308.192,350.784c0.929,1.218,2.271,2.024,3.084,3.353c-1.082,0.976-2.113,2.002-3.084,3.089
		c-0.686-0.247-1.044-0.908-1.611-1.478c-0.281-0.277-1.21-1.466-1.474-1.474c-0.912-0.038-2.13,2.871-3.221,2.952
		c-0.971-1.086-2.002-2.113-3.084-3.089c0.814-1.329,2.156-2.135,3.084-3.353c0.899,0.162,2.646,2.935,3.084,2.953
		C305.883,353.775,307.102,350.861,308.192,350.784"/>
	<path fill="#673525" d="M307.654,369.702c2.249,1.555,1.018,5.406,1.342,8.853c-2.399,0.963-6.821,1.359-8.316-0.537
		c-2.471-3.123,1.849-6.399,5.768-5.232c-0.371-2.42-4.222-0.988-5.637-0.537c0.145-0.75,0.281-1.508,0.268-2.415
		C302.891,368.82,306.103,368.629,307.654,369.702 M306.448,376.813v-1.879c-1.534-0.264-3.724-0.362-3.758,0.942
		C302.657,377.192,304.983,377.281,306.448,376.813"/>
	<path fill="#673525" d="M297.996,365.14v13.953h-2.548v-13.552C295.572,364.68,297.225,365.353,297.996,365.14"/>
	<path fill="#673525" d="M292.763,369.299v9.394c-2.573,0.656-5.96,1.282-7.647-0.405c-1.862-1.862-0.524-5.594-0.942-8.989
		c0.822,0.073,1.943-0.149,2.552,0.132c0.149,3.357-1.218,8.879,3.489,7.247v-7.247C290.825,369.15,291.941,369.372,292.763,369.299
		"/>
	<path fill="#673525" d="M286.19,339.648v10.6h-51.388v-13.552c1.419-0.639,3.093-1.022,4.563-1.61
		c0.311,3.221,0.043,7.021,0.132,10.468c0.673,0.311,1.926,0.042,2.82,0.132v-9.125c1.615-0.439,3.021-1.086,4.695-1.474v6.305
		c2.837-3.191,13.152-1.18,19.589-1.742v5.905c0.758,0.311,2.1,0.042,3.084,0.132c0.068-0.988-1.069-1.397-0.937-2.011
		c1.351-0.66,2.509-1.516,3.753-2.284c1.218,0.886,1.572,2.633,2.015,4.294h0.937c0.315-0.758,0.047-2.1,0.136-3.084
		c1.559-0.456,2.999-1.022,4.563-1.478v4.563h1.338c0.315-1.252,0.047-3.084,0.136-4.563
		C283.093,340.577,284.635,340.104,286.19,339.648 M262.038,345.685v-1.474c-3.379,0.243-8.849-0.328-12.074,0
		c-1.065,0.106-1.755,0.686-2.015,1.474H262.038z"/>
	<path fill="#673525" d="M281.76,365.142v13.684c-4.729,1.653-10.144-0.307-9.658-5.232c0.268-2.692,2.978-5.317,7.11-4.431v-4.022
		H281.76z M279.212,376.678v-5.099C273.572,369.572,273.397,378.758,279.212,376.678"/>
	<path fill="#673525" d="M263.783,369.031c5.747-1.376,9.189,5.155,5.768,8.721c-1.7,1.772-5.317,1.977-8.316,1.074v-13.684h2.548
		V369.031z M263.783,376.678c5.785,2.041,5.624-7.076,0-5.099V376.678z"/>
	<path fill="#673525" d="M259.757,379.093h-2.684c-0.417-1.056-0.771-2.181-1.206-3.221h-5.5c-0.694,0.831-0.814,2.232-1.342,3.221
		h-2.684c1.743-4.652,3.37-9.42,5.232-13.952h3.089C256.297,369.852,258.108,374.394,259.757,379.093 M255.062,373.324
		c-0.882-1.576-1.091-3.83-2.147-5.232c-0.545,1.866-1.235,3.592-1.879,5.364C252.335,373.367,253.988,373.635,255.062,373.324"/>
	<path fill="#673525" d="M239.901,379.094h-2.548c-0.179-3.813,1.274-9.057-3.758-7.515v7.515h-2.552v-9.662
		c2.871-0.239,6.416-1.159,8.052,0.673C240.829,372.043,239.453,375.728,239.901,379.094"/>
	<path fill="#673525" d="M220.58,339.648c8.512-0.958,13.373,1.742,12.074,10.6c-7.204,0.396-17.105-1.9-18.111,4.695
		c-1.512-0.771-2.484-2.079-3.758-3.084c1.725-3.596,4.618-6.028,9.794-6.173V339.648z M227.691,345.685
		c0.004-1.346-1.129-1.555-2.548-1.474v1.474H227.691z"/>
	<path fill="#673525" d="M191.063,229.361c25.907,26.891,47.417,57.71,66.682,90.029c-22.631-32.996-50.101-61.872-81.308-86.271
		c-15.614-12.214-32.233-23.478-50.178-33.541c-17.966-10.076-37.584-18.711-59.704-24.02c9.385-3.025,20.164-5.432,29.515-8.184
		c1.287-0.379,5.751,1.406,7.916,2.147C139.982,181.91,167.376,204.775,191.063,229.361"/>
	<path fill="#673525" d="M226.618,365.408c1.167-0.375,2.505,0.592,1.879,1.879C227.495,369.345,223.84,366.29,226.618,365.408"/>
	<path fill="#673525" d="M228.362,369.299v9.794h-2.548V369.7C225.98,368.886,227.561,369.482,228.362,369.299"/>
	<path fill="#673525" d="M223.4,373.325c2.471,5.556-5.023,6.433-10.331,5.768v-13.952c3.843-0.021,8.832-0.498,9.794,2.279
		c0.452,1.308,0.06,3.434-1.61,4.026C222.13,372.158,222.978,372.383,223.4,373.325 M220.848,375.873
		c0.234-0.605,0.196-1.704-0.132-2.147c-1.031-0.848-3.31-0.448-5.1-0.537v3.489C217.554,376.605,219.983,377.018,220.848,375.873
		 M215.616,370.641c2.437,0.06,4.925,0.256,4.695-1.742c-0.196-1.695-2.531-1.316-4.695-1.342V370.641z"/>
	<path fill="#673525" d="M205.151,379.094h-2.548c-0.247-2.526,0.648-6.194-0.805-7.515c-0.963-0.277-1.751,0.03-2.684,0.136
		c0.196,1.777,0.128,4.963,0.132,7.379h-2.548c-0.247-3.289,1.304-8.938-3.221-7.515c-0.307,2.245-0.043,5.057-0.132,7.515h-2.552
		v-9.526c1.875-0.447,5.308-1.061,6.842,0.132c2.015-0.869,5.236-1.104,6.578,0.268
		C206.084,371.894,204.716,375.724,205.151,379.094"/>
	<path fill="#673525" d="M202.87,350.247h-7.916c-2.198,5.781-13.872,4.725-13.284-3.084c1.559-0.498,2.969-1.146,4.695-1.478
		c-1.316,3.374,3.242,5.1,4.294,2.416c0.486-1.235-0.077-2.335,0.136-4.026c1.487-0.481,2.999-0.933,4.426-1.474
		c0.311,0.716,0.043,2.011,0.132,2.952c0.716,0.311,2.015,0.043,2.952,0.132v-4.559c1.41-0.562,3.029-0.907,4.431-1.478
		C203.049,342.911,202.78,346.758,202.87,350.247"/>
	<path fill="#673525" d="M202.736,354.138c-1.086,0.971-2.113,2.002-3.085,3.085c-1.333-0.814-2.139-2.156-3.357-3.085
		c0.818-1.329,2.16-2.134,3.089-3.353C200.665,351.735,201.786,352.852,202.736,354.138"/>
	<path fill="#673525" d="M191.734,340.318c-0.818,1.329-2.16,2.135-3.085,3.353c-0.562-0.511-1.069-0.933-1.747-1.61
		c-0.26-0.26-1.598-1.3-1.61-1.611c-0.021-0.558,3.11-2.731,3.221-3.353C189.642,338.116,190.716,339.19,191.734,340.318"/>
	<path fill="#673525" d="M187.305,369.971c1.904,1.734,0.498,5.368,0.942,8.585c-2.096,0.746-5.602,1.414-7.647,0
		c-1.376-0.95-1.764-3.302-0.405-4.695c1.172-1.189,3.298-1.189,5.637-1.073c-0.426-2.296-4.231-1.112-5.637-0.537
		c-0.017-0.954,0.209-1.67,0.268-2.547C182.605,368.812,185.818,368.616,187.305,369.971 M185.831,376.813v-1.879
		c-1.721-0.362-4.239-0.268-3.758,1.342C182.405,377.384,184.591,377.068,185.831,376.813"/>
	<path fill="#673525" d="M177.915,376.813v2.279c-2.488-0.166-4.635,0.477-5.768-0.937c-1.108-1.376-0.264-3.8-0.537-6.305
		c-0.349-0.371-1.525,0.094-1.879-0.268v-2.147c0.4-0.268,1.265-0.077,1.879-0.136v-3.485h2.548v3.353
		c0.942,0.311,2.462,0.043,3.626,0.132v2.416h-3.489c-0.243,1.18-0.205,3.242,0,4.431
		C174.787,377.077,176.547,376.753,177.915,376.813"/>
	<path fill="#673525" d="M163.29,345.685h11.673c-0.878,1.628-1.985,3.025-2.952,4.563h-33.273v-4.563h4.158
		c0.051-0.946-1.606-1.346-2.816-1.474v-4.563c4.426,0.183,6.642,2.569,7.779,6.037h2.952v-4.563
		c1.504-0.507,3.038-0.988,4.563-1.474v5.905c0.669,0.311,1.921,0.042,2.816,0.132c1.342-4.784,5.453-6.804,12.346-6.037
		c0.452,1.559,1.022,2.999,1.474,4.563C168.926,344.522,164.27,343.265,163.29,345.685"/>
	<path fill="#673525" d="M67.494,195.416c82.122,16.99,136.232,61.975,178.174,119.144
		c-46.092-48.282-103.572-85.155-181.689-101.412c-0.081-0.055-0.158-0.107-0.243-0.153c0.009,0.081,0.021,0.153,0.136,0.132
		c0.034,0.004,0.072,0.017,0.106,0.021c5.521,3.591,8.559,10.774,10.894,17.957c-0.609,0.055-1.474-0.669-2.279-1.205
		C60.924,222.115,46.87,215.917,31,212.189C42.784,206.216,55.637,201.312,67.494,195.416"/>
	<path fill="#673525" d="M168.791,376.813v2.279c-2.386-0.17-4.482,0.439-5.637-0.805c-1.261-1.363-0.396-3.868-0.669-6.437
		c-0.32-0.307-1.201-0.051-1.747-0.136v-2.416h1.747v-3.485h2.548v3.353c0.942,0.311,2.462,0.043,3.626,0.132
		c0.217,0.537,0.217,1.879,0,2.416h-3.489c-0.247,1.321-0.243,3.553,0.132,4.699C166.052,376.958,167.517,376.791,168.791,376.813"
		/>
	<path fill="#673525" d="M158.326,369.971c1.866,1.755,0.516,5.359,0.937,8.585c-2.62,1.12-7.754,1.338-8.721-1.206
		c-1.346-3.545,2.569-5.193,6.173-4.563c-0.337-2.45-4.239-0.967-5.637-0.537c0.26-0.724,0.17-1.798,0.405-2.547
		C153.58,368.824,156.865,368.595,158.326,369.971 M156.716,376.813v-1.879c-1.61-0.311-3.868-0.302-3.758,1.074
		C153.06,377.23,155.348,377.23,156.716,376.813"/>
	<path fill="#673525" d="M154.972,354.138c-1.086,0.971-2.113,2.002-3.085,3.085c-1.333-0.814-2.139-2.156-3.357-3.085
		c0.818-1.329,2.16-2.134,3.089-3.353C152.901,351.735,154.022,352.852,154.972,354.138"/>
	<path fill="#673525" d="M148.666,374.129c1.184,5.888-7.115,6.109-10.732,4.026c0.239-0.835,0.682-1.466,0.937-2.283
		c1.627,0.907,7.012,1.998,7.11-0.669c0.094-2.488-4.848-1.896-6.574-3.621c-1.197-1.197-1.598-3.847-0.136-5.368
		c2.019-2.096,6.642-1.572,9.126-0.136c-0.256,0.818-0.699,1.448-0.937,2.284c-1.253-0.869-6.229-2.079-6.442,0.268
		c-0.192,2.104,5.321,2.271,6.71,3.757C148.133,372.821,148.576,373.686,148.666,374.129"/>
	<path fill="#673525" d="M122.907,370.374c3.119-2.986,9.628-0.92,8.717,4.695h-7.511c0.23,2.352,4.482,2.011,5.905,0.937
		c0.281,0.788,0.643,1.504,1.074,2.147c-1.427,0.916-3.072,1.321-4.699,1.21C122.068,379.061,119.499,373.633,122.907,370.374
		 M124.113,372.922h4.831C128.787,370.634,124.335,370.885,124.113,372.922"/>
	<path fill="#673525" d="M130.687,350.247h-4.695v-13.684c1.615-0.396,3.055-0.967,4.559-1.478
		C130.866,339.873,130.598,345.237,130.687,350.247"/>
	<path fill="#673525" d="M123.843,350.246H96.207c-0.818,1.734-1.483,3.617-2.952,4.695c-1.265-0.835-2.181-2.024-3.221-3.084
		c2.258-1.947,1.913-6.497,1.879-10.732c1.504-0.511,2.948-1.082,4.563-1.478v6.037h5.5c-0.149-0.652-1.257-1.512-2.548-1.474
		v-4.563h16.905v4.563c-1.376,0.013-2.096,0.678-2.684,1.474h5.368c0.311-2.726,0.043-6.037,0.132-8.989
		c1.419-0.635,3.093-1.022,4.563-1.606C124.022,339.873,123.754,345.236,123.843,350.246 M109.086,344.209h-2.416
		c0.124,0.503,0.303,0.95,0.405,1.474h1.61C108.702,345.074,109.013,344.763,109.086,344.209"/>
	<path fill="#673525" d="M120.49,369.835c-0.307,0.72-0.648,1.41-0.937,2.147c-0.929-0.175-1.287-0.52-2.147-0.537
		c-5.219-0.089-2.641,7.95,2.147,4.831c0.239,0.831,0.682,1.461,0.937,2.279c-3.971,2.202-8.738-0.375-8.721-4.426
		C111.786,370.159,116.187,367.56,120.49,369.835"/>
	<path fill="#673525" d="M110.159,379.094h-2.548c-0.081-3.638,1.12-9.1-3.758-7.515c-0.307,2.245-0.047,5.057-0.136,7.515h-2.416
		v-9.662c2.467-0.187,5.287-0.937,7.115,0C111.228,370.88,109.814,375.225,110.159,379.094"/>
	<path fill="#673525" d="M98.621,365.811c1.321,2.186-2.22,2.842-2.684,1.342c-0.303-0.98-0.077-1.418,0.941-1.742
		C97.713,365.146,98.382,365.415,98.621,365.811"/>
	<path fill="#673525" d="M98.621,369.433v9.662h-2.548v-9.394C96.201,368.952,98.071,369.327,98.621,369.433"/>
	<path fill="#673525" d="M94.193,332.671c1.329,0.818,2.134,2.16,3.353,3.085c-0.903,1.244-1.956,2.339-3.084,3.357
		c-1.257-0.89-2.292-2.002-3.221-3.221C92.012,334.605,93.311,333.846,94.193,332.671"/>
	<path fill="#673525" d="M94.327,369.165v2.416c-1.163-0.047-2.203,0.034-3.221,0.132v7.383h-2.548v-9.53
		C90.352,369.306,92.184,369.08,94.327,369.165"/>
	<path fill="#673525" d="M89.766,339.648v10.6H77.287c-0.707,1.794-1.474,3.532-2.816,4.695c-1.333-0.814-2.134-2.156-3.357-3.084
		c2.377-1.828,1.87-6.539,1.879-10.736c1.547-0.422,2.927-1.01,4.431-1.474c0.618,1.436,0.094,4.018,0.268,5.905
		c2.147,0.311,4.874,0.043,7.243,0.132c0.315-1.253,0.047-3.084,0.136-4.563C86.656,340.653,88.113,340.048,89.766,339.648"/>
	<path fill="#673525" d="M87.217,350.784c0.929,1.218,2.271,2.024,3.084,3.353c-1.082,0.976-2.113,2.002-3.084,3.089
		c-0.686-0.247-1.044-0.908-1.61-1.478c-0.281-0.277-1.214-1.466-1.474-1.474c-0.912-0.038-2.13,2.871-3.221,2.952
		c-0.976-1.086-2.002-2.113-3.089-3.089c0.818-1.329,2.16-2.135,3.089-3.353c0.899,0.158,2.641,2.935,3.084,2.953
		C84.908,353.775,86.126,350.861,87.217,350.784"/>
	<path fill="#673525" d="M86.276,366.483c1.576,1.657,1.355,4.818-0.4,6.305c-1.389,1.172-3.506,1.231-6.305,1.206
		c-0.315,1.431-0.047,3.447-0.136,5.1h-2.548c0.089-4.605-0.179-9.569,0.132-13.953C80.58,365.303,84.398,364.51,86.276,366.483
		 M79.434,371.446c2.922,0.358,6.199-0.162,4.831-3.221c-0.916-0.916-3.038-0.631-4.831-0.669V371.446z"/>
	<path fill="#673525" d="M78.764,336.025c-1.086,0.971-2.113,2.002-3.085,3.085c-1.333-0.814-2.139-2.156-3.357-3.085
		c0.818-1.329,2.16-2.134,3.089-3.353C76.693,333.623,77.814,334.739,78.764,336.025"/>
	<path fill="#673525" d="M63.977,213.149c-0.034-0.004-0.072-0.017-0.107-0.021c-0.111,0.021-0.128-0.051-0.132-0.137
		C63.82,213.043,63.901,213.094,63.977,213.149"/>
</g>
</svg>
