<?xml version="1.0" encoding="utf-8"?>
<!-- Generator: Adobe Illustrator 22.0.1, SVG Export Plug-In . SVG Version: 6.00 Build 0)  -->
<svg version="1.1" id="Layer_1" xmlns="http://www.w3.org/2000/svg" xmlns:xlink="http://www.w3.org/1999/xlink" x="0px" y="0px"
	 viewBox="0 0 1000 1000" style="enable-background:new 0 0 1000 1000;" xml:space="preserve">
<style type="text/css">
	.st0{fill-rule:evenodd;clip-rule:evenodd;fill:#E0B42F;}
	.st1{fill-rule:evenodd;clip-rule:evenodd;fill:#2D588C;}
</style>
<g>
	<path class="st0" d="M293.9,422.7c64.7,28.5,119.3,67.2,137.8,142l30.5-0.7c8.4-30,19.6-56,32.9-78.9c13.3,22.9,24.5,49,32.9,78.9
		l30.5,0.7c18.5-74.8,73.1-113.4,137.8-142c-52.4,7.7-102.5,36.8-147.5,112.9c-13.2-26.4-27.2-49.3-41.8-69.4
		c47-68.6,115.4-106.4,187.9-138.3c-71.3,18.5-140.2,48.5-199.8,122.7c-59.6-74.3-128.5-104.2-199.8-122.7
		c72.4,32,140.9,69.7,187.9,138.3c-14.6,20.1-28.5,43-41.8,69.4C396.4,459.5,346.3,430.4,293.9,422.7L293.9,422.7z"/>
	<path class="st1" d="M296.6,376.3c64.7,28.5,154.6,85.2,182.1,188.4l30.5-0.7c31.2-105,110-152,184.9-189.8
		c-93.9,24.4-141.6,58.2-199.6,160.7C441.9,421.4,349,384,296.6,376.3L296.6,376.3z"/>
	<path class="st1" d="M516.9,362.5c-5.8-20.4-12.9-37.1-21.5-49.2c-7.4,12.1-14.8,28.7-22.2,51.9c-4.2-20.5-5.3-41.1-4.8-61.6
		c-16.6,5.9-33.2,14-49.9,23.5c5.3-15.9,16.2-31.9,29.8-47.8c-18.7-8.8-41.8-13.6-67.9-15.9c21.8-10.1,47.7-15.1,76.9-15.9
		c-5.1-18-12.9-37.4-23.5-58.2c22.2,11.5,43.2,25,61.6,42.9c21-18.6,41.6-33.1,61.6-41.6l-22.9,55.4c29.6,1.9,56.1,7.1,78.3,17.3
		c-26.7,2.7-50.4,7-67.9,15.2c12.4,16.3,22.4,32.4,25.6,47.8c-16.7-10.8-32.9-19-47.8-21.5C522.6,324.1,521.2,343.3,516.9,362.5
		L516.9,362.5z"/>
	<path class="st1" d="M795.3,633.3L774.5,654c8.5,13.2,20.8,25.4,36.7,36.7l-56.8,0.7l0.7-85.9c-1.3-7.5-6.9-10.2-11.8-11.1h-10.4
		l-0.7,116.3h160.9l-3.7-19.4C840,693.4,809.6,671.9,795.3,633.3L795.3,633.3z M252.9,707.9c-1.5,13.8-14.2,25.2-15.5,26.4
		l21.1,12.8c11.6-13.1,15.4-39,15.8-49.9c7,10.4,6.3,10.6,18.8,10.6h124.5V639h-10.4c-9.1,0-11.1,6.8-11.1,10.4V690
		c-39.7-2.2-61.7-19.5-81.3-57.1l-19.8,19.8c8.7,14.7,23,25.9,37.6,36.8l-58.4,0.2V639H264c-9.1,0-11.1,6.8-11.1,10.4V707.9
		L252.9,707.9z M677.5,691.4h-13.2v-32.2C699.5,659,703.5,691.4,677.5,691.4L677.5,691.4z M645.7,691.4h-64.8
		c-32.6-18.3,27-44.4,39.7-49.9l-22.1-19.2c-32.2,14.6-60.1,41.4-51.5,69.2h-27.4v-50.9c-28.9,0-59.6,1.4-78.7,27.2
		c-4,5.4-3.8,19.5-1.2,25.4c5.8,13.4,19.4,17.2,33.2,17h209.8c26-1,42.5-26.6,27.4-46.6c-16.5-21.9-38.2-22.2-64.5-22.2V691.4
		L645.7,691.4z M500.9,691.4l-28-0.2c-16.4-3.2-16-19.6-2-25.8c7.5-3.3,18.1-4.9,30-4.1V691.4L500.9,691.4z M459.9,629.3h21.5v-22.9
		H471c-9.1,0-11.1,6.8-11.1,10.4V629.3L459.9,629.3z M487.6,629.3h21.5v-22.9h-10.4c-9.1,0-11.1,6.8-11.1,10.4V629.3L487.6,629.3z
		 M135.8,629.3h21.5v-22.9h-10.4c-9.1,0-11.1,6.8-11.1,10.4V629.3L135.8,629.3z M194,709.6v-69.3h-10.4c-9.1,0-11.1,6.8-11.1,10.4
		v41c-12.5,0.1-24.9,1.3-36.1-2.9c-14.3-5.4-25.5-19.1-23.2-34.5c-28,21.1-1,45.1,17.3,51.6C150,712.9,173.9,709.6,194,709.6
		L194,709.6z M209.9,709.6h21.5V593.3H221c-9.1,0-11.1,6.8-11.1,10.4V709.6L209.9,709.6z M311,744.3h21.5v-22.9h-10.4
		c-9.1,0-11.1,6.8-11.1,10.4V744.3L311,744.3z M363.6,629.3h21.5v-22.9h-10.4c-9.1,0-11.1,6.8-11.1,10.4V629.3L363.6,629.3z
		 M803.9,743.4h21.5v-22.9H815c-9.1,0-11.1,6.8-11.1,10.4V743.4L803.9,743.4z"/>
	<path class="st1" d="M99,762.7h12.8l19.6,35l-0.5-35h10.3v48.7h-11.7l-20.6-36.9l0.5,36.9H99V762.7L99,762.7z M857,762.7h11.4
		l11.8,18.6l12-18.6h11.7l-18.5,27.2v21.5h-10.1v-21.5L857,762.7L857,762.7z M829.2,771.2h-15.5v-8.5h41.5v8.5h-15.6v40.2h-10.4
		V771.2L829.2,771.2z M804.1,811.4h-10.5v-48.7h10.5V811.4L804.1,811.4z M779,771.4h-24.9c-2.7,0-4.6,0.5-5.9,1.5
		c-1.3,1-1.9,2.6-1.9,4.8c0,1.8,0.5,3.1,1.6,4c1.1,0.9,2.7,1.3,4.8,1.3H766c5.5,0,9.5,1.1,11.8,3.2c2.3,2.1,3.5,5.7,3.5,10.6
		c0,5-1.3,8.7-4,11.1c-2.7,2.4-6.9,3.5-12.7,3.5h-26.9v-8.7H763c2.9,0,4.9-0.4,6.1-1.3c1.2-0.8,1.8-2.3,1.8-4.2c0-2-0.5-3.5-1.6-4.3
		c-1.1-0.9-2.9-1.3-5.5-1.3h-11.9c-5.5,0-9.6-1.1-12.1-3.4c-2.6-2.3-3.8-5.8-3.8-10.6c0-5.2,1.3-9,4-11.3c2.7-2.4,7-3.6,12.8-3.6
		H779V771.4L779,771.4z M706.2,771.4h-12.4v12.2h12.4c3.4,0,5.7-0.5,7-1.4c1.3-0.9,2-2.5,2-4.8c0-2.2-0.6-3.8-1.9-4.7
		C712,771.8,709.6,771.4,706.2,771.4L706.2,771.4z M683.8,762.7h24.8c5.8,0,10,1.2,12.7,3.5c2.7,2.4,4,6.1,4,11.1
		c0,3.7-0.8,6.8-2.5,9.1c-1.7,2.4-4.1,3.9-7.2,4.6l12,20.4h-11.4l-10.6-19.2h-11.9v19.2h-10.1V762.7L683.8,762.7z M653.8,771.2
		c-3.6,0-6.4,0.9-8.3,2.8c-1.8,1.9-2.9,4.7-3.1,8.5l27.9,0v8.5h-28c0,4.2,0.9,7.3,2.7,9.1c1.7,1.9,4.7,2.8,8.7,2.8h16.6v8.5h-17.1
		c-3.8,0-6.7-0.3-8.9-1c-2.1-0.7-4.2-1.8-6.1-3.3c-2.5-2-4.3-4.6-5.5-7.8c-1.2-3.2-1.8-7-1.8-11.4c0-8.6,1.8-15,5.5-19.1
		c3.7-4.1,9.4-6.1,17.1-6.1h16.8v8.5H653.8L653.8,771.2z M596.4,811.4l-20.9-48.7h11.5l14.4,36.3l14.8-36.3h10.7l-20,48.7H596.4
		L596.4,811.4z M568,811.4h-10.5v-48.7H568V811.4L568,811.4z M500.8,762.7h12.8l19.6,35l-0.5-35H543v48.7h-11.7l-20.6-36.9l0.5,36.9
		h-10.3V762.7L500.8,762.7z M454.8,762.7v29.2c0,4.5,0.8,7.7,2.4,9.5c1.6,1.8,4.4,2.7,8.4,2.7c4,0,6.7-0.9,8.4-2.7
		c1.6-1.8,2.4-5,2.4-9.5v-29.2h10.1v29.4c0,3.5-0.2,6.2-0.7,8.3c-0.4,2-1.2,3.7-2.1,4.9c-1.9,2.3-4.3,4-7.2,5.1
		c-2.9,1.1-6.5,1.6-10.8,1.6c-4.3,0-7.9-0.5-10.8-1.6c-2.9-1.1-5.3-2.8-7.3-5.1c-1-1.2-1.6-2.7-2.1-4.7c-0.4-2-0.7-4.8-0.7-8.4
		v-29.4H454.8L454.8,762.7z M357.8,762.7h12.8l19.6,35l-0.5-35h10.3v48.7h-11.7l-20.6-36.9l0.5,36.9h-10.3V762.7L357.8,762.7z
		 M323.7,772.4l-7,18.8H331L323.7,772.4L323.7,772.4z M318.7,762.7h10.7l20.5,48.7h-11.2l-4.4-11.6h-20.9l-4.3,11.6h-10.7
		L318.7,762.7L318.7,762.7z M272.7,771.4h-12.4v12.2h12.4c3.4,0,5.7-0.5,7-1.4c1.3-0.9,2-2.5,2-4.8c0-2.2-0.6-3.8-1.9-4.7
		C278.5,771.8,276.1,771.4,272.7,771.4L272.7,771.4z M250.3,762.7h24.8c5.8,0,10,1.2,12.7,3.5c2.7,2.4,4,6.1,4,11.1
		c0,3.7-0.8,6.8-2.5,9.1c-1.7,2.4-4.1,3.9-7.2,4.6l12,20.4h-11.4l-10.6-19.2h-11.9v19.2h-10.1V762.7L250.3,762.7z M203.2,803.3H215
		c4.3,0,7.2-0.9,8.7-2.7c1.5-1.8,2.3-5.6,2.3-11.2v-26.7h10.5v29c0,3.4-0.3,6.3-1,8.7c-0.7,2.4-1.8,4.3-3.2,5.9
		c-1.7,1.9-3.6,3.2-5.8,4c-2.2,0.8-5.6,1.1-10,1.1h-13.2V803.3L203.2,803.3z M174.2,772.4l-7,18.8h14.3L174.2,772.4L174.2,772.4z
		 M169.3,762.7H180l20.5,48.7h-11.2l-4.4-11.6H164l-4.3,11.6H149L169.3,762.7L169.3,762.7z"/>
</g>
</svg>
