<?xml version="1.0" encoding="UTF-8"?>
<svg id="Layer_1" xmlns="http://www.w3.org/2000/svg" version="1.1" viewBox="0 0 424.6 295.78">
  <!-- Generator: Adobe Illustrator 29.5.1, SVG Export Plug-In . SVG Version: 2.1.0 Build 141)  -->
  <defs>
    <style>
      .st0, .st1 {
        fill-rule: evenodd;
      }

      .st0, .st2 {
        fill: #7ec2dc;
      }

      .st1, .st3 {
        fill: #064e75;
      }
    </style>
  </defs>
  <path class="st3" d="M371.8,135.39h0Z"/>
  <path class="st1" d="M42.7,188.19l-2.5-2.2-2.1,2.5,2.5,2.1,2.1-2.4Z"/>
  <path class="st1" d="M33.2,214.39v12.6h2.5v-5.3h5v5.3h2.5v-12.6h-2.5v5.1h-5v-5.1s-2.5,0-2.5,0Z"/>
  <path class="st1" d="M45.3,148.39l2.2,1.9,2-2.2-2.4-2-1.7,2-2.2-2-2,2.3,2.4,2s1.7-2,1.7-2Z"/>
  <path class="st3" d="M45.4,151.59c-3.2,0-5.6,3-5.6,7,0,3.1,1.3,5.2,5.1,5.2,1.6,0,2.5-.2,3.3-.5-.3,1.6-2.4,3.2-6.3,3.2s-5.3-1.6-5.3-4.4c0-1.1.2-2.5.6-4l-2.9-.8c-.7,2-1.1,4.1-1.1,5.9,0,4.5,2.5,7.3,8,7.3,6.8,0,10.4-3.8,10.4-9.9,0-5.5-2.7-9-6.2-9M46.3,160.19c-2.7,0-3.5-.9-3.5-2.2s.7-2.8,2.4-2.8c1.9,0,3.1,2.7,3.2,4.8-.7.1-1.5.2-2.1.2Z"/>
  <path class="st1" d="M99.4,146.79l2.2,1.9,1.9-2.2-2.3-2-1.7,2-2.2-1.9-2,2.2,2.4,2,1.7-2Z"/>
  <path class="st3" d="M93.7,164.19c.07,0,.13,0,.2,0h-6,5.8Z"/>
  <path class="st1" d="M161.1,147.09l2.2,1.9,2-2.2-2.4-2.1-1.7,2.1-2.2-2-2,2.3,2.4,1.9,1.7-1.9h0Z"/>
  <path class="st3" d="M187.5,165.09h.7c.07,0,.13,0,.2,0h-8.4,7.5Z"/>
  <path class="st1" d="M216.6,167.29l-1.7,2-2.3-1.9-1.9,2.2,2.3,2,1.8-2,2.2,1.9,1.9-2.2-2.3-2Z"/>
  <path class="st3" d="M244.7,154.89c-2.67-2.13-5.77-4.17-9.3-6.1h-.3l-1.3,3.8c.13.07.33.13.6.2.27.13.57.3.9.5-.67.53-1.17,1.2-1.5,2-.4.8-.6,1.63-.6,2.5,0,1,.27,1.97.8,2.9l-.1.4h-13.2c-1.6,0-2.8-.2-3.6-.5.07-.6.1-1.33.1-2.2v-3.8l-3.3.3v3.9c0,1.3-.4,2.3-3.7,2.3h-11.8c-1.6,0-2.7-.2-3.6-.5.07-.6.1-1.33.1-2.2v-3.8l-3.3.3v3.9c0,1.2-.4,2.3-3.5,2.3h-20c-2.1,0-2.8-.5-2.8-2.3v-8.2c-5.9,0-11.2,3.1-11.2,8.2,0,3,2.5,4.3,6.1,4.3.8,0,1.67-.07,2.6-.2.7,1.5,1.9,2.2,4.2,2.2h21.4c2,0,3.6-.4,4.6-1.3,1.1.8,2.5,1.3,4.8,1.3h12.7c2.1,0,3.7-.4,4.8-1.3,1.1.8,2.5,1.3,4.8,1.3h12.8l.1-.1-.1.1c1.9,0,3.5-.3,5-1,1.6.73,3.37,1.1,5.3,1.1,1.73,0,3.07-.37,4-1.1.93-.67,1.4-1.73,1.4-3.2,0-1.93-1.3-3.93-3.9-6M238.7,159.19c-.13.47-.37.87-.7,1.2-.93-.67-1.4-1.67-1.4-3,0-.47.07-.9.2-1.3.13-.33.3-.6.5-.8.13-.2.3-.3.5-.3s.4.1.6.3c.2.27.33.57.4.9.13.4.2.83.2,1.3,0,.67-.1,1.23-.3,1.7M162.2,159.19v.3c-.5.1-.9.1-1.3.1-2.6,0-3.9-.8-3.9-1.7,0-1.3,1.9-3.1,5.2-3.5,0,0,0,4.8,0,4.8ZM244.4,161.29c-.4.13-.8.17-1.2.1-.73.07-1.4.03-2-.1.4-.53.7-1.1.9-1.7.2-.6.3-1.23.3-1.9,1.6,1.33,2.53,2.47,2.8,3.4-.07.07-.33.13-.8.2Z"/>
  <path class="st3" d="M141.8,155.59c-1-.33-2.33-.93-4-1.8-1.73-.8-3-1.37-3.8-1.7-.8-.33-1.57-.5-2.3-.5-.53,0-1.03.07-1.5.2-.53.13-1,.33-1.4.6l-1.4,3.5.1.2c.67-.2,1.3-.33,1.9-.4.53-.13,1.13-.2,1.8-.2.73,0,1.5.13,2.3.4.8.27,1.83.73,3.1,1.4.73.33,1.23.57,1.5.7-.13.07-.53.17-1.2.3-.67.2-1.37.4-2.1.6-2,.53-3.57.87-4.7,1-1.13.2-2.4.3-3.8.3h-20.1c-.8,0-1.8,0-3-.2,1.4-1.4,1.9-2.9,1.9-4.4,0-3.5-2.6-5.4-5.6-5.4s-5.7,1.8-5.7,5.7c0,1.2.4,2.8,1.6,4.1-1,.2-2,.2-2.7.2h-26.5c-.1-5.4-2.7-8.6-6.2-8.6s-5.6,3.1-5.6,7c0,2.9,1.1,5.2,5.5,5.2,1.1,0,2.1,0,2.8-.1-.4,1.2-2.1,2.9-5.7,2.9-.87,0-1.6-.07-2.2-.2l-.4,3.3c1.1.3,2.1.5,3.1.5,4.4,0,7.2-2.2,8.2-6h27c2,0,4-.2,6.3-1.1,1.9.9,4.3,1.1,6.5,1.1h19.9c1.27,0,2.57-.13,3.9-.4,1.33-.27,3.1-.77,5.3-1.5,1.67-.6,3.23-1.07,4.7-1.4,1.53-.4,2.87-.67,4-.8l1-3.9c-.73-.07-1.57-.27-2.5-.6M61,160.19c-2.7,0-3.5-.9-3.5-2.2s.7-2.8,2.4-2.8c2,0,3.1,2.9,3.1,5h-2ZM99.3,159.39c-1.73-1-2.6-2.17-2.6-3.5,0-1.1,1.1-2.1,2.5-2.1,1.7,0,2.9,1.1,2.9,2.5,0,1-.8,2.1-2.8,3.1Z"/>
  <path class="st3" d="M196,152.59v-2c-.53,0-1.33,0-2.4,0-.2-.2-.33-.4-.4-.6-.07-.27-.1-.5-.1-.7,0-.27.1-.5.3-.7.2-.13.43-.17.7-.1.33,0,.77.1,1.3.3l.6-1.9c-.73-.33-1.43-.53-2.1-.6-.8-.07-1.43.1-1.9.5-.53.47-.83,1.07-.9,1.8,0,.33.03.67.1,1s.2.63.4.9c-.6,0-1.2.1-1.8.1v2.1c2.1.1,4.5-.1,6.2-.1h0Z"/>
  <path class="st3" d="M49.7,196.39c0-2.6-.6-4.5-1.3-7.1l-3.5,1c.9,3.1,1.3,5.4,1.3,6.8,0,2.3-2.1,3.8-5.3,3.8s-4.6-1.5-4.6-4c0-1.2.5-3,1.1-4.5l-2.8-1.1c-.9,1.8-1.8,4.3-1.8,6.8,0,4.2,2.6,6.8,7.5,6.8,6.1,0,9.3-3.2,9.4-8.5Z"/>
  <path class="st1" d="M223.9,184.29l-2.6-2.2-2.1,2.5,2.6,2.1,2.1-2.4Z"/>
  <path class="st3" d="M219.3,199.19c2.5,0,5-.7,6.3-1.5.3-1.2.5-2.9.5-4.6,0-1.9-.2-3.9-.6-5.5l-3.2.7c.3,1.6.8,4,.8,6.4-1,.3-2.2.5-3.7.5h-13.3c-1.8,0-2.5-.2-3-.5.07-.47.1-.97.1-1.5v-3.8l-3.2.3v3.6c0,1.1-.6,1.9-2.1,1.9-1.4,0-2.2-.7-2.2-2.1v-3.2l-3.2.2v2.6c0,1.7-1.3,2.4-2.8,2.4-1,0-1.7-.2-2.4-.6.2-.6.3-1.2.3-1.9l.1-2.3-3.1.2-.1,2c-.2,2.2-1.1,2.6-2.5,2.6H59.5c-2,0-3-.8-3-3.4v-12.8l-3.5.3v13.3c0,4.1,1.3,6.7,5.6,6.7h122.9c1.4,0,2.7-.4,3.7-1.1,1,.7,2.4,1.2,4.4,1.2,1.5,0,3.3-.3,4.4-1.5.9,1.1,2.3,1.5,3.7,1.5,1.5,0,2.9-.4,3.9-1.4,1.2.8,2.6,1.3,4.4,1.3h13.3Z"/>
  <path class="st3" d="M241.6,190.09c0-1.3,0-2.6-.2-11.2l-3.4.3c.2,8.3.2,14.2,0,15-1.1.5-2.1.8-3.5.9.1-2.1,0-4.4-.2-6.9-.3-3.2-.8-6-1.4-8.5-1.13.67-2.23,1.3-3.3,1.9.6,2.1,1.1,4.6,1.4,7.4.3,2.3.3,4.4.2,6.2-1.5-.1-2.4-.2-3-.3v3.7c1.3.4,2.8.7,4.7.7,3.3,0,5.7-1,7.6-2.4.6-1.6,1.1-3.6,1.1-6.8h0Z"/>
  <path class="st1" d="M248.6,178.89l-3.5.4v19.9h3.5v-20.3Z"/>
  <path class="st3" d="M242,203.59h-2.4c-.2-.2-.33-.4-.4-.6-.07-.2-.1-.43-.1-.7s.1-.47.3-.6c.2-.13.43-.2.7-.2.33,0,.77.13,1.3.4l.6-1.9c-.73-.4-1.43-.6-2.1-.6-.8-.07-1.43.1-1.9.5-.53.4-.83,1-.9,1.8,0,.27.03.57.1.9.13.33.27.63.4.9-.5.1-1.2.1-1.8.1v2.1c2.1.1,4.5,0,6.2-.1v-2h0Z"/>
  <path class="st0" d="M108.2,79.49v51.5h-11.3v-20h-28.7v20h-11.3v-51.5h11.3v20.2h28.7v-20.2s11.3,0,11.3,0Z"/>
  <path class="st2" d="M162.9,102.49c.53-1.73.8-3.5.8-5.3v-.5c-.1-4.5-1.9-8.8-5.2-12-3.3-3.4-7.8-5.2-12.5-5.2h-33.6v51.5h11.3v-16h17.5l12,16h11.8l-12.1-17.2,2-1.2c3.8-2.2,6.7-5.8,8-10.1M149.1,101.79c-1.2,1.2-2.9,1.9-4.6,1.9h-20.8v-12.9h20.8c3.6,0,6.4,2.9,6.4,6.4,0,1.8-.6,3.4-1.8,4.6Z"/>
  <path class="st3" d="M52,224.79c-.47.2-1,.3-1.6.3-1.1,0-1.6-.6-1.6-1.7v-5.6h-2.5v5.5c0,2.3,1,3.9,4.1,3.9,1.6,0,3.3-.5,4-.8v-8.6h-2.4v7h0Z"/>
  <path class="st3" d="M66.2,217.59c-1.1,0-2.2.3-2.9.7-.67-.47-1.5-.7-2.5-.7-1.4,0-2.9.3-4,.8v8.6h2.4v-7c.47-.27.93-.4,1.4-.4,1.2,0,1.6.6,1.6,1.8v5.6h2.4v-5.3c0-.6-.07-1.13-.2-1.6.5-.3,1.1-.5,1.7-.5,1.1,0,1.6.6,1.6,1.8v5.6h2.4v-5.7c0-2.4-1.4-3.7-3.9-3.7"/>
  <path class="st3" d="M75.5,217.59c-1.1,0-2.4.2-3.1.5l.4,2c.8-.3,1.6-.5,2.4-.5,1.2,0,1.8.5,1.8,1.7v.4c-.5-.1-1.1-.2-1.6-.2-2.1.1-3.6,1.1-3.6,2.9,0,1.6,1.2,2.8,3.7,2.8,1.8,0,3.2-.4,3.9-.8v-5c0-2.4-1.3-3.8-3.9-3.8h0ZM77,225.19c-.3.1-.7.2-1.3.2-.9,0-1.4-.4-1.4-1.1,0-.9.6-1.2,1.4-1.2.47,0,.9.07,1.3.2v1.9h0Z"/>
  <path class="st3" d="M85.7,217.59c-1.4,0-2.9.3-4.1.8v8.6h2.5v-7c.47-.27,1-.4,1.6-.4,1,0,1.6.6,1.6,1.8v5.6h2.5v-5.7c0-2.4-1.5-3.7-4.1-3.7"/>
  <path class="st3" d="M160,224.89c-2.4,0-3.4-1.5-3.4-4.1s1-4.4,3.4-4.4c.9,0,1.7.3,2.4.6l.6-2.2c-.9-.3-2.1-.6-3-.6-4,0-6,2.7-6,6.6s2,6.4,5.8,6.4c1.3,0,2.5-.3,3.3-.8l-.5-2.2c-.7.4-1.5.7-2.7.7"/>
  <path class="st3" d="M168.5,217.59c-2.8,0-4.5,1.9-4.5,4.8s1.7,4.8,4.5,4.8,4.4-1.9,4.4-4.8-1.7-4.8-4.4-4.8ZM168.5,225.09c-1.3,0-2-1-2-2.7s.7-2.8,2-2.8c1.2,0,1.9,1.1,1.9,2.8s-.7,2.7-1.9,2.7Z"/>
  <path class="st3" d="M184.2,217.59c-1.1,0-2.2.3-2.9.7-.67-.47-1.5-.7-2.5-.7-1.4,0-2.9.3-4,.8v8.6h2.4v-7c.47-.27.93-.4,1.4-.4,1.2,0,1.6.6,1.6,1.8v5.6h2.4v-5.3c0-.6-.07-1.13-.2-1.6.5-.3,1.1-.5,1.7-.5,1.1,0,1.6.6,1.6,1.8v5.6h2.4v-5.7c0-2.4-1.4-3.7-3.9-3.7"/>
  <path class="st3" d="M199.9,217.59c-1.1,0-2.2.3-3,.7-.6-.47-1.43-.7-2.5-.7-1.4,0-2.8.3-4,.8v8.6h2.5v-7c.47-.27.93-.4,1.4-.4,1.1,0,1.6.6,1.6,1.8v5.6h2.4v-5.3c0-.6-.07-1.13-.2-1.6.4-.3,1-.5,1.6-.5,1.2,0,1.6.6,1.6,1.8v5.6h2.5v-5.7c0-2.4-1.4-3.7-4-3.7"/>
  <path class="st3" d="M214.2,221.39c-1-.3-1.4-.5-1.4-1,0-.6.5-.8,1.2-.8.9,0,1.7.3,2.5.5l.3-2c-.8-.3-2-.5-3-.5-2.2,0-3.5,1-3.5,2.8,0,1.6,1,2.4,2.7,2.8,1.4.4,1.9.6,1.9,1.2,0,.5-.6.8-1.4.8-1.1,0-2.1-.3-2.9-.6l-.3,2c.8.4,2.1.6,3.2.6,2.2,0,3.8-.9,3.8-2.9,0-1.6-1-2.3-3.1-2.9"/>
  <path class="st3" d="M222.1,221.39c-1.1-.3-1.5-.5-1.5-1,0-.6.5-.8,1.3-.8s1.6.3,2.4.5l.3-2c-.8-.3-1.9-.5-2.9-.5-2.2,0-3.5,1-3.5,2.8,0,1.6,1,2.4,2.6,2.8,1.5.4,1.9.6,1.9,1.2,0,.5-.5.8-1.4.8-1,0-2-.3-2.8-.6l-.3,2c.8.4,2,.6,3.2.6,2.2,0,3.7-.9,3.7-2.9,0-1.6-.9-2.3-3-2.9h0Z"/>
  <path class="st1" d="M229,217.79v9.2h-2.4v-9.2h2.4Z"/>
  <path class="st3" d="M235.5,217.59c-2.8,0-4.5,1.9-4.5,4.8s1.7,4.8,4.5,4.8,4.4-1.9,4.4-4.8-1.7-4.8-4.4-4.8ZM235.5,225.19c-1.3,0-2-1.1-2-2.8s.7-2.8,2-2.8c1.2,0,1.9,1.1,1.9,2.8s-.7,2.8-1.9,2.8Z"/>
  <path class="st3" d="M245.8,217.59c-1.4,0-2.9.3-4,.8v8.6h2.4v-7c.47-.27,1-.4,1.6-.4,1.1,0,1.6.6,1.6,1.8v5.6h2.5v-5.7c0-2.4-1.5-3.7-4.1-3.7"/>
  <path class="st1" d="M226,215.29l1.8,1.8,1.8-1.8-1.8-1.8-1.8,1.8Z"/>
  <path class="st1" d="M208.7,217.79v9.2h-2.5v-9.2h2.5Z"/>
  <path class="st1" d="M205.7,215.29l1.7,1.8,1.8-1.8-1.8-1.8-1.7,1.8Z"/>
  <path class="st3" d="M106,223.19c-.4-.9-.9-1.5-1.5-1.7,1.3-.3,2.5-1.2,2.5-3.4,0-2.4-1.9-3.7-4.9-3.7h-3.7v12.6h2.6v-4.7h.7c.8,0,1.3.4,1.7,1.1l1.7,3.6h2.7l-1.8-3.8h0ZM102,220.19h-1v-3.6h1c1.5,0,2.4.4,2.4,1.8,0,1.2-.8,1.7-2.4,1.8Z"/>
  <path class="st3" d="M118.6,217.59c-2.9,0-4.8,1.8-4.8,4.7,0,2.7,1.6,4.3,4.3,4.3.53,0,1.07-.13,1.6-.4v.5c0,1.1-.8,1.6-2.2,1.6-.87,0-1.67-.13-2.4-.4l-.6,1.9c1,.4,1.8.6,3.2.6,2.7,0,4.5-1.5,4.5-4v-8.1c-.8-.4-2.2-.7-3.6-.7M119.7,224.19c-.3.2-.8.3-1.3.3-1.3,0-2.1-.9-2.1-2.4s.8-2.5,2.3-2.5c.4,0,.8.1,1.1.2v4.4Z"/>
  <path class="st3" d="M128.8,217.59c-.7,0-1.3.1-1.8.3v-4l-2.5.2v12.9h2.5v-7c.4-.2,1-.4,1.5-.4,1.1,0,1.7.6,1.7,1.9v5.5h2.5v-5.7c0-2.4-1.6-3.7-3.9-3.7Z"/>
  <path class="st3" d="M138.9,225.09c-.8,0-1.2-.4-1.2-1.5v-3.8h2v-2h-2v-2.1l-2.5.1v2h-1.2v2h1.2v3.9c0,2.3,1.1,3.5,3.3,3.5.5,0,1.1-.1,1.5-.2l-.1-2c-.3.1-.6.1-1,.1Z"/>
  <path class="st1" d="M112,217.79v9.2h-2.4v-9.2h2.4Z"/>
  <path class="st1" d="M109,215.29l1.8,1.8,1.8-1.8-1.8-1.8-1.8,1.8Z"/>
  <path class="st3" d="M141.9,224.59c.5.4,1.6.7,2.5.7,1,0,1.4-.4,1.4-1,0-.5-.3-.8-1.5-1.3-1.9-.6-2.7-1.7-2.7-2.8,0-1.7,1.5-3.1,3.8-3.1,1,0,2,.3,2.6.6l-.5,1.8c-.5-.2-1.2-.5-2.1-.5-.8,0-1.2.4-1.2.9,0,.6.4.9,1.6,1.3,1.7.6,2.5,1.5,2.5,2.9,0,1.8-1.3,3.1-3.9,3.1-1.2,0-2.3-.3-3-.7,0,0,.5-1.9.5-1.9Z"/>
  <path class="st3" d="M316,177.49c3,1.67,6,3.33,9,5,.4.2.7.2,1.1,0,3.2-1.8,6.3-3.3,9.5-5,.7-.4.8-1.1.8-1.8v-70.1c0-.5-.1-.9-.6-1.1-3.3-1.8-6.5-3.6-9.8-5.4-.2-.1-.7-.1-.9,0-3.1,1.6-6.1,3.3-9.1,5-.4.2-.5.5-.5.9v71.5c0,.5.1.8.5,1"/>
  <path class="st3" d="M299.7,204.39c.2.2.6.3.9.2,5.2-1,10.3-2.5,15.3-4.4,1.9-.7,3.8-1.5,5.7-2.3,0-.07-.03-.13-.1-.2-7.2-3.8-13.97-8.27-20.3-13.4-6.4-5.1-12.3-10.8-17.6-17-4.6,3.4-9.1,6.8-13.7,10.2,2.1,2.3,4,4.7,6.2,6.9,2.73,2.8,5.53,5.5,8.4,8.1,4.8,4.4,9.9,8.3,15.2,11.9Z"/>
  <path class="st3" d="M369.1,209.69c-2.5,0-5-.1-7.5-.3-3.2-.3-6.3-.8-9.5-1.2-.6-.1-1.1-.1-1.7.3-5.27,3.47-10.77,6.57-16.5,9.3-1.4.6-2.8,1.3-4.3,2,14.1,5,28.4,7.3,43.2,7.1-.2-5.9-.4-11.5-.6-17.1-1.1,0-2.1,0-3.1-.1Z"/>
  <path class="st2" d="M292.8,170.89c1,1,16.8,17.2,31.1,23.7l1.6.7,1.6-.7c13.8-6.3,29-21.5,31-23.5l-12.3,1c-5.4,4.8-13.1,11.1-20.3,14.7-7.3-3.7-15.1-10-20.4-14.9l-12.3-1Z"/>
  <path class="st3" d="M290.2,86.99c.13-.07.23-.13.3-.2,9.5-7.4,19.8-13.2,30.7-17.3-.8-.2-1.57-.4-2.3-.6-18.2-4.9-37.7-5.3-58-1.1l4.5,21.7c8.5-1.8,16.8-2.6,24.8-2.5Z"/>
  <path class="st3" d="M360.7,90.09c-7.1.2-14,1.2-20.7,3-3.47.87-6.9,2-10.3,3.4,5.47,2.67,10.73,5.93,15.8,9.8,9.1,6.9,15.8,14.4,19.7,19.5,4.2,5.4,6.4,9.3,6.6,9.6v-.1l19.3-10.5c-.4-.7-10.2-18.7-30.4-34.7"/>
  <path class="st3" d="M286.8,125.79c3.9-5.1,10.5-12.6,19.7-19.5,6.1-4.7,12.6-8.6,19.5-11.6,4.33-1.87,8.77-3.4,13.3-4.6,5.6-1.5,11.6-2.5,17.6-2.9,1.33-.07,2.67-.13,4-.2h2.5c7.4,0,15.2.8,23.1,2.5l4.5-21.7c-9.4-1.93-18.6-2.9-27.6-2.9-10.4,0-20.6,1.3-30.4,4-2.33.6-4.67,1.3-7,2.1-10.9,3.8-21.3,9.2-30.9,16.2-.93.67-1.83,1.37-2.7,2.1-21,16.2-31.1,34.8-31.5,35.5l19.3,10.5c.2-.3,2.4-4.2,6.6-9.5"/>
  <path class="st3" d="M366.6,167.79c-3.4,4.1-7.1,7.8-11,11.3-5.8,5.3-12,10-18.6,14.1-7.2,4.4-14.8,8.1-22.8,10.9-5.8,2-11.7,3.6-17.7,4.5-3.8.5-7.6.8-11.4,1.1-2,.1-3.9.1-5.9,0-.5,0-.8.1-.8.8,0,1.5-.1,3-.2,4.5,0,2.1-.1,4.2-.1,6.3-.1,1.8,0,3.6,0,5.5.3,0,.7.1,1.2.1,1.4,0,2.8-.03,4.2-.1,3.3-.2,6.7-.3,10-.7,3.8-.5,7.7-1,11.6-1.8,10.3-2.1,20.1-5.6,29.6-10.3,7.3-3.7,14.3-7.8,20.8-12.8,4.4-3.4,8.67-6.93,12.8-10.6,3.1-2.8,5.9-5.9,8.8-8.9,1.2-1.3,2.4-2.8,3.6-4.2-4.6-3.5-9.1-6.8-13.6-10.2-.2.2-.37.37-.5.5"/>
  <path class="st2" d="M214.3,130.99l-5.6-11.3h-17.1c-7.9,0-14.4-6.4-14.4-14.4s6.5-14.5,14.5-14.5h17l5.6-11.3h-22.7c-14.1,0-25.6,11.5-25.6,25.7s11.5,25.8,25.6,25.8h22.7Z"/>
</svg>