<?xml version="1.0" encoding="utf-8"?>
<!-- Generator: Adobe Illustrator 26.0.1, SVG Export Plug-In . SVG Version: 6.00 Build 0)  -->
<svg version="1.1" id="Layer_1" xmlns="http://www.w3.org/2000/svg" xmlns:xlink="http://www.w3.org/1999/xlink" x="0px" y="0px"
	 viewBox="0 0 841.9 595.3" style="enable-background:new 0 0 841.9 595.3;" xml:space="preserve">
<style type="text/css">
	.st0{fill:#2C6A81;}
	.st1{fill:#41A3BA;}
	.st2{fill:#286C81;}
	.st3{fill:#42A3B8;}
</style>
<g>
	<path class="st0" d="M435.5,132.5l-8.3-35.8c-0.2-0.9-0.9-1.6-1.8-1.6c-0.9,0-1.6,0.7-1.8,1.6l-8.3,35.8c-0.1,0.7,0.1,1.3,0.3,1.8
		c0.5,0.8,1.5,1.2,2.4,0.9c2.2-0.6,4.5-0.9,6.8-1l0.8,0c2.5,0,4.8,0.4,7.1,1c0.8,0.2,1.7,0,2.2-0.7
		C435.4,134,435.6,133.3,435.5,132.5"/>
	<path class="st0" d="M458.3,175.5l35.8-8.3c0.9-0.2,1.6-0.9,1.6-1.8c0-0.9-0.7-1.6-1.6-1.8l-35.8-8.3c-0.7-0.1-1.3,0-1.8,0.3
		c-0.8,0.5-1.2,1.5-0.9,2.4c0.6,2.2,0.9,4.5,1,6.8l0,0.8c0,2.4-0.4,4.8-1,7.1c-0.2,0.8,0,1.7,0.7,2.2
		C456.9,175.4,457.5,175.6,458.3,175.5"/>
	<path class="st1" d="M466.9,109.9L447.4,141c-0.5,0.8-0.5,1.8,0.1,2.4c0.6,0.6,1.6,0.6,2.4,0.1l31.2-19.4c0.5-0.4,0.9-0.9,1-1.5
		c0.3-0.9-0.2-1.9-1-2.3c-2-1.1-3.8-2.5-5.5-4.1l-0.6-0.6c-1.7-1.8-3.1-3.7-4.3-5.7c-0.4-0.7-1.2-1.2-2-1.1
		C468,108.9,467.4,109.2,466.9,109.9"/>
	<path class="st1" d="M369.8,124l31.2,19.4c0.8,0.5,1.8,0.5,2.4-0.1c0.6-0.6,0.6-1.6,0.1-2.4l-19.4-31.2c-0.4-0.5-0.9-0.9-1.5-1
		c-0.9-0.3-1.9,0.2-2.3,1c-1.1,2-2.5,3.8-4.1,5.5l-0.6,0.6c-1.8,1.7-3.7,3.1-5.7,4.3c-0.7,0.4-1.2,1.2-1.1,2
		C368.9,122.9,369.2,123.5,369.8,124"/>
	<path class="st0" d="M392.6,155.4l-35.8,8.3c-0.9,0.2-1.6,0.9-1.6,1.8c0,0.9,0.7,1.6,1.6,1.8l35.8,8.3c0.7,0.1,1.3,0,1.8-0.3
		c0.8-0.5,1.2-1.5,0.9-2.4c-0.6-2.2-0.9-4.5-1-6.8l0-0.8c0-2.4,0.4-4.8,1-7.1c0.2-0.8,0-1.7-0.7-2.2
		C394,155.5,393.3,155.3,392.6,155.4"/>
	<path class="st1" d="M384,221l19.4-31.2c0.5-0.8,0.5-1.8-0.1-2.4c-0.6-0.6-1.6-0.6-2.4-0.1l-31.2,19.4c-0.5,0.4-0.9,0.9-1,1.5
		c-0.3,0.9,0.2,1.9,1,2.3c2,1.1,3.8,2.5,5.5,4.1l0.6,0.6c1.7,1.8,3.1,3.7,4.3,5.7c0.4,0.7,1.2,1.2,2,1.1
		C382.9,222,383.5,221.7,384,221"/>
	<path class="st1" d="M481,206.9l-31.2-19.4c-0.8-0.5-1.8-0.5-2.4,0.1c-0.6,0.6-0.6,1.6-0.1,2.4l19.4,31.2c0.4,0.5,0.9,0.9,1.5,1
		c0.9,0.3,1.9-0.2,2.3-1c1.1-2,2.5-3.8,4.1-5.5l0.6-0.6c1.8-1.7,3.7-3.1,5.7-4.3c0.7-0.4,1.2-1.2,1.1-2
		C482,208,481.7,207.4,481,206.9"/>
	<path class="st0" d="M425.5,155.4c5.5,0,10,4.5,10,10c0,5.5-4.5,10-10,10c-5.5,0-10-4.5-10-10C415.5,159.9,420,155.4,425.5,155.4
		 M498,244.4c-0.7-0.5-1.7-0.3-2.4,0.3l-17.8,10.8c-0.4,0.5-0.7,1.1-0.7,1.6c-0.1,0.9,0.6,1.8,1.5,2.1c0.8,0.3,1.6,0.6,2.4,0.9
		c-2.3,2.3-15.5,13.7-41.8,17.9c-2.1,0.3-4-1.3-4.1-3.4l-3.5-87.6c-0.1-1.4,0.7-2.7,2-3.2h0c7.1-3.1,12.1-10.2,12.1-18.4
		c0-11.1-9-20.1-20.1-20.1c-11.1,0-20.1,9-20.1,20.1c0,8.4,5.1,15.6,12.5,18.6c1.3,0.5,2,1.8,2,3.2l-3.5,87.5
		c-0.1,2.1-2,3.7-4.1,3.4c-26.1-4.2-39.4-15.5-41.7-17.8c0.8-0.4,1.7-0.7,2.5-1c0.9-0.3,1.5-1.1,1.5-2.1c0-0.6-0.3-1.1-0.7-1.6
		L356,244.8c-0.7-0.7-1.6-0.8-2.4-0.3c-0.7,0.5-0.9,1.5-0.6,2.3l4,20.1c0.4,0.7,0.9,1.2,1.5,1.4c0.8,0.3,1.7,0,2.2-0.7
		c0.6-0.8,1.3-1.5,2.1-2.2c15.2,17.3,33.2,30.6,62.8,30.6c29.5,0,52.6-17.1,62.9-30.7c0.8,0.7,1.5,1.5,2.2,2.3
		c0.5,0.6,1.4,1,2.2,0.7c0.6-0.2,1.2-0.7,1.5-1.4l4-20.1C498.9,245.9,498.7,244.9,498,244.4"/>
	<path class="st1" d="M67,254.2c-1,0-2-0.2-2.9-0.5c-0.9-0.3-1.8-0.9-2.6-1.6l1.4-1.7c0.6,0.6,1.3,1,1.9,1.3
		c0.7,0.3,1.4,0.4,2.2,0.4c0.7,0,1.3-0.1,1.7-0.5c0.4-0.3,0.6-0.7,0.6-1.2v0c0-0.2,0-0.4-0.1-0.6c-0.1-0.2-0.2-0.4-0.5-0.5
		c-0.2-0.2-0.5-0.3-0.9-0.5c-0.4-0.1-0.9-0.3-1.5-0.4c-0.7-0.2-1.3-0.4-1.9-0.6c-0.5-0.2-1-0.5-1.4-0.8c-0.4-0.3-0.7-0.7-0.9-1.1
		c-0.2-0.4-0.3-0.9-0.3-1.5v0c0-0.6,0.1-1.1,0.3-1.6c0.2-0.5,0.5-0.9,0.9-1.2c0.4-0.3,0.9-0.6,1.4-0.8c0.6-0.2,1.2-0.3,1.8-0.3
		c1,0,1.8,0.1,2.6,0.4c0.8,0.3,1.5,0.7,2.2,1.2l-1.2,1.8c-0.6-0.4-1.2-0.8-1.8-1c-0.6-0.2-1.2-0.4-1.8-0.4c-0.7,0-1.2,0.2-1.6,0.5
		c-0.4,0.3-0.6,0.7-0.6,1.1v0c0,0.3,0,0.5,0.1,0.7c0.1,0.2,0.2,0.4,0.5,0.5c0.2,0.2,0.6,0.3,1,0.4c0.4,0.1,0.9,0.3,1.6,0.4
		c0.7,0.2,1.3,0.4,1.8,0.6c0.5,0.2,1,0.5,1.3,0.8c0.4,0.3,0.6,0.7,0.8,1.1c0.2,0.4,0.3,0.9,0.3,1.4v0c0,0.6-0.1,1.2-0.3,1.7
		c-0.2,0.5-0.6,0.9-1,1.2c-0.4,0.3-0.9,0.6-1.5,0.8C68.4,254.1,67.7,254.2,67,254.2"/>
	<path class="st1" d="M82.8,248.8l-2.3-5.3l-2.3,5.3H82.8z M79.4,240.7h2.2l5.8,13.3H85l-1.3-3.2h-6.3L76,254h-2.4L79.4,240.7z"/>
	<path class="st1" d="M95.4,254.2c-0.9,0-1.6-0.1-2.3-0.4c-0.7-0.2-1.3-0.6-1.8-1.1c-0.5-0.5-0.9-1.1-1.1-1.8
		c-0.3-0.7-0.4-1.6-0.4-2.5v-7.6H92v7.5c0,1.2,0.3,2.2,0.9,2.8c0.6,0.6,1.4,1,2.5,1c1,0,1.9-0.3,2.5-0.9c0.6-0.6,0.9-1.5,0.9-2.8
		v-7.6h2.3v7.5c0,1-0.1,1.8-0.4,2.6c-0.3,0.7-0.7,1.4-1.1,1.9c-0.5,0.5-1.1,0.9-1.8,1.1C97,254.1,96.2,254.2,95.4,254.2"/>
	<path class="st1" d="M109.4,251.9c0.7,0,1.3-0.1,1.9-0.3c0.6-0.2,1-0.5,1.4-0.9c0.4-0.4,0.7-0.9,0.9-1.4c0.2-0.6,0.3-1.1,0.3-1.8v0
		c0-0.6-0.1-1.2-0.3-1.8c-0.2-0.6-0.5-1-0.9-1.4c-0.4-0.4-0.9-0.7-1.4-0.9c-0.6-0.2-1.2-0.3-1.9-0.3h-2.6v9H109.4z M104.5,240.8h4.9
		c1,0,2,0.2,2.8,0.5c0.9,0.3,1.6,0.8,2.2,1.4c0.6,0.6,1.1,1.3,1.4,2.1c0.3,0.8,0.5,1.7,0.5,2.6v0c0,0.9-0.2,1.8-0.5,2.6
		c-0.3,0.8-0.8,1.5-1.4,2.1c-0.6,0.6-1.4,1.1-2.2,1.4c-0.9,0.3-1.8,0.5-2.8,0.5h-4.9V240.8z"/>
	<rect x="119.7" y="240.8" class="st1" width="2.3" height="13.2"/>
	<path class="st1" d="M136.5,247.7c0.9,0,1.6-0.2,2.1-0.7c0.5-0.4,0.8-1,0.8-1.7v0c0-0.8-0.3-1.4-0.8-1.8c-0.5-0.4-1.2-0.6-2.1-0.6
		h-2.7v4.8H136.5z M131.5,240.8h5.2c0.8,0,1.5,0.1,2.1,0.3c0.6,0.2,1.2,0.5,1.6,0.9c0.4,0.4,0.8,0.9,1,1.4c0.2,0.5,0.3,1.2,0.3,1.8
		v0c0,0.7-0.1,1.4-0.4,2c-0.3,0.6-0.7,1-1.1,1.4c-0.5,0.4-1,0.7-1.7,0.9c-0.6,0.2-1.3,0.3-2.1,0.3h-2.6v4.3h-2.3V240.8z"/>
	<path class="st1" d="M150.7,252.1c0.7,0,1.2-0.1,1.8-0.4c0.5-0.2,1-0.6,1.4-1c0.4-0.4,0.7-0.9,0.9-1.5c0.2-0.6,0.3-1.2,0.3-1.8v0
		c0-0.6-0.1-1.3-0.3-1.8c-0.2-0.6-0.5-1.1-0.9-1.5c-0.4-0.4-0.9-0.8-1.4-1c-0.6-0.3-1.2-0.4-1.8-0.4c-0.7,0-1.3,0.1-1.8,0.4
		c-0.5,0.2-1,0.6-1.4,1c-0.4,0.4-0.7,0.9-0.9,1.5c-0.2,0.6-0.3,1.2-0.3,1.8v0c0,0.6,0.1,1.2,0.3,1.8c0.2,0.6,0.5,1.1,0.9,1.5
		c0.4,0.4,0.9,0.8,1.4,1C149.5,252,150.1,252.1,150.7,252.1 M150.7,254.2c-1,0-2-0.2-2.8-0.5c-0.8-0.4-1.6-0.8-2.2-1.5
		c-0.6-0.6-1.1-1.3-1.4-2.2c-0.3-0.8-0.5-1.7-0.5-2.6v0c0-0.9,0.2-1.8,0.5-2.6c0.3-0.8,0.8-1.5,1.4-2.2c0.6-0.6,1.3-1.1,2.2-1.5
		c0.8-0.4,1.8-0.5,2.8-0.5c1,0,2,0.2,2.8,0.5c0.8,0.4,1.6,0.8,2.2,1.5c0.6,0.6,1.1,1.3,1.4,2.2c0.3,0.8,0.5,1.7,0.5,2.6v0
		c0,0.9-0.2,1.8-0.5,2.6c-0.3,0.8-0.8,1.5-1.4,2.2c-0.6,0.6-1.3,1.1-2.2,1.5C152.6,254.1,151.7,254.2,150.7,254.2"/>
	<path class="st1" d="M166.4,247.3c0.8,0,1.5-0.2,2-0.6c0.5-0.4,0.7-0.9,0.7-1.6v0c0-0.7-0.2-1.3-0.7-1.6c-0.5-0.4-1.2-0.6-2-0.6
		H163v4.5H166.4z M160.7,240.8h5.9c0.8,0,1.6,0.1,2.2,0.3c0.6,0.2,1.2,0.6,1.6,1c0.4,0.4,0.6,0.8,0.8,1.3c0.2,0.5,0.3,1,0.3,1.6v0
		c0,0.5-0.1,1-0.2,1.5c-0.2,0.4-0.4,0.8-0.7,1.2c-0.3,0.3-0.6,0.6-1,0.9c-0.4,0.2-0.8,0.4-1.3,0.5l3.6,5h-2.7l-3.3-4.6h0H163v4.6
		h-2.3V240.8z"/>
	<polygon class="st1" points="177.9,242.9 173.7,242.9 173.7,240.8 184.4,240.8 184.4,242.9 180.2,242.9 180.2,254 177.9,254 	"/>
	<path class="st1" d="M191.8,254.2c-1,0-2-0.2-2.9-0.5c-0.9-0.3-1.8-0.9-2.6-1.6l1.4-1.7c0.6,0.6,1.3,1,1.9,1.3
		c0.7,0.3,1.4,0.4,2.2,0.4c0.7,0,1.3-0.1,1.7-0.5c0.4-0.3,0.6-0.7,0.6-1.2v0c0-0.2,0-0.4-0.1-0.6c-0.1-0.2-0.2-0.4-0.5-0.5
		c-0.2-0.2-0.5-0.3-0.9-0.5c-0.4-0.1-0.9-0.3-1.5-0.4c-0.7-0.2-1.3-0.4-1.9-0.6c-0.6-0.2-1-0.5-1.4-0.8c-0.4-0.3-0.7-0.7-0.9-1.1
		c-0.2-0.4-0.3-0.9-0.3-1.5v0c0-0.6,0.1-1.1,0.3-1.6c0.2-0.5,0.5-0.9,0.9-1.2c0.4-0.3,0.9-0.6,1.4-0.8c0.6-0.2,1.2-0.3,1.8-0.3
		c1,0,1.8,0.1,2.6,0.4c0.8,0.3,1.5,0.7,2.2,1.2l-1.2,1.8c-0.6-0.4-1.2-0.8-1.8-1c-0.6-0.2-1.2-0.4-1.8-0.4c-0.7,0-1.2,0.2-1.6,0.5
		c-0.4,0.3-0.6,0.7-0.6,1.1v0c0,0.3,0,0.5,0.1,0.7c0.1,0.2,0.3,0.4,0.5,0.5c0.2,0.2,0.6,0.3,1,0.4c0.4,0.1,0.9,0.3,1.6,0.4
		c0.7,0.2,1.3,0.4,1.8,0.6c0.5,0.2,1,0.5,1.3,0.8c0.4,0.3,0.6,0.7,0.8,1.1c0.2,0.4,0.3,0.9,0.3,1.4v0c0,0.6-0.1,1.2-0.3,1.7
		c-0.2,0.5-0.6,0.9-1,1.2c-0.4,0.3-0.9,0.6-1.5,0.8C193.1,254.1,192.4,254.2,191.8,254.2"/>
	<path class="st1" d="M213.1,248.8l-2.3-5.3l-2.3,5.3H213.1z M209.8,240.7h2.2l5.8,13.3h-2.5l-1.3-3.2h-6.3l-1.4,3.2H204
		L209.8,240.7z"/>
	<path class="st1" d="M225.7,254.2c-0.9,0-1.6-0.1-2.3-0.4c-0.7-0.2-1.3-0.6-1.8-1.1c-0.5-0.5-0.9-1.1-1.1-1.8
		c-0.3-0.7-0.4-1.6-0.4-2.5v-7.6h2.3v7.5c0,1.2,0.3,2.2,0.9,2.8c0.6,0.6,1.4,1,2.5,1c1,0,1.9-0.3,2.5-0.9c0.6-0.6,0.9-1.5,0.9-2.8
		v-7.6h2.3v7.5c0,1-0.1,1.8-0.4,2.6c-0.3,0.7-0.7,1.4-1.1,1.9c-0.5,0.5-1.1,0.9-1.8,1.1C227.4,254.1,226.6,254.2,225.7,254.2"/>
	<polygon class="st1" points="238.1,242.9 233.9,242.9 233.9,240.8 244.7,240.8 244.7,242.9 240.5,242.9 240.5,254 238.1,254 	"/>
	<polygon class="st1" points="247.4,240.8 249.7,240.8 249.7,246.3 256.1,246.3 256.1,240.8 258.4,240.8 258.4,254 256.1,254 
		256.1,248.4 249.7,248.4 249.7,254 247.4,254 	"/>
	<path class="st1" d="M268.4,252.1c0.7,0,1.3-0.1,1.8-0.4c0.5-0.2,1-0.6,1.4-1s0.7-0.9,0.9-1.5c0.2-0.6,0.3-1.2,0.3-1.8v0
		c0-0.6-0.1-1.3-0.3-1.8c-0.2-0.6-0.5-1.1-0.9-1.5c-0.4-0.4-0.9-0.8-1.4-1c-0.6-0.3-1.2-0.4-1.8-0.4c-0.7,0-1.3,0.1-1.8,0.4
		c-0.5,0.2-1,0.6-1.4,1c-0.4,0.4-0.7,0.9-0.9,1.5c-0.2,0.6-0.3,1.2-0.3,1.8v0c0,0.6,0.1,1.2,0.3,1.8c0.2,0.6,0.5,1.1,0.9,1.5
		c0.4,0.4,0.9,0.8,1.4,1C267.1,252,267.7,252.1,268.4,252.1 M268.3,254.2c-1,0-2-0.2-2.8-0.5c-0.8-0.4-1.6-0.8-2.2-1.5
		c-0.6-0.6-1.1-1.3-1.4-2.2c-0.3-0.8-0.5-1.7-0.5-2.6v0c0-0.9,0.2-1.8,0.5-2.6c0.3-0.8,0.8-1.5,1.4-2.2c0.6-0.6,1.3-1.1,2.2-1.5
		c0.8-0.4,1.8-0.5,2.8-0.5c1,0,2,0.2,2.8,0.5c0.8,0.4,1.6,0.8,2.2,1.5c0.6,0.6,1.1,1.3,1.4,2.2c0.3,0.8,0.5,1.7,0.5,2.6v0
		c0,0.9-0.2,1.8-0.5,2.6c-0.3,0.8-0.8,1.5-1.4,2.2c-0.6,0.6-1.3,1.1-2.2,1.5C270.3,254.1,269.3,254.2,268.3,254.2"/>
	<path class="st1" d="M284.1,247.3c0.8,0,1.5-0.2,2-0.6c0.5-0.4,0.7-0.9,0.7-1.6v0c0-0.7-0.2-1.3-0.7-1.6c-0.5-0.4-1.2-0.6-2-0.6
		h-3.4v4.5H284.1z M278.3,240.8h5.9c0.8,0,1.6,0.1,2.2,0.3c0.6,0.2,1.2,0.6,1.6,1c0.4,0.4,0.6,0.8,0.8,1.3c0.2,0.5,0.3,1,0.3,1.6v0
		c0,0.5-0.1,1-0.2,1.5c-0.2,0.4-0.4,0.8-0.7,1.2c-0.3,0.3-0.6,0.6-1,0.9c-0.4,0.2-0.8,0.4-1.3,0.5l3.6,5h-2.7l-3.3-4.6h0h-2.9v4.6
		h-2.3V240.8z"/>
	<rect x="292.4" y="240.8" class="st1" width="2.3" height="13.2"/>
	<polygon class="st1" points="301.8,242.9 297.6,242.9 297.6,240.8 308.3,240.8 308.3,242.9 304.1,242.9 304.1,254 301.8,254 	"/>
	<polygon class="st1" points="314.9,248.8 309.7,240.8 312.4,240.8 316.1,246.6 319.8,240.8 322.5,240.8 317.3,248.7 317.3,254 
		314.9,254 	"/>
	<path class="st1" d="M548.7,247.9c0-2.9-1-4-3.6-4c-1,0-2.1,0.2-2.1,0.2v10.1h-4.7c-6.4,0-8.8-2.5-8.8-7.3c0-1.5,0.4-3.2,0.8-4.2
		l2.5-0.4c-0.6,1.2-1,2.9-1,4.3c0,3.8,1.5,5.8,6.8,5.8h2.1v-9.8c0,0,2.2-0.5,4.6-0.5c4.2,0,5.6,2.1,5.6,5.5v4.8h6v1.8h-8.3V247.9z
		 M529.1,238.5c0.7,0,1.3,0.1,1.7,0.1c-0.5-0.2-0.7-0.8-0.7-1.2c0-1.2,0.9-2.5,3.2-2.5c0.6,0,1.1,0,1.4,0.1l-0.2,1.4
		c-0.2,0-0.7-0.1-1.2-0.1c-0.9,0-1.4,0.4-1.4,1c0,0.7,0.5,1.1,2,1.1h1.4v1.4h-6.1V238.5z"/>
	<path class="st1" d="M560,238.3c0-0.8,0.6-1.4,1.4-1.4c0.8,0,1.4,0.6,1.4,1.4c0,0.8-0.6,1.4-1.4,1.4
		C560.6,239.7,560,239.1,560,238.3 M556.6,252.4h3.7v-10h2.3v11.8h-6V252.4z"/>
	<rect x="567.2" y="236.5" class="st1" width="2.3" height="17.8"/>
	<path class="st1" d="M582.2,244.5c0,0-1.2-0.6-3-0.6c-2.3,0-3.8,1.7-3.8,4.2c0,2.9,1.3,4.3,4.6,4.3h2.2V244.5z M573.2,260.2
		l0.2-1.9c0,0,2.1,0.5,4,0.5c2.7,0,4.8-1,4.8-3.9v-0.6h-2.5c-4.8,0-6.6-2.3-6.6-5.9c0-3.3,2-6.2,6.3-6.2c2.8,0,5.1,0.9,5.1,0.9v9.4
		h7.6v1.8h-7.6v0.5c0,2.9-1.9,5.9-7.3,5.9C575.2,260.6,573.2,260.2,573.2,260.2"/>
	<path class="st1" d="M603.8,248.5c0-3.2-1.2-4.5-3.5-4.5s-3.7,1.7-3.7,4.5c0,2.7,1.2,3.9,4.3,3.9h2.8V248.5z M595.4,252.1
		c-0.6,1.4-1.7,2.1-3.4,2.1h-0.4v-1.8h0.5c1.3,0,2.2-0.7,2.2-3.7c0-3.7,2.1-6.6,6.1-6.6c3.8,0,5.5,2.1,5.5,6v4.3h7.3v1.8h-12.7
		C597.7,254.2,596.1,253.5,595.4,252.1"/>
	<polygon class="st1" points="608.2,252.4 616.5,252.4 616.5,236.5 618.8,236.5 618.8,252.4 621.6,252.4 621.6,254.2 608.2,254.2 	
		"/>
	<polygon class="st1" points="621.2,252.4 624.7,252.4 624.7,236.5 627,236.5 627,254.2 621.2,254.2 	"/>
	<path class="st1" d="M643.4,238.7c0-0.7,0.6-1.3,1.4-1.3c0.7,0,1.3,0.6,1.3,1.3s-0.6,1.4-1.3,1.4
		C644,240.1,643.4,239.5,643.4,238.7 M639.7,238.7c0-0.7,0.6-1.3,1.3-1.3c0.7,0,1.3,0.6,1.3,1.3s-0.6,1.4-1.3,1.4
		C640.3,240.1,639.7,239.5,639.7,238.7 M645.9,244.5c0,0-1.2-0.6-3.1-0.6c-2.3,0-3.8,1.7-3.8,4.2c0,2.9,1.3,4.3,4.6,4.3h2.2V244.5z
		 M643.3,254.2c-4.8,0-6.6-2.3-6.6-5.9c0-3.3,2-6.2,6.3-6.2c2.8,0,5.1,0.9,5.1,0.9v9.4h5.2v1.8H643.3z"/>
	<path class="st1" d="M665.1,248.5c0-3.2-1.2-4.5-3.5-4.5c-2.2,0-3.7,1.7-3.7,4.5c0,2.7,1.2,3.9,4.3,3.9h2.8V248.5z M661.9,254.2
		c-2.9,0-4.5-0.8-5.2-2.1c-0.6,1.4-1.7,2.1-3.3,2.1H653v-1.8h0.5c1.3,0,2.2-0.7,2.2-3.7c0-3.7,2.1-6.6,6.1-6.6c3.8,0,5.5,2.1,5.5,6
		v6.1H661.9z"/>
	<polygon class="st1" points="671.9,236.5 674.2,236.5 674.2,252.4 678.2,252.4 678.2,254.2 671.9,254.2 	"/>
	<path class="st1" d="M687.3,250c1.4-1.1,2.2-2.4,2.2-3.7c0-1.4-0.9-2.5-2.8-2.5c-1.7,0-3.8,1.2-4.9,2
		C684,246.7,685.6,248.5,687.3,250 M677.8,252.4h0.8c2.8,0,5.1-0.5,6.9-1.3c-1.8-1.7-3.5-3.6-6-4.4l0.2-1.6c2-1.5,4.8-3,7.3-3
		c3.4,0,4.9,1.9,4.9,3.9c0,1.8-1,3.7-3,5.2c1.1,0.7,2.2,1.2,3.6,1.2h2.7v1.8h-3.1c-2.1,0-3.7-0.8-5.1-1.9c-2.2,1.1-5,1.9-8.5,1.9
		h-0.6V252.4z"/>
	<polygon class="st1" points="694.8,252.4 698.3,252.4 698.3,236.5 700.6,236.5 700.6,254.2 694.8,254.2 	"/>
	<rect x="705.4" y="236.5" class="st1" width="2.3" height="17.8"/>
	<path class="st1" d="M724,238.7c0-0.7,0.6-1.3,1.4-1.3c0.7,0,1.3,0.6,1.3,1.3s-0.6,1.4-1.3,1.4C724.6,240.1,724,239.5,724,238.7
		 M720.3,238.7c0-0.7,0.6-1.3,1.3-1.3c0.7,0,1.3,0.6,1.3,1.3s-0.6,1.4-1.3,1.4C720.9,240.1,720.3,239.5,720.3,238.7 M726.5,244.5
		c0,0-1.2-0.6-3.1-0.6c-2.3,0-3.8,1.7-3.8,4.2c0,2.9,1.3,4.3,4.6,4.3h2.2V244.5z M724,254.2c-4.8,0-6.6-2.3-6.6-5.9
		c0-3.3,2-6.2,6.3-6.2c2.8,0,5.1,0.9,5.1,0.9v9.4h7.6v1.8H724z"/>
	<path class="st1" d="M737.2,238.5c0.7,0,1.3,0,1.7,0.1c-0.5-0.2-0.7-0.8-0.7-1.2c0-1.2,0.9-2.5,3.2-2.5c0.6,0,1.1,0,1.4,0.1
		l-0.2,1.4c-0.2,0-0.7-0.1-1.2-0.1c-0.9,0-1.4,0.4-1.4,1c0,0.7,0.5,1.1,2,1.1h1.4v1.4h-6.1V238.5z M736,252.4h3.7v-10h2.3v10h2.8
		v1.8H736V252.4z"/>
	<path class="st1" d="M750.3,259.4c-0.8,0-1.4-0.6-1.4-1.4c0-0.7,0.6-1.3,1.4-1.3c0.7,0,1.3,0.6,1.3,1.3
		C751.6,258.8,751,259.4,750.3,259.4 M746.6,259.4c-0.8,0-1.3-0.6-1.3-1.4c0-0.7,0.6-1.3,1.3-1.3c0.7,0,1.3,0.6,1.3,1.3
		C747.9,258.8,747.3,259.4,746.6,259.4 M744.4,252.4h5.1v-10h2.3v10h6.4v1.8h-13.7V252.4z"/>
	<path class="st1" d="M767.7,251.4c0-2.2-0.7-3.8-2.5-3.8c-1.6,0-2.3,1.1-2.3,2.3c0,1.6,1.2,2.5,2.8,2.5h2.1V251.4z M757.8,254.2
		v-1.8h3c0.5,0,0.9,0.1,1,0.1c0,0-1-0.8-1-2.3c0-2.4,1.7-4.2,4.5-4.2c3,0,4.4,2.1,4.4,5.3v1.1h3.3v-0.5c0-6.2-2.4-8.8-7.6-8.8
		c-1.6,0-3.8,0.4-5.3,0.9l-0.3-1.7c1.7-0.5,3.9-0.9,5.9-0.9c6.1,0,9.5,3,9.5,10.6v0.5h2.2v1.8H757.8z"/>
	<polygon class="st1" points="777.1,252.4 780.6,252.4 780.6,236.5 782.9,236.5 782.9,254.2 777.1,254.2 	"/>
	<rect x="787.7" y="236.5" class="st1" width="2.3" height="17.8"/>
	<path class="st0" d="M662.8,157.9h-6.9c-0.4,0-0.7,0.1-1,0.4c-0.3,0.3-0.4,0.6-0.4,1v46.9c0,0.4,0.1,0.8,0.4,1.1
		c0.3,0.3,0.6,0.5,1,0.5h6.9c0.4,0,0.7-0.2,1-0.5c0.3-0.3,0.4-0.7,0.4-1.1v-46.9c0-0.4-0.1-0.7-0.4-1
		C663.6,158,663.2,157.9,662.8,157.9"/>
	<path class="st0" d="M643.3,173.4h-7c-0.4,0-0.7,0.2-1,0.5c-0.3,0.3-0.4,0.7-0.4,1.1v15.4c0,1.9-0.2,3.5-0.5,4.7
		c-0.3,1.2-0.8,2.2-1.4,2.9c-0.6,0.7-1.4,1.2-2.2,1.4c-0.9,0.3-1.8,0.4-2.9,0.4h-29.2h-4v-16.1c0-6.2-1.4-10.7-4.3-13.9
		c-2.9-3.2-7.2-4.8-13.1-4.8h-4.7h-7.2c-1.3,0-2.4,1.1-2.4,2.4v40.1h0c0,1.2-0.1,2-0.2,2.8c-0.1,0.8-0.5,1.5-0.9,2
		c-0.5,0.5-1.2,0.9-2.1,1.1c-0.9,0.2-2,0.3-3.4,0.3h-3.6c-3.4-0.1-6.2-0.6-8.2-1.5c-2.2-1-3.9-2.4-5-4.1c-1.1-1.7-1.8-3.7-2.2-6
		c-0.3-2.3-0.5-4.7-0.5-7.2c0-0.9,0.1-2,0.2-3.3c0.1-1.3,0.1-0.6,0.2-1.8c0.2-1-0.2-1.5-1.1-1.5h-4.7c-0.8,0-1.3,0.5-1.4,1.4
		c-0.2,0.8-0.3,1.6-0.4,2.5c-0.1,0.9-0.2,1.8-0.3,2.6c-0.1,0.9-0.1,1.7-0.2,2.5c-0.1,0.8-0.1,1.4-0.1,1.8c0,3.5,0.3,6.7,1,9.5
		c0.7,2.8,1.9,5.3,3.6,7.2c1.7,2,4,3.5,7,4.6c2.9,1.1,6.7,1.6,11.1,1.6h4.7v0c5.4,0,9.4-1.2,12-3.4c2.6-2.3,3.9-5.9,4-11h0v-34.7
		h4.7c1.5,0,2.8,0.3,3.8,0.8c1,0.5,1.8,1.3,2.4,2.2c0.6,0.9,1,2,1.2,3.3c0.2,1.3,0.3,2.6,0.3,4.1v23.5c0,0.6,0.5,1.1,1.1,1.1h7.3
		c0,0,0,0,0,0l34.4,0c0.7,0,1.7-0.1,2.8-0.2c1.1-0.1,2.3-0.4,3.6-0.9c1.3-0.4,2.5-1,3.8-1.8c1.3-0.8,2.4-1.9,3.4-3.2
		c1-1.3,1.8-3,2.4-4.9c0.6-2,1-4.3,1-6.9V175c0-0.4-0.1-0.8-0.4-1.1C644,173.6,643.7,173.4,643.3,173.4"/>
	<path class="st0" d="M637.2,167.4h5.3c0.4,0,0.8-0.1,1.1-0.4c0.3-0.3,0.5-0.6,0.5-1v-6.5c0-0.4-0.2-0.7-0.5-1
		c-0.3-0.3-0.7-0.4-1.1-0.4h-5.3c-0.4,0-0.8,0.1-1.1,0.4c-0.3,0.3-0.5,0.6-0.5,1v6.5c0,0.4,0.2,0.7,0.5,1
		C636.4,167.2,636.8,167.4,637.2,167.4"/>
	<path class="st0" d="M530.8,174.7h12.6c0.5,0,0.9-0.1,1.2-0.2c0.3-0.1,0.4-0.4,0.4-0.9v-1.5c0-0.7-0.5-1.1-1.6-1.1h-6.2
		c-0.5-0.2-1-0.8-1.4-1.6c-0.4-0.8-0.7-1.9-0.7-3.2c0-2.8,1.6-4.2,4.9-4.2c0.3,0,0.8,0,1.6,0c0.7,0,1.2,0,1.3,0c0.8,0,1.2-0.3,1.2-1
		v-1.3c0-0.5-0.3-0.9-1-1.1c-0.6-0.1-1.2-0.2-1.9-0.3c-0.6-0.1-1.2-0.1-1.7-0.1c-2.8,0-5,0.6-6.5,1.8c-1.5,1.2-2.3,3.1-2.3,5.7
		c0,0.9,0.1,1.9,0.4,2.8c0.2,1,0.7,1.8,1.2,2.5h-1.6c-1.1,0-1.7,0.3-1.7,0.9v1.6C529.2,174.3,529.7,174.7,530.8,174.7"/>
	<path class="st0" d="M788.9,176.1c-0.8-2.2-1.9-4.2-3.4-5.8c-1.5-1.6-3.3-2.9-5.5-3.8c-2-0.8-4.3-1.3-6.8-1.4l-0.8,0
		c-5.5,0.1-9.7,1.8-12.5,4.9c-2.9,3.3-4.4,7.8-4.4,13.6v5.7c0,1.5-0.1,2.9-0.3,4.2c-0.2,1.3-0.6,2.4-1.2,3.3
		c-0.6,0.9-1.4,1.7-2.4,2.2c-1,0.5-2.3,0.8-3.9,0.8h-39.1V169c0-0.5-0.1-1-0.4-1.2c-0.2-0.3-0.8-0.5-1.6-0.8
		c-2.3-0.6-4.8-1.1-7.4-1.4c-2.6-0.3-5.1-0.5-7.5-0.5c-6,0-10.4,1.6-13.3,4.9c-2.9,3.3-4.4,7.8-4.4,13.6v5.7
		c0,5.8,1.5,10.4,4.4,13.6c2.7,3,6.7,4.7,12,4.9c0.7,0,1.3-0.6,1.3-1.3v-5.7c0-0.5-0.4-1-0.9-1c-1.2-0.1-2.2-0.3-3-0.8
		c-1-0.5-1.8-1.3-2.4-2.2c-0.6-0.9-1-2-1.2-3.3c-0.2-1.3-0.3-2.7-0.3-4.2v-5.7c0-1.5,0.1-2.9,0.3-4.2c0.2-1.3,0.6-2.4,1.2-3.3
		c0.6-0.9,1.4-1.7,2.4-2.2c1-0.5,2.3-0.8,3.9-0.8c1.3,0,2.7,0.1,4,0.2c1.4,0.1,2.4,0.3,3.1,0.4v26.2v8c0,1.3-0.1,2.1-0.2,3
		c-0.1,0.8-0.5,1.5-1,2c-0.5,0.5-1.2,0.9-2.1,1.1c-0.9,0.2-2.1,0.3-3.6,0.3c-0.8,0-1.9,0-3.1-0.1c-1.2-0.1-2.5-0.1-3.8-0.2
		c-1.3-0.1-2.6-0.2-3.8-0.3c-1.2-0.1-2.2-0.2-3.1-0.3H678c-0.9,0-1.4,0.4-1.4,1.3v3.9c0,0.5,0.1,0.9,0.3,1.2
		c0.2,0.2,0.6,0.4,1.1,0.6c1.4,0.4,3.3,0.8,5.6,1.2c2.4,0.4,5.1,0.6,8.2,0.6c5.7,0,9.9-1.2,12.6-3.5c2.6-2.2,3.9-5.8,4-10.7h39.1
		c5.6,0,9.9-1.5,12.8-4.4c4.1-3.8,4.8-10.2,4.9-13.8c0-0.1,0-5.6,0-5.6c0-1.5,0.1-2.9,0.3-4.2c0.2-1.3,0.6-2.4,1.2-3.3
		c0.6-0.9,1.4-1.7,2.4-2.2c0.9-0.5,2.1-0.8,3.5-0.8l0,0c2.6,0,4.6,0.9,5.9,2.7c1.3,1.8,2,4.2,2,7.3v6v10.4h-7.5c0,0-0.7,0-1.1,0
		c-0.9-0.1-1.7,0.4-2,1.2c-0.6,1.5-1.4,3-2.3,4.4c-0.5,0.8-0.1,1.9,0.8,2c1.4,0.3,2.9,0.4,4.6,0.4h14.3c0.4,0,0.8-0.1,1.2-0.2
		c0.5-0.2,0.8-0.4,1-0.6c0.2-0.3,0.4-0.7,0.4-1.2v-16.4v-6C790.1,180.8,789.7,178.3,788.9,176.1"/>
	<path class="st0" d="M97.1,206v-27.4l-9.1,18c-0.3,0.6-0.9,1-1.6,1H82c-0.7,0-1.3-0.4-1.6-1l-9.1-18V206c0,1-0.8,1.8-1.8,1.8h-6.2
		c-1,0-1.8-0.8-1.8-1.8v-46.5c0-1,0.8-1.8,1.8-1.8H70c0.7,0,1.3,0.4,1.6,1l12.6,26l12.5-26c0.3-0.6,0.9-1,1.6-1h6.7
		c1,0,1.8,0.8,1.8,1.8V206c0,1-0.8,1.8-1.8,1.8h-6.2C97.9,207.8,97.1,207,97.1,206"/>
	<path class="st0" d="M139,158.9l17,46.5c0.4,1.2-0.4,2.4-1.7,2.4h-6.3c-0.8,0-1.5-0.5-1.7-1.2l-2.5-7.6h-0.1l-8.7-26.5l-6.3,18.3
		h4.9c0.8,0,1.5,0.5,1.7,1.2l1.6,4.6c0.4,1.2-0.5,2.3-1.7,2.3h-9.2l-2.6,7.6c-0.2,0.7-0.9,1.2-1.7,1.2h-6.4c-1.2,0-2.1-1.2-1.7-2.4
		l16.9-46.5c0.3-0.7,0.9-1.2,1.7-1.2h5.2C138.1,157.7,138.7,158.2,139,158.9"/>
	<path class="st0" d="M201.3,207.8h-5.5c-0.8,0-1.5-0.5-1.7-1.3l-8.8-29.1l-8.8,29.1c-0.2,0.8-0.9,1.3-1.7,1.3h-5.5
		c-0.8,0-1.5-0.5-1.7-1.3L155.2,160c-0.3-1.1,0.6-2.2,1.7-2.2h6.5c0.8,0,1.5,0.6,1.7,1.4l7.4,30.2l8.8-30.3c0.2-0.8,0.9-1.3,1.7-1.3
		h4.6c0.8,0,1.5,0.5,1.7,1.3l8.8,30.3l7.5-30.2c0.2-0.8,0.9-1.4,1.7-1.4h6.5c1.2,0,2,1.1,1.7,2.3l-12.5,46.5
		C202.9,207.3,202.2,207.8,201.3,207.8"/>
	<path class="st0" d="M241.7,158.9l17,46.5c0.4,1.2-0.4,2.4-1.7,2.4h-6.3c-0.8,0-1.5-0.5-1.7-1.2l-2.5-7.6h-0.1l-8.7-26.5l-6.3,18.3
		h4.9c0.8,0,1.5,0.5,1.7,1.2l1.6,4.6c0.4,1.2-0.5,2.3-1.7,2.3h-9.2l-2.6,7.6c-0.2,0.7-0.9,1.2-1.7,1.2h-6.4c-1.2,0-2.1-1.2-1.7-2.4
		l16.9-46.5c0.3-0.7,0.9-1.2,1.7-1.2h5.2C240.8,157.7,241.5,158.2,241.7,158.9"/>
	<path class="st0" d="M293.8,207l-19.3-29.9V206c0,1-0.8,1.8-1.8,1.8h-6.2c-1,0-1.8-0.8-1.8-1.8v-46.5c0-1,0.8-1.8,1.8-1.8h6
		c0.6,0,1.2,0.3,1.5,0.8l19.3,29.8v-28.9c0-1,0.8-1.8,1.8-1.8h6.2c1,0,1.8,0.8,1.8,1.8V206c0,1-0.8,1.8-1.8,1.8h-6
		C294.7,207.8,294.1,207.5,293.8,207"/>
	<path class="st0" d="M312.8,206v-46.5c0-1,0.8-1.8,1.8-1.8h6.2c1,0,1.8,0.8,1.8,1.8V206c0,1-0.8,1.8-1.8,1.8h-6.2
		C313.6,207.8,312.8,207,312.8,206"/>
</g>
<g>
	<path class="st2" d="M301.2,385.3l-5.5-23.9c-0.1-0.6-0.6-1.1-1.2-1.1c-0.6,0-1.1,0.5-1.2,1.1l-5.5,23.9c-0.1,0.5,0,0.8,0.2,1.2
		c0.3,0.6,1,0.8,1.6,0.6c1.5-0.4,3-0.6,4.6-0.7l0.5,0c1.6,0,3.2,0.2,4.7,0.7c0.5,0.2,1.1,0,1.5-0.4
		C301.2,386.3,301.3,385.9,301.2,385.3"/>
	<path class="st2" d="M316.4,414l23.9-5.5c0.6-0.1,1.1-0.6,1.1-1.2c0-0.6-0.5-1.1-1.1-1.2l-23.9-5.5c-0.5-0.1-0.8,0-1.2,0.2
		c-0.5,0.3-0.8,1-0.6,1.6c0.4,1.5,0.6,3,0.7,4.6l0,0.5c0,1.6-0.2,3.2-0.7,4.7c-0.2,0.5,0,1.1,0.4,1.5
		C315.5,413.9,315.9,414.1,316.4,414"/>
	<path class="st3" d="M322.1,370.2l-13,20.8c-0.3,0.5-0.3,1.2,0.1,1.6c0.4,0.4,1.1,0.4,1.6,0.1l20.8-13c0.4-0.3,0.6-0.6,0.7-1
		c0.2-0.6-0.1-1.2-0.7-1.5c-1.3-0.7-2.6-1.7-3.7-2.8l-0.4-0.4c-1.1-1.2-2.1-2.5-2.9-3.8c-0.3-0.5-0.8-0.8-1.4-0.7
		C322.9,369.6,322.5,369.8,322.1,370.2"/>
	<path class="st3" d="M257.4,379.7l20.8,13c0.5,0.3,1.2,0.3,1.6-0.1c0.4-0.4,0.4-1.1,0.1-1.6l-13-20.8c-0.3-0.4-0.6-0.6-1-0.7
		c-0.6-0.2-1.2,0.1-1.5,0.7c-0.7,1.3-1.7,2.6-2.8,3.7l-0.4,0.4c-1.2,1.1-2.5,2.1-3.8,2.9c-0.5,0.3-0.8,0.8-0.7,1.4
		C256.8,378.9,257,379.3,257.4,379.7"/>
	<path class="st2" d="M272.6,400.6l-23.9,5.5c-0.6,0.1-1.1,0.6-1.1,1.2c0,0.6,0.5,1.1,1.1,1.2l23.9,5.5c0.4,0.1,0.8,0,1.2-0.2
		c0.6-0.3,0.8-1,0.6-1.6c-0.4-1.5-0.6-3-0.7-4.6l0-0.5c0-1.6,0.2-3.2,0.7-4.7c0.2-0.5,0-1.1-0.4-1.5
		C273.6,400.6,273.1,400.5,272.6,400.6"/>
	<path class="st3" d="M266.9,444.4l13-20.8c0.3-0.5,0.3-1.2-0.1-1.6c-0.4-0.4-1.1-0.4-1.6-0.1l-20.8,13c-0.4,0.3-0.6,0.6-0.7,1
		c-0.2,0.6,0.1,1.2,0.7,1.5c1.3,0.7,2.6,1.7,3.7,2.8l0.4,0.4c1.1,1.2,2.1,2.5,2.9,3.8c0.3,0.5,0.8,0.8,1.4,0.7
		C266.2,445,266.6,444.8,266.9,444.4"/>
	<path class="st3" d="M331.6,434.9l-20.8-13c-0.5-0.3-1.2-0.3-1.6,0.1c-0.4,0.4-0.4,1.1-0.1,1.6l13,20.8c0.3,0.4,0.6,0.6,1,0.7
		c0.6,0.2,1.2-0.1,1.5-0.7c0.7-1.3,1.7-2.6,2.8-3.7l0.4-0.4c1.2-1.1,2.5-2.1,3.8-2.9c0.5-0.3,0.8-0.8,0.7-1.4
		C332.2,435.7,332,435.2,331.6,434.9"/>
	<path class="st2" d="M294.6,400.6c3.7,0,6.7,3,6.7,6.7c0,3.7-3,6.7-6.7,6.7c-3.7,0-6.7-3-6.7-6.7
		C287.9,403.6,290.9,400.6,294.6,400.6 M342.9,459.9c-0.5-0.3-1.1-0.2-1.6,0.2l-11.9,7.2c-0.3,0.3-0.4,0.7-0.5,1.1
		c0,0.6,0.4,1.2,1,1.4c0.5,0.2,1.1,0.4,1.6,0.6c-1.5,1.5-10.4,9.1-27.9,11.9c-1.4,0.2-2.7-0.8-2.8-2.3l-2.3-58.4
		c0-0.9,0.5-1.8,1.3-2.1h0c4.8-2.1,8.1-6.8,8.1-12.3c0-7.4-6-13.4-13.4-13.4c-7.4,0-13.4,6-13.4,13.4c0,5.6,3.4,10.4,8.3,12.4
		c0.9,0.4,1.4,1.2,1.3,2.2l-2.3,58.3c-0.1,1.4-1.4,2.5-2.8,2.3c-17.4-2.8-26.3-10.3-27.8-11.9c0.6-0.3,1.1-0.5,1.7-0.7
		c0.6-0.2,1-0.8,1-1.4c0-0.4-0.2-0.8-0.5-1.1l-11.9-7.2c-0.4-0.4-1.1-0.6-1.6-0.2c-0.5,0.3-0.6,1-0.4,1.5l2.7,13.4
		c0.2,0.5,0.6,0.8,1,0.9c0.5,0.2,1.1,0,1.5-0.4c0.4-0.5,0.9-1,1.4-1.5c10.1,11.5,22.1,20.4,41.8,20.4c19.7,0,35-11.4,41.9-20.4
		c0.5,0.5,1,1,1.5,1.5c0.4,0.4,0.9,0.6,1.5,0.4c0.4-0.2,0.8-0.5,1-0.9l2.7-13.4C343.5,460.9,343.3,460.3,342.9,459.9"/>
	<path class="st3" d="M62.3,489.3c-0.7,0-1.3-0.1-2-0.3c-0.6-0.2-1.2-0.6-1.7-1.1l0.9-1.1c0.4,0.4,0.9,0.7,1.3,0.9
		c0.4,0.2,0.9,0.3,1.5,0.3c0.5,0,0.9-0.1,1.1-0.3c0.3-0.2,0.4-0.5,0.4-0.8v0c0-0.2,0-0.3-0.1-0.4c-0.1-0.1-0.2-0.2-0.3-0.3
		c-0.1-0.1-0.3-0.2-0.6-0.3c-0.3-0.1-0.6-0.2-1-0.3c-0.5-0.1-0.9-0.2-1.3-0.4c-0.4-0.1-0.7-0.3-0.9-0.5c-0.2-0.2-0.4-0.4-0.6-0.7
		c-0.1-0.3-0.2-0.6-0.2-1v0c0-0.4,0.1-0.7,0.2-1c0.2-0.3,0.4-0.6,0.6-0.8c0.3-0.2,0.6-0.4,0.9-0.5c0.4-0.1,0.8-0.2,1.2-0.2
		c0.6,0,1.2,0.1,1.7,0.3c0.5,0.2,1,0.5,1.5,0.8l-0.8,1.2c-0.4-0.3-0.8-0.5-1.2-0.7c-0.4-0.2-0.8-0.2-1.2-0.2c-0.5,0-0.8,0.1-1.1,0.3
		c-0.3,0.2-0.4,0.5-0.4,0.7v0c0,0.2,0,0.3,0.1,0.4c0.1,0.1,0.2,0.2,0.3,0.4c0.2,0.1,0.4,0.2,0.6,0.3c0.3,0.1,0.6,0.2,1,0.3
		c0.5,0.1,0.9,0.2,1.2,0.4c0.4,0.1,0.7,0.3,0.9,0.5c0.2,0.2,0.4,0.4,0.5,0.7c0.1,0.3,0.2,0.6,0.2,1v0c0,0.4-0.1,0.8-0.2,1.1
		c-0.2,0.3-0.4,0.6-0.6,0.8c-0.3,0.2-0.6,0.4-1,0.5C63.2,489.2,62.8,489.3,62.3,489.3"/>
	<path class="st3" d="M72.8,485.6l-1.5-3.5l-1.5,3.5H72.8z M70.6,480.3H72l3.9,8.9h-1.6l-0.9-2.1h-4.2l-0.9,2.1h-1.6L70.6,480.3z"/>
	<path class="st3" d="M81.2,489.3c-0.6,0-1.1-0.1-1.5-0.2c-0.5-0.2-0.9-0.4-1.2-0.7c-0.3-0.3-0.6-0.7-0.8-1.2
		c-0.2-0.5-0.3-1-0.3-1.7v-5.1H79v5c0,0.8,0.2,1.4,0.6,1.9c0.4,0.4,0.9,0.6,1.6,0.6c0.7,0,1.2-0.2,1.6-0.6c0.4-0.4,0.6-1,0.6-1.8
		v-5.1H85v5c0,0.7-0.1,1.2-0.3,1.7c-0.2,0.5-0.4,0.9-0.8,1.2c-0.3,0.3-0.7,0.6-1.2,0.7C82.3,489.2,81.8,489.3,81.2,489.3"/>
	<path class="st3" d="M90.6,487.7c0.5,0,0.9-0.1,1.3-0.2c0.4-0.1,0.7-0.4,1-0.6c0.3-0.3,0.5-0.6,0.6-1c0.1-0.4,0.2-0.8,0.2-1.2v0
		c0-0.4-0.1-0.8-0.2-1.2c-0.2-0.4-0.4-0.7-0.6-1c-0.3-0.3-0.6-0.5-1-0.6c-0.4-0.2-0.8-0.2-1.3-0.2h-1.7v6H90.6z M87.3,480.3h3.3
		c0.7,0,1.3,0.1,1.9,0.3c0.6,0.2,1.1,0.5,1.5,0.9c0.4,0.4,0.7,0.9,1,1.4c0.2,0.5,0.3,1.1,0.3,1.7v0c0,0.6-0.1,1.2-0.3,1.7
		c-0.2,0.5-0.5,1-1,1.4c-0.4,0.4-0.9,0.7-1.5,0.9c-0.6,0.2-1.2,0.3-1.9,0.3h-3.3V480.3z"/>
	<rect x="97.4" y="480.3" class="st3" width="1.5" height="8.8"/>
	<path class="st3" d="M108.6,484.9c0.6,0,1.1-0.1,1.4-0.4c0.3-0.3,0.5-0.7,0.5-1.1v0c0-0.5-0.2-0.9-0.5-1.2
		c-0.3-0.3-0.8-0.4-1.4-0.4h-1.8v3.2H108.6z M105.3,480.3h3.5c0.5,0,1,0.1,1.4,0.2c0.4,0.1,0.8,0.3,1.1,0.6c0.3,0.3,0.5,0.6,0.7,0.9
		c0.2,0.4,0.2,0.8,0.2,1.2v0c0,0.5-0.1,0.9-0.3,1.3c-0.2,0.4-0.4,0.7-0.8,0.9c-0.3,0.3-0.7,0.4-1.1,0.6c-0.4,0.1-0.9,0.2-1.4,0.2
		h-1.8v2.8h-1.5V480.3z"/>
	<path class="st3" d="M118.1,487.9c0.4,0,0.8-0.1,1.2-0.2c0.4-0.2,0.7-0.4,0.9-0.7c0.3-0.3,0.5-0.6,0.6-1c0.1-0.4,0.2-0.8,0.2-1.2v0
		c0-0.4-0.1-0.8-0.2-1.2c-0.1-0.4-0.4-0.7-0.6-1c-0.3-0.3-0.6-0.5-0.9-0.7c-0.4-0.2-0.8-0.3-1.2-0.3c-0.4,0-0.8,0.1-1.2,0.2
		c-0.4,0.2-0.7,0.4-0.9,0.7c-0.3,0.3-0.5,0.6-0.6,1c-0.1,0.4-0.2,0.8-0.2,1.2v0c0,0.4,0.1,0.8,0.2,1.2c0.1,0.4,0.4,0.7,0.6,1
		c0.3,0.3,0.6,0.5,0.9,0.7C117.3,487.8,117.7,487.9,118.1,487.9 M118.1,489.3c-0.7,0-1.3-0.1-1.9-0.4c-0.6-0.2-1-0.6-1.4-1
		c-0.4-0.4-0.7-0.9-0.9-1.4c-0.2-0.6-0.3-1.1-0.3-1.8v0c0-0.6,0.1-1.2,0.3-1.8c0.2-0.5,0.5-1,1-1.4c0.4-0.4,0.9-0.7,1.5-1
		c0.6-0.2,1.2-0.4,1.9-0.4s1.3,0.1,1.9,0.4c0.6,0.2,1,0.6,1.4,1c0.4,0.4,0.7,0.9,0.9,1.4c0.2,0.6,0.3,1.1,0.3,1.8v0
		c0,0.6-0.1,1.2-0.3,1.8c-0.2,0.6-0.6,1-1,1.4c-0.4,0.4-0.9,0.7-1.5,1C119.4,489.2,118.8,489.3,118.1,489.3"/>
	<path class="st3" d="M128.6,484.7c0.6,0,1-0.1,1.3-0.4c0.3-0.3,0.5-0.6,0.5-1.1v0c0-0.5-0.2-0.8-0.5-1.1c-0.3-0.2-0.8-0.4-1.4-0.4
		h-2.3v3H128.6z M124.8,480.3h3.9c0.6,0,1,0.1,1.5,0.2c0.4,0.2,0.8,0.4,1.1,0.6c0.2,0.2,0.4,0.5,0.5,0.8c0.1,0.3,0.2,0.7,0.2,1.1v0
		c0,0.4-0.1,0.7-0.2,1c-0.1,0.3-0.2,0.5-0.4,0.8c-0.2,0.2-0.4,0.4-0.7,0.6c-0.3,0.2-0.5,0.3-0.9,0.4l2.4,3.3h-1.8l-2.2-3.1h0h-1.9
		v3.1h-1.5V480.3z"/>
	<polygon class="st3" points="136.2,481.8 133.4,481.8 133.4,480.3 140.6,480.3 140.6,481.8 137.8,481.8 137.8,489.1 136.2,489.1 	
		"/>
	<path class="st3" d="M145.5,489.3c-0.7,0-1.3-0.1-2-0.3c-0.6-0.2-1.2-0.6-1.7-1.1l0.9-1.1c0.4,0.4,0.9,0.7,1.3,0.9
		c0.4,0.2,0.9,0.3,1.5,0.3c0.5,0,0.9-0.1,1.1-0.3c0.3-0.2,0.4-0.5,0.4-0.8v0c0-0.2,0-0.3-0.1-0.4c-0.1-0.1-0.2-0.2-0.3-0.3
		c-0.1-0.1-0.3-0.2-0.6-0.3c-0.3-0.1-0.6-0.2-1-0.3c-0.5-0.1-0.9-0.2-1.3-0.4c-0.4-0.1-0.7-0.3-0.9-0.5c-0.2-0.2-0.4-0.4-0.6-0.7
		c-0.1-0.3-0.2-0.6-0.2-1v0c0-0.4,0.1-0.7,0.2-1c0.2-0.3,0.4-0.6,0.6-0.8c0.3-0.2,0.6-0.4,0.9-0.5c0.4-0.1,0.8-0.2,1.2-0.2
		c0.6,0,1.2,0.1,1.7,0.3c0.5,0.2,1,0.5,1.5,0.8l-0.8,1.2c-0.4-0.3-0.8-0.5-1.2-0.7c-0.4-0.2-0.8-0.2-1.2-0.2c-0.5,0-0.8,0.1-1.1,0.3
		c-0.3,0.2-0.4,0.5-0.4,0.7v0c0,0.2,0,0.3,0.1,0.4c0.1,0.1,0.2,0.2,0.3,0.4c0.2,0.1,0.4,0.2,0.6,0.3c0.3,0.1,0.6,0.2,1,0.3
		c0.5,0.1,0.9,0.2,1.2,0.4c0.4,0.1,0.7,0.3,0.9,0.5c0.2,0.2,0.4,0.4,0.5,0.7c0.1,0.3,0.2,0.6,0.2,1v0c0,0.4-0.1,0.8-0.2,1.1
		c-0.2,0.3-0.4,0.6-0.6,0.8c-0.3,0.2-0.6,0.4-1,0.5C146.4,489.2,145.9,489.3,145.5,489.3"/>
	<path class="st3" d="M159.7,485.6l-1.5-3.5l-1.5,3.5H159.7z M157.5,480.3h1.4l3.9,8.9h-1.6l-0.9-2.1h-4.2l-0.9,2.1h-1.6
		L157.5,480.3z"/>
	<path class="st3" d="M168.1,489.3c-0.6,0-1.1-0.1-1.5-0.2c-0.5-0.2-0.9-0.4-1.2-0.7c-0.3-0.3-0.6-0.7-0.8-1.2
		c-0.2-0.5-0.3-1-0.3-1.7v-5.1h1.5v5c0,0.8,0.2,1.4,0.6,1.9c0.4,0.4,0.9,0.6,1.6,0.6c0.7,0,1.2-0.2,1.6-0.6c0.4-0.4,0.6-1,0.6-1.8
		v-5.1h1.5v5c0,0.7-0.1,1.2-0.3,1.7c-0.2,0.5-0.4,0.9-0.8,1.2c-0.3,0.3-0.7,0.6-1.2,0.7C169.2,489.2,168.7,489.3,168.1,489.3"/>
	<polygon class="st3" points="176.4,481.8 173.6,481.8 173.6,480.3 180.8,480.3 180.8,481.8 178,481.8 178,489.1 176.4,489.1 	"/>
	<polygon class="st3" points="182.6,480.3 184.1,480.3 184.1,484 188.3,484 188.3,480.3 189.9,480.3 189.9,489.1 188.3,489.1 
		188.3,485.4 184.1,485.4 184.1,489.1 182.6,489.1 	"/>
	<path class="st3" d="M196.6,487.9c0.4,0,0.8-0.1,1.2-0.2c0.4-0.2,0.7-0.4,0.9-0.7c0.3-0.3,0.5-0.6,0.6-1c0.1-0.4,0.2-0.8,0.2-1.2v0
		c0-0.4-0.1-0.8-0.2-1.2c-0.1-0.4-0.4-0.7-0.6-1c-0.3-0.3-0.6-0.5-0.9-0.7c-0.4-0.2-0.8-0.3-1.2-0.3c-0.4,0-0.8,0.1-1.2,0.2
		c-0.4,0.2-0.7,0.4-0.9,0.7c-0.3,0.3-0.5,0.6-0.6,1c-0.1,0.4-0.2,0.8-0.2,1.2v0c0,0.4,0.1,0.8,0.2,1.2c0.1,0.4,0.4,0.7,0.6,1
		c0.3,0.3,0.6,0.5,0.9,0.7C195.7,487.8,196.1,487.9,196.6,487.9 M196.5,489.3c-0.7,0-1.3-0.1-1.9-0.4c-0.6-0.2-1-0.6-1.4-1
		c-0.4-0.4-0.7-0.9-0.9-1.4c-0.2-0.6-0.3-1.1-0.3-1.8v0c0-0.6,0.1-1.2,0.3-1.8c0.2-0.5,0.5-1,1-1.4c0.4-0.4,0.9-0.7,1.5-1
		c0.6-0.2,1.2-0.4,1.9-0.4c0.7,0,1.3,0.1,1.9,0.4c0.6,0.2,1,0.6,1.4,1s0.7,0.9,0.9,1.4c0.2,0.6,0.3,1.1,0.3,1.8v0
		c0,0.6-0.1,1.2-0.3,1.8c-0.2,0.6-0.5,1-1,1.4c-0.4,0.4-0.9,0.7-1.5,1C197.8,489.2,197.2,489.3,196.5,489.3"/>
	<path class="st3" d="M207,484.7c0.6,0,1-0.1,1.3-0.4c0.3-0.3,0.5-0.6,0.5-1.1v0c0-0.5-0.2-0.8-0.5-1.1c-0.3-0.2-0.8-0.4-1.4-0.4
		h-2.3v3H207z M203.2,480.3h3.9c0.6,0,1,0.1,1.5,0.2c0.4,0.2,0.8,0.4,1.1,0.6c0.2,0.2,0.4,0.5,0.5,0.8c0.1,0.3,0.2,0.7,0.2,1.1v0
		c0,0.4-0.1,0.7-0.2,1c-0.1,0.3-0.3,0.5-0.4,0.8c-0.2,0.2-0.4,0.4-0.7,0.6c-0.3,0.2-0.5,0.3-0.9,0.4l2.4,3.3h-1.8l-2.2-3.1h0h-1.9
		v3.1h-1.5V480.3z"/>
	<rect x="212.6" y="480.3" class="st3" width="1.5" height="8.8"/>
	<polygon class="st3" points="218.8,481.8 216,481.8 216,480.3 223.2,480.3 223.2,481.8 220.4,481.8 220.4,489.1 218.8,489.1 	"/>
	<polygon class="st3" points="227.6,485.7 224.1,480.3 225.9,480.3 228.4,484.2 230.9,480.3 232.7,480.3 229.1,485.6 229.1,489.1 
		227.6,489.1 	"/>
	<path class="st3" d="M71.7,465.5c0-1.9-0.7-2.7-2.4-2.7c-0.7,0-1.4,0.1-1.4,0.1v6.7h-3.1c-4.2,0-5.9-1.7-5.9-4.9
		c0-1,0.2-2.1,0.6-2.8l1.6-0.3c-0.4,0.8-0.6,1.9-0.6,2.9c0,2.6,1,3.8,4.5,3.8h1.4v-6.5c0,0,1.5-0.3,3.1-0.3c2.8,0,3.7,1.4,3.7,3.7
		v3.2h4v1.2h-5.5V465.5z M58.7,459.2c0.5,0,0.9,0,1.2,0.1c-0.3-0.1-0.5-0.5-0.5-0.8c0-0.8,0.6-1.7,2.1-1.7c0.4,0,0.7,0,0.9,0.1
		l-0.2,0.9c-0.2,0-0.5-0.1-0.8-0.1c-0.6,0-0.9,0.3-0.9,0.7c0,0.4,0.4,0.8,1.3,0.8h0.9v1h-4.1V459.2z"/>
	<path class="st3" d="M79.3,459.1c0-0.5,0.4-0.9,0.9-0.9c0.5,0,0.9,0.4,0.9,0.9c0,0.5-0.4,0.9-0.9,0.9
		C79.7,460,79.3,459.6,79.3,459.1 M77,468.5h2.5v-6.7H81v7.9h-4V468.5z"/>
	<rect x="84.1" y="457.9" class="st3" width="1.5" height="11.8"/>
	<path class="st3" d="M94,463.2c0,0-0.8-0.4-2-0.4c-1.6,0-2.5,1.1-2.5,2.8c0,1.9,0.9,2.9,3.1,2.9H94V463.2z M88,473.7l0.1-1.3
		c0,0,1.4,0.3,2.7,0.3c1.8,0,3.2-0.7,3.2-2.6v-0.4h-1.7c-3.2,0-4.4-1.5-4.4-3.9c0-2.2,1.4-4.2,4.2-4.2c1.8,0,3.4,0.6,3.4,0.6v6.3
		h5.1v1.2h-5.1v0.3c0,2-1.3,3.9-4.9,3.9C89.4,473.9,88,473.7,88,473.7"/>
	<path class="st3" d="M108.4,465.9c0-2.2-0.8-3-2.3-3s-2.4,1.1-2.4,3c0,1.8,0.8,2.6,2.8,2.6h1.9V465.9z M102.9,468.3
		c-0.4,0.9-1.2,1.4-2.2,1.4h-0.3v-1.2h0.3c0.9,0,1.5-0.5,1.5-2.5c0-2.5,1.4-4.4,4.1-4.4c2.5,0,3.7,1.4,3.7,4v2.9h4.9v1.2h-8.5
		C104.4,469.7,103.4,469.2,102.9,468.3"/>
	<polygon class="st3" points="111.4,468.5 116.9,468.5 116.9,457.9 118.5,457.9 118.5,468.5 120.3,468.5 120.3,469.7 111.4,469.7 	
		"/>
	<polygon class="st3" points="120.1,468.5 122.4,468.5 122.4,457.9 124,457.9 124,469.7 120.1,469.7 	"/>
	<path class="st3" d="M134.9,459.4c0-0.5,0.4-0.9,0.9-0.9c0.5,0,0.9,0.4,0.9,0.9c0,0.5-0.4,0.9-0.9,0.9
		C135.3,460.3,134.9,459.9,134.9,459.4 M132.4,459.4c0-0.5,0.4-0.9,0.9-0.9c0.5,0,0.9,0.4,0.9,0.9c0,0.5-0.4,0.9-0.9,0.9
		C132.8,460.3,132.4,459.9,132.4,459.4 M136.5,463.2c0,0-0.8-0.4-2-0.4c-1.6,0-2.5,1.1-2.5,2.8c0,1.9,0.9,2.9,3.1,2.9h1.5V463.2z
		 M134.8,469.7c-3.2,0-4.4-1.5-4.4-3.9c0-2.2,1.4-4.2,4.2-4.2c1.8,0,3.4,0.6,3.4,0.6v6.3h3.5v1.2H134.8z"/>
	<path class="st3" d="M149.3,465.9c0-2.2-0.8-3-2.3-3c-1.5,0-2.4,1.1-2.4,3c0,1.8,0.8,2.6,2.8,2.6h1.9V465.9z M147.2,469.7
		c-1.9,0-3-0.5-3.5-1.4c-0.4,0.9-1.2,1.4-2.2,1.4h-0.3v-1.2h0.3c0.9,0,1.5-0.5,1.5-2.5c0-2.5,1.4-4.4,4.1-4.4c2.5,0,3.7,1.4,3.7,4
		v4.1H147.2z"/>
	<polygon class="st3" points="153.9,457.9 155.4,457.9 155.4,468.5 158.1,468.5 158.1,469.7 153.9,469.7 	"/>
	<path class="st3" d="M164.1,466.9c1-0.7,1.5-1.6,1.5-2.5c0-0.9-0.6-1.6-1.9-1.6c-1.2,0-2.5,0.8-3.2,1.3
		C162,464.6,163,465.9,164.1,466.9 M157.8,468.5h0.6c1.9,0,3.4-0.3,4.6-0.9c-1.2-1.1-2.3-2.4-4-2.9l0.1-1.1c1.3-1,3.2-2,4.9-2
		c2.3,0,3.2,1.2,3.2,2.6c0,1.2-0.7,2.5-2,3.5c0.7,0.5,1.5,0.8,2.4,0.8h1.8v1.2h-2c-1.4,0-2.5-0.5-3.4-1.2c-1.4,0.8-3.4,1.2-5.7,1.2
		h-0.4V468.5z"/>
	<polygon class="st3" points="169.1,468.5 171.5,468.5 171.5,457.9 173,457.9 173,469.7 169.1,469.7 	"/>
	<rect x="176.2" y="457.9" class="st3" width="1.5" height="11.8"/>
	<path class="st3" d="M188.6,459.4c0-0.5,0.4-0.9,0.9-0.9c0.5,0,0.9,0.4,0.9,0.9c0,0.5-0.4,0.9-0.9,0.9
		C189,460.3,188.6,459.9,188.6,459.4 M186.2,459.4c0-0.5,0.4-0.9,0.9-0.9c0.5,0,0.9,0.4,0.9,0.9c0,0.5-0.4,0.9-0.9,0.9
		C186.6,460.3,186.2,459.9,186.2,459.4 M190.3,463.2c0,0-0.8-0.4-2-0.4c-1.6,0-2.5,1.1-2.5,2.8c0,1.9,0.9,2.9,3.1,2.9h1.5V463.2z
		 M188.6,469.7c-3.2,0-4.4-1.5-4.4-3.9c0-2.2,1.4-4.2,4.2-4.2c1.8,0,3.4,0.6,3.4,0.6v6.3h5.1v1.2H188.6z"/>
	<path class="st3" d="M197.4,459.2c0.5,0,0.9,0,1.2,0.1c-0.3-0.1-0.5-0.5-0.5-0.8c0-0.8,0.6-1.7,2.1-1.7c0.4,0,0.7,0,0.9,0.1
		l-0.2,0.9c-0.2,0-0.5-0.1-0.8-0.1c-0.6,0-0.9,0.3-0.9,0.7c0,0.4,0.4,0.8,1.3,0.8h0.9v1h-4.1V459.2z M196.6,468.5h2.5v-6.7h1.5v6.7
		h1.9v1.2h-5.9V468.5z"/>
	<path class="st3" d="M206.1,473.1c-0.5,0-0.9-0.4-0.9-0.9c0-0.5,0.4-0.9,0.9-0.9c0.5,0,0.9,0.4,0.9,0.9
		C207,472.7,206.6,473.1,206.1,473.1 M203.7,473.1c-0.5,0-0.9-0.4-0.9-0.9c0-0.5,0.4-0.9,0.9-0.9c0.5,0,0.9,0.4,0.9,0.9
		C204.6,472.7,204.2,473.1,203.7,473.1 M202.2,468.5h3.4v-6.7h1.5v6.7h4.2v1.2h-9.2V468.5z"/>
	<path class="st3" d="M217.7,467.8c0-1.4-0.5-2.5-1.7-2.5c-1.1,0-1.6,0.7-1.6,1.6c0,1.1,0.8,1.7,1.9,1.7h1.4V467.8z M211.2,469.7
		v-1.2h2c0.3,0,0.6,0,0.6,0c0,0-0.7-0.5-0.7-1.5c0-1.6,1.2-2.8,3-2.8c2,0,2.9,1.4,2.9,3.5v0.7h2.2v-0.3c0-4.2-1.6-5.9-5-5.9
		c-1.1,0-2.5,0.2-3.6,0.6l-0.2-1.1c1.1-0.4,2.6-0.6,3.9-0.6c4,0,6.3,2,6.3,7.1v0.3h1.5v1.2H211.2z"/>
	<polygon class="st3" points="224,468.5 226.4,468.5 226.4,457.9 227.9,457.9 227.9,469.7 224,469.7 	"/>
	<rect x="231.1" y="457.9" class="st3" width="1.5" height="11.8"/>
	<path class="st2" d="M143.2,398.7h4.6c0.3,0,0.5-0.1,0.7-0.3c0.2-0.2,0.3-0.5,0.3-0.7v-31.2c0-0.3-0.1-0.5-0.3-0.7
		c-0.2-0.2-0.4-0.3-0.7-0.3h-4.6c-0.3,0-0.5,0.1-0.7,0.3c-0.2,0.2-0.3,0.4-0.3,0.7v31.2c0,0.3,0.1,0.5,0.3,0.7
		C142.7,398.6,143,398.7,143.2,398.7"/>
	<path class="st2" d="M130.7,371.7h3.6c0.3,0,0.5-0.1,0.7-0.3c0.2-0.2,0.3-0.4,0.3-0.7v-4.3c0-0.3-0.1-0.5-0.3-0.7
		c-0.2-0.2-0.5-0.3-0.7-0.3h-3.6c-0.3,0-0.5,0.1-0.7,0.3c-0.2,0.2-0.3,0.4-0.3,0.7v4.3c0,0.3,0.1,0.5,0.3,0.7
		C130.2,371.6,130.5,371.7,130.7,371.7"/>
	<path class="st2" d="M59.8,376.6h8.4c0.3,0,0.6,0,0.8-0.1c0.2-0.1,0.3-0.3,0.3-0.6v-1c0-0.5-0.4-0.7-1.1-0.7H64
		c-0.3-0.2-0.6-0.5-0.9-1.1c-0.3-0.6-0.4-1.3-0.4-2.1c0-1.9,1.1-2.8,3.3-2.8c0.2,0,0.6,0,1.1,0c0.5,0,0.8,0,0.9,0
		c0.5,0,0.8-0.2,0.8-0.7v-0.9c0-0.3-0.2-0.6-0.7-0.7c-0.4-0.1-0.8-0.1-1.2-0.2c-0.4,0-0.8-0.1-1.1-0.1c-1.9,0-3.3,0.4-4.3,1.2
		c-1,0.8-1.5,2.1-1.5,3.8c0,0.6,0.1,1.3,0.2,1.9c0.2,0.6,0.4,1.2,0.8,1.7h-1.1c-0.7,0-1.1,0.2-1.1,0.6v1.1
		C58.7,376.4,59.1,376.6,59.8,376.6"/>
	<path class="st2" d="M231.9,377.5c-0.5-1.5-1.3-2.8-2.2-3.9c-1-1.1-2.2-1.9-3.7-2.6c-1.3-0.6-2.8-0.9-4.6-0.9l-0.5,0
		c-3.7,0.1-6.5,1.2-8.3,3.3c-1.9,2.2-2.9,5.2-2.9,9.1v3.8c0,1-0.1,2-0.2,2.8c-0.1,0.9-0.4,1.6-0.8,2.2c-0.4,0.6-0.9,1.1-1.6,1.5
		c-0.7,0.4-1.6,0.5-2.6,0.5h-26.1v-20.6c0-0.4-0.1-0.6-0.2-0.8c-0.2-0.2-0.5-0.4-1.1-0.5c-1.5-0.4-3.2-0.7-4.9-0.9
		c-1.7-0.2-3.4-0.3-5-0.3c-4,0-6.9,1.1-8.9,3.3c-1.9,2.2-2.9,5.2-2.9,9.1v3.8c0,3.9,1,6.9,2.9,9.1c1.8,2,4.5,3.1,8,3.3
		c0.5,0,0.9-0.4,0.9-0.9V394c0-0.4-0.3-0.7-0.6-0.7c-0.8-0.1-1.4-0.2-2-0.5c-0.7-0.4-1.2-0.9-1.6-1.5c-0.4-0.6-0.7-1.4-0.8-2.2
		c-0.1-0.9-0.2-1.8-0.2-2.8v-3.8c0-1,0.1-2,0.2-2.8c0.2-0.9,0.4-1.6,0.8-2.2c0.4-0.6,0.9-1.1,1.6-1.5c0.7-0.4,1.6-0.5,2.6-0.5
		c0.9,0,1.8,0.1,2.7,0.1c0.9,0.1,1.6,0.2,2,0.3v17.4v5.3c0,0.9,0,1.4-0.1,2c-0.1,0.6-0.3,1-0.6,1.4c-0.3,0.3-0.8,0.6-1.4,0.7
		c-0.6,0.1-1.4,0.2-2.4,0.2c-0.6,0-1.2,0-2.1-0.1c-0.8-0.1-1.7-0.1-2.5-0.1c-0.9-0.1-1.7-0.1-2.5-0.2c-0.8-0.1-1.5-0.1-2-0.2h-0.1
		c-0.6,0-0.9,0.3-0.9,0.8v2.6c0,0.4,0.1,0.6,0.2,0.8c0.1,0.2,0.4,0.3,0.8,0.4c0.9,0.3,2.2,0.6,3.7,0.8c1.6,0.2,3.4,0.4,5.5,0.4
		c3.8,0,6.6-0.8,8.4-2.3c1.7-1.5,2.6-3.9,2.7-7.1h26.1c3.8,0,6.6-1,8.5-3c2.7-2.5,3.2-6.8,3.3-9.2c0-0.1,0-3.7,0-3.7
		c0-1,0.1-2,0.2-2.8c0.1-0.9,0.4-1.6,0.8-2.2c0.4-0.6,0.9-1.1,1.6-1.5c0.6-0.3,1.4-0.5,2.3-0.5l0,0c1.7,0,3.1,0.6,3.9,1.8
		c0.9,1.2,1.3,2.8,1.3,4.9v4v6.9h-5c0,0-0.5,0-0.7,0c-0.6-0.1-1.1,0.2-1.3,0.8c-0.4,1-0.9,2-1.5,2.9c-0.4,0.5-0.1,1.2,0.5,1.4
		c0.9,0.2,1.9,0.3,3,0.3h9.5c0.3,0,0.6,0,0.8-0.1c0.3-0.1,0.5-0.2,0.6-0.4c0.2-0.2,0.2-0.5,0.2-0.8v-10.9v-4
		C232.7,380.7,232.4,379,231.9,377.5"/>
	<path class="st2" d="M94.9,377.4c0.4,0.6,0.7,1.3,0.8,2.2c0.1,0.8,0.2,1.8,0.2,2.8V398c0,0.4,0.3,0.7,0.7,0.7h4.9c0,0,0,0,0,0
		l22.9,0c0.5,0,1.1-0.1,1.9-0.1c0.7-0.1,1.5-0.3,2.4-0.6c0.8-0.3,1.7-0.7,2.5-1.2c0.8-0.5,1.6-1.2,2.2-2.1c0.7-0.9,1.2-2,1.6-3.3
		c0.4-1.3,0.6-2.8,0.6-4.6v-10c0-0.3-0.1-0.5-0.3-0.7c-0.2-0.2-0.4-0.3-0.7-0.3h-4.6c-0.3,0-0.5,0.1-0.7,0.3
		c-0.2,0.2-0.3,0.5-0.3,0.7v10.3c0,1.3-0.1,2.3-0.3,3.2c-0.2,0.8-0.6,1.5-1,1.9c-0.4,0.5-0.9,0.8-1.5,1c-0.6,0.2-1.2,0.2-2,0.2H105
		h-2.7v-10.7c0-4.1-1-7.1-2.9-9.3c-1.9-2.1-4.8-3.2-8.7-3.2h-3.1h-4.8c-0.9,0-1.6,0.7-1.6,1.6v26.8h0c0,0.8,0,1.3-0.1,1.9
		c-0.1,0.5-0.3,1-0.6,1.3s-0.8,0.6-1.4,0.7c-0.6,0.1-1.4,0.2-2.3,0.2h-2.4c-2.3,0-4.1-0.4-5.5-1c-1.5-0.7-2.6-1.6-3.3-2.7
		c-0.8-1.2-1.2-2.5-1.4-4c-0.2-1.5-0.3-3.1-0.3-4.8c0-0.6,0-1.3,0.1-2.2c0.1-0.9,0.1-0.4,0.1-1.2c0.1-0.7-0.2-1-0.8-1h-3.2
		c-0.5,0-0.9,0.3-1,1c-0.1,0.5-0.2,1-0.3,1.6c-0.1,0.6-0.1,1.2-0.2,1.8c-0.1,0.6-0.1,1.1-0.1,1.6c0,0.5,0,0.9,0,1.2
		c0,2.3,0.2,4.5,0.7,6.4c0.5,1.9,1.2,3.5,2.4,4.8c1.1,1.3,2.7,2.3,4.7,3c2,0.7,4.4,1.1,7.4,1.1h3.1v0c3.6,0,6.3-0.8,8-2.3
		c1.7-1.5,2.6-4,2.7-7.3h0v-23.1h3.1c1,0,1.9,0.2,2.6,0.5C94,376.3,94.5,376.8,94.9,377.4"/>
	<path class="st2" d="M87.7,415.9h-4.5c-0.5,0-0.9,0.3-1.1,0.7l-8.3,17.4l-8.4-17.4c-0.2-0.4-0.6-0.7-1.1-0.7h-4.5
		c-0.7,0-1.2,0.5-1.2,1.2v31c0,0.7,0.5,1.2,1.2,1.2H64c0.7,0,1.2-0.5,1.2-1.2v-18.3l6.1,12c0.2,0.4,0.6,0.7,1.1,0.7h2.9
		c0.5,0,0.9-0.3,1.1-0.7l6-12V448c0,0.7,0.5,1.2,1.2,1.2h4.1c0.7,0,1.2-0.5,1.2-1.2v-31C88.9,416.4,88.3,415.9,87.7,415.9"/>
	<path class="st2" d="M110.3,416.6c-0.2-0.5-0.6-0.8-1.1-0.8h-3.5c-0.5,0-0.9,0.3-1.1,0.8l-11.3,31c-0.3,0.8,0.3,1.6,1.1,1.6h4.2
		c0.5,0,1-0.3,1.1-0.8l1.7-5.1h6.1c0.8,0,1.4-0.8,1.1-1.6l-1-3.1c-0.2-0.5-0.6-0.8-1.1-0.8h-3.3l4.2-12.2l5.8,17.7h0l1.7,5.1
		c0.2,0.5,0.6,0.8,1.1,0.8h4.2c0.8,0,1.4-0.8,1.1-1.6L110.3,416.6z"/>
	<path class="st2" d="M160.2,415.9h-4.3c-0.5,0-1,0.4-1.2,0.9l-5,20.1l-5.8-20.2c-0.1-0.5-0.6-0.9-1.1-0.9h-3.1
		c-0.5,0-1,0.4-1.1,0.9l-5.8,20.2l-4.9-20.1c-0.1-0.5-0.6-0.9-1.2-0.9h-4.3c-0.8,0-1.4,0.7-1.1,1.5l8.3,31c0.1,0.5,0.6,0.9,1.2,0.9
		h3.6c0.5,0,1-0.3,1.1-0.8l5.9-19.4l5.9,19.4c0.2,0.5,0.6,0.8,1.1,0.8h3.6c0.5,0,1-0.4,1.2-0.9l8.3-31
		C161.5,416.6,161,415.9,160.2,415.9"/>
	<path class="st2" d="M178.8,416.6c-0.2-0.5-0.6-0.8-1.1-0.8h-3.5c-0.5,0-0.9,0.3-1.1,0.8l-11.3,31c-0.3,0.8,0.3,1.6,1.1,1.6h4.2
		c0.5,0,1-0.3,1.1-0.8l1.7-5.1h6.1c0.8,0,1.4-0.8,1.1-1.6l-1-3.1c-0.2-0.5-0.6-0.8-1.1-0.8h-3.3l4.2-12.2l5.8,17.7h0l1.7,5.1
		c0.2,0.5,0.6,0.8,1.1,0.8h4.2c0.8,0,1.4-0.8,1.1-1.6L178.8,416.6z"/>
	<path class="st2" d="M218.4,415.9h-4.1c-0.7,0-1.2,0.5-1.2,1.2v19.2l-12.9-19.9c-0.2-0.3-0.6-0.5-1-0.5h-4c-0.7,0-1.2,0.5-1.2,1.2
		v31c0,0.7,0.5,1.2,1.2,1.2h4.1c0.7,0,1.2-0.5,1.2-1.2v-19.3l12.9,19.9c0.2,0.3,0.6,0.5,1,0.5h4c0.7,0,1.2-0.5,1.2-1.2v-31
		C219.6,416.4,219.1,415.9,218.4,415.9"/>
	<path class="st2" d="M231.5,415.9h-4.1c-0.7,0-1.2,0.5-1.2,1.2v31c0,0.7,0.5,1.2,1.2,1.2h4.1c0.7,0,1.2-0.5,1.2-1.2v-31
		C232.7,416.4,232.1,415.9,231.5,415.9"/>
</g>
<g>
	<path class="st2" d="M556.3,385.3l-5.5-23.9c-0.1-0.6-0.6-1.1-1.2-1.1c-0.6,0-1.1,0.5-1.2,1.1l-5.5,23.9c-0.1,0.5,0,0.8,0.2,1.2
		c0.3,0.6,1,0.8,1.6,0.6c1.5-0.4,3-0.6,4.6-0.7l0.5,0c1.6,0,3.2,0.2,4.7,0.7c0.5,0.2,1.1,0,1.5-0.4
		C556.2,386.3,556.3,385.9,556.3,385.3"/>
	<path class="st2" d="M571.4,414l23.9-5.5c0.6-0.1,1.1-0.6,1.1-1.2c0-0.6-0.5-1.1-1.1-1.2l-23.9-5.5c-0.5-0.1-0.8,0-1.2,0.2
		c-0.5,0.3-0.8,1-0.6,1.6c0.4,1.5,0.6,3,0.7,4.6l0,0.5c0,1.6-0.2,3.2-0.7,4.7c-0.2,0.5,0,1.1,0.4,1.5
		C570.5,413.9,570.9,414.1,571.4,414"/>
	<path class="st3" d="M577.1,370.2l-13,20.8c-0.3,0.5-0.3,1.2,0.1,1.6c0.4,0.4,1.1,0.4,1.6,0.1l20.8-13c0.4-0.3,0.6-0.6,0.7-1
		c0.2-0.6-0.1-1.2-0.7-1.5c-1.3-0.7-2.6-1.7-3.7-2.8l-0.4-0.4c-1.1-1.2-2.1-2.5-2.9-3.8c-0.3-0.5-0.8-0.8-1.4-0.7
		C577.9,369.6,577.5,369.8,577.1,370.2"/>
	<path class="st3" d="M512.4,379.7l20.8,13c0.5,0.3,1.2,0.3,1.6-0.1c0.4-0.4,0.4-1.1,0.1-1.6l-13-20.8c-0.3-0.4-0.6-0.6-1-0.7
		c-0.6-0.2-1.2,0.1-1.5,0.7c-0.7,1.3-1.7,2.6-2.8,3.7l-0.4,0.4c-1.2,1.1-2.5,2.1-3.8,2.9c-0.5,0.3-0.8,0.8-0.7,1.4
		C511.8,378.9,512,379.3,512.4,379.7"/>
	<path class="st2" d="M527.6,400.6l-23.9,5.5c-0.6,0.1-1.1,0.6-1.1,1.2c0,0.6,0.5,1.1,1.1,1.2l23.9,5.5c0.4,0.1,0.8,0,1.2-0.2
		c0.6-0.3,0.8-1,0.6-1.6c-0.4-1.5-0.6-3-0.7-4.6l0-0.5c0-1.6,0.2-3.2,0.7-4.7c0.2-0.5,0-1.1-0.4-1.5
		C528.6,400.6,528.1,400.5,527.6,400.6"/>
	<path class="st3" d="M521.9,444.4l13-20.8c0.3-0.5,0.3-1.2-0.1-1.6c-0.4-0.4-1.1-0.4-1.6-0.1l-20.8,13c-0.4,0.3-0.6,0.6-0.7,1
		c-0.2,0.6,0.1,1.2,0.7,1.5c1.3,0.7,2.6,1.7,3.7,2.8l0.4,0.4c1.1,1.2,2.1,2.5,2.9,3.8c0.3,0.5,0.8,0.8,1.4,0.7
		C521.2,445,521.6,444.8,521.9,444.4"/>
	<path class="st3" d="M586.6,434.9l-20.8-13c-0.5-0.3-1.2-0.3-1.6,0.1c-0.4,0.4-0.4,1.1-0.1,1.6l13,20.8c0.3,0.4,0.6,0.6,1,0.7
		c0.6,0.2,1.2-0.1,1.5-0.7c0.7-1.3,1.7-2.6,2.8-3.7l0.4-0.4c1.2-1.1,2.5-2.1,3.8-2.9c0.5-0.3,0.8-0.8,0.7-1.4
		C587.2,435.7,587,435.2,586.6,434.9"/>
	<path class="st2" d="M549.6,400.6c3.7,0,6.7,3,6.7,6.7c0,3.7-3,6.7-6.7,6.7c-3.7,0-6.7-3-6.7-6.7
		C542.9,403.6,545.9,400.6,549.6,400.6 M597.9,459.9c-0.5-0.3-1.1-0.2-1.6,0.2l-11.9,7.2c-0.3,0.3-0.4,0.7-0.5,1.1
		c0,0.6,0.4,1.2,1,1.4c0.5,0.2,1.1,0.4,1.6,0.6c-1.5,1.5-10.4,9.1-27.9,11.9c-1.4,0.2-2.7-0.8-2.8-2.3l-2.3-58.4
		c0-0.9,0.5-1.8,1.3-2.1h0c4.8-2.1,8.1-6.8,8.1-12.3c0-7.4-6-13.4-13.4-13.4c-7.4,0-13.4,6-13.4,13.4c0,5.6,3.4,10.4,8.3,12.4
		c0.9,0.4,1.4,1.2,1.3,2.2l-2.3,58.3c-0.1,1.4-1.4,2.5-2.8,2.3c-17.4-2.8-26.3-10.3-27.8-11.9c0.6-0.3,1.1-0.5,1.7-0.7
		c0.6-0.2,1-0.8,1-1.4c0-0.4-0.2-0.8-0.5-1.1l-11.9-7.2c-0.4-0.4-1.1-0.6-1.6-0.2c-0.5,0.3-0.6,1-0.4,1.5l2.7,13.4
		c0.2,0.5,0.6,0.8,1,0.9c0.5,0.2,1.1,0,1.5-0.4c0.4-0.5,0.9-1,1.4-1.5c10.1,11.5,22.1,20.4,41.8,20.4c19.7,0,35-11.4,41.9-20.4
		c0.5,0.5,1,1,1.5,1.5c0.4,0.4,0.9,0.6,1.5,0.4c0.4-0.2,0.8-0.5,1-0.9l2.7-13.4C598.5,460.9,598.3,460.3,597.9,459.9"/>
	<path class="st3" d="M615.3,489.3c-0.7,0-1.3-0.1-2-0.3c-0.6-0.2-1.2-0.6-1.7-1.1l0.9-1.1c0.4,0.4,0.9,0.7,1.3,0.9
		c0.4,0.2,0.9,0.3,1.5,0.3c0.5,0,0.9-0.1,1.1-0.3c0.3-0.2,0.4-0.5,0.4-0.8v0c0-0.2,0-0.3-0.1-0.4c-0.1-0.1-0.2-0.2-0.3-0.3
		c-0.1-0.1-0.3-0.2-0.6-0.3c-0.3-0.1-0.6-0.2-1-0.3c-0.5-0.1-0.9-0.2-1.3-0.4c-0.4-0.1-0.7-0.3-0.9-0.5c-0.2-0.2-0.4-0.4-0.6-0.7
		c-0.1-0.3-0.2-0.6-0.2-1v0c0-0.4,0.1-0.7,0.2-1c0.2-0.3,0.4-0.6,0.6-0.8c0.3-0.2,0.6-0.4,0.9-0.5c0.4-0.1,0.8-0.2,1.2-0.2
		c0.6,0,1.2,0.1,1.7,0.3c0.5,0.2,1,0.5,1.5,0.8l-0.8,1.2c-0.4-0.3-0.8-0.5-1.2-0.7c-0.4-0.2-0.8-0.2-1.2-0.2c-0.5,0-0.8,0.1-1.1,0.3
		c-0.3,0.2-0.4,0.5-0.4,0.7v0c0,0.2,0,0.3,0.1,0.4c0.1,0.1,0.2,0.2,0.3,0.4c0.2,0.1,0.4,0.2,0.6,0.3c0.3,0.1,0.6,0.2,1,0.3
		c0.5,0.1,0.9,0.2,1.2,0.4c0.4,0.1,0.7,0.3,0.9,0.5c0.2,0.2,0.4,0.4,0.5,0.7c0.1,0.3,0.2,0.6,0.2,1v0c0,0.4-0.1,0.8-0.2,1.1
		c-0.2,0.3-0.4,0.6-0.6,0.8c-0.3,0.2-0.6,0.4-1,0.5C616.2,489.2,615.8,489.3,615.3,489.3"/>
	<path class="st3" d="M625.8,485.6l-1.5-3.5l-1.5,3.5H625.8z M623.6,480.3h1.4l3.9,8.9h-1.6l-0.9-2.1h-4.2l-0.9,2.1h-1.6
		L623.6,480.3z"/>
	<path class="st3" d="M634.2,489.3c-0.6,0-1.1-0.1-1.5-0.2c-0.5-0.2-0.9-0.4-1.2-0.7c-0.3-0.3-0.6-0.7-0.8-1.2
		c-0.2-0.5-0.3-1-0.3-1.7v-5.1h1.5v5c0,0.8,0.2,1.4,0.6,1.9c0.4,0.4,0.9,0.6,1.6,0.6c0.7,0,1.2-0.2,1.6-0.6c0.4-0.4,0.6-1,0.6-1.8
		v-5.1h1.5v5c0,0.7-0.1,1.2-0.3,1.7c-0.2,0.5-0.4,0.9-0.8,1.2c-0.3,0.3-0.7,0.6-1.2,0.7C635.3,489.2,634.8,489.3,634.2,489.3"/>
	<path class="st3" d="M643.6,487.7c0.5,0,0.9-0.1,1.3-0.2c0.4-0.1,0.7-0.4,1-0.6c0.3-0.3,0.5-0.6,0.6-1c0.1-0.4,0.2-0.8,0.2-1.2v0
		c0-0.4-0.1-0.8-0.2-1.2c-0.2-0.4-0.4-0.7-0.6-1c-0.3-0.3-0.6-0.5-1-0.6c-0.4-0.2-0.8-0.2-1.3-0.2h-1.7v6H643.6z M640.3,480.3h3.3
		c0.7,0,1.3,0.1,1.9,0.3c0.6,0.2,1.1,0.5,1.5,0.9c0.4,0.4,0.7,0.9,1,1.4c0.2,0.5,0.3,1.1,0.3,1.7v0c0,0.6-0.1,1.2-0.3,1.7
		c-0.2,0.5-0.5,1-1,1.4c-0.4,0.4-0.9,0.7-1.5,0.9c-0.6,0.2-1.2,0.3-1.9,0.3h-3.3V480.3z"/>
	<rect x="650.4" y="480.3" class="st3" width="1.5" height="8.8"/>
	<path class="st3" d="M661.6,484.9c0.6,0,1.1-0.1,1.4-0.4c0.3-0.3,0.5-0.7,0.5-1.1v0c0-0.5-0.2-0.9-0.5-1.2
		c-0.3-0.3-0.8-0.4-1.4-0.4h-1.8v3.2H661.6z M658.3,480.3h3.5c0.5,0,1,0.1,1.4,0.2c0.4,0.1,0.8,0.3,1.1,0.6c0.3,0.3,0.5,0.6,0.7,0.9
		c0.2,0.4,0.2,0.8,0.2,1.2v0c0,0.5-0.1,0.9-0.3,1.3s-0.4,0.7-0.8,0.9c-0.3,0.3-0.7,0.4-1.1,0.6c-0.4,0.1-0.9,0.2-1.4,0.2h-1.8v2.8
		h-1.5V480.3z"/>
	<path class="st3" d="M671.1,487.9c0.4,0,0.8-0.1,1.2-0.2c0.4-0.2,0.7-0.4,0.9-0.7c0.3-0.3,0.5-0.6,0.6-1c0.1-0.4,0.2-0.8,0.2-1.2v0
		c0-0.4-0.1-0.8-0.2-1.2c-0.1-0.4-0.4-0.7-0.6-1c-0.3-0.3-0.6-0.5-0.9-0.7c-0.4-0.2-0.8-0.3-1.2-0.3c-0.4,0-0.8,0.1-1.2,0.2
		c-0.4,0.2-0.7,0.4-0.9,0.7c-0.3,0.3-0.5,0.6-0.6,1c-0.1,0.4-0.2,0.8-0.2,1.2v0c0,0.4,0.1,0.8,0.2,1.2c0.1,0.4,0.4,0.7,0.6,1
		c0.3,0.3,0.6,0.5,0.9,0.7C670.3,487.8,670.7,487.9,671.1,487.9 M671.1,489.3c-0.7,0-1.3-0.1-1.9-0.4c-0.6-0.2-1-0.6-1.4-1
		c-0.4-0.4-0.7-0.9-0.9-1.4c-0.2-0.6-0.3-1.1-0.3-1.8v0c0-0.6,0.1-1.2,0.3-1.8c0.2-0.5,0.5-1,1-1.4c0.4-0.4,0.9-0.7,1.5-1
		c0.6-0.2,1.2-0.4,1.9-0.4s1.3,0.1,1.9,0.4c0.6,0.2,1,0.6,1.4,1c0.4,0.4,0.7,0.9,0.9,1.4c0.2,0.6,0.3,1.1,0.3,1.8v0
		c0,0.6-0.1,1.2-0.3,1.8c-0.2,0.6-0.6,1-1,1.4c-0.4,0.4-0.9,0.7-1.5,1C672.4,489.2,671.8,489.3,671.1,489.3"/>
	<path class="st3" d="M681.6,484.7c0.6,0,1-0.1,1.3-0.4c0.3-0.3,0.5-0.6,0.5-1.1v0c0-0.5-0.2-0.8-0.5-1.1c-0.3-0.2-0.8-0.4-1.4-0.4
		h-2.3v3H681.6z M677.8,480.3h3.9c0.6,0,1,0.1,1.5,0.2c0.4,0.2,0.8,0.4,1.1,0.6c0.2,0.2,0.4,0.5,0.5,0.8c0.1,0.3,0.2,0.7,0.2,1.1v0
		c0,0.4-0.1,0.7-0.2,1c-0.1,0.3-0.2,0.5-0.4,0.8c-0.2,0.2-0.4,0.4-0.7,0.6c-0.3,0.2-0.5,0.3-0.9,0.4l2.4,3.3h-1.8l-2.2-3.1h0h-1.9
		v3.1h-1.5V480.3z"/>
	<polygon class="st3" points="689.2,481.8 686.4,481.8 686.4,480.3 693.6,480.3 693.6,481.8 690.8,481.8 690.8,489.1 689.2,489.1 	
		"/>
	<path class="st3" d="M698.5,489.3c-0.7,0-1.3-0.1-2-0.3c-0.6-0.2-1.2-0.6-1.7-1.1l0.9-1.1c0.4,0.4,0.9,0.7,1.3,0.9
		c0.4,0.2,0.9,0.3,1.5,0.3c0.5,0,0.9-0.1,1.1-0.3c0.3-0.2,0.4-0.5,0.4-0.8v0c0-0.2,0-0.3-0.1-0.4c-0.1-0.1-0.2-0.2-0.3-0.3
		c-0.1-0.1-0.3-0.2-0.6-0.3c-0.3-0.1-0.6-0.2-1-0.3c-0.5-0.1-0.9-0.2-1.3-0.4c-0.4-0.1-0.7-0.3-0.9-0.5c-0.2-0.2-0.4-0.4-0.6-0.7
		c-0.1-0.3-0.2-0.6-0.2-1v0c0-0.4,0.1-0.7,0.2-1c0.2-0.3,0.4-0.6,0.6-0.8c0.3-0.2,0.6-0.4,0.9-0.5c0.4-0.1,0.8-0.2,1.2-0.2
		c0.6,0,1.2,0.1,1.7,0.3c0.5,0.2,1,0.5,1.5,0.8l-0.8,1.2c-0.4-0.3-0.8-0.5-1.2-0.7c-0.4-0.2-0.8-0.2-1.2-0.2c-0.5,0-0.8,0.1-1.1,0.3
		c-0.3,0.2-0.4,0.5-0.4,0.7v0c0,0.2,0,0.3,0.1,0.4c0.1,0.1,0.2,0.2,0.3,0.4c0.2,0.1,0.4,0.2,0.6,0.3c0.3,0.1,0.6,0.2,1,0.3
		c0.5,0.1,0.9,0.2,1.2,0.4c0.4,0.1,0.7,0.3,0.9,0.5c0.2,0.2,0.4,0.4,0.5,0.7c0.1,0.3,0.2,0.6,0.2,1v0c0,0.4-0.1,0.8-0.2,1.1
		c-0.2,0.3-0.4,0.6-0.6,0.8c-0.3,0.2-0.6,0.4-1,0.5C699.4,489.2,698.9,489.3,698.5,489.3"/>
	<path class="st3" d="M712.7,485.6l-1.5-3.5l-1.5,3.5H712.7z M710.5,480.3h1.4l3.9,8.9h-1.6l-0.9-2.1h-4.2l-0.9,2.1h-1.6
		L710.5,480.3z"/>
	<path class="st3" d="M721.1,489.3c-0.6,0-1.1-0.1-1.5-0.2c-0.5-0.2-0.9-0.4-1.2-0.7c-0.3-0.3-0.6-0.7-0.8-1.2
		c-0.2-0.5-0.3-1-0.3-1.7v-5.1h1.5v5c0,0.8,0.2,1.4,0.6,1.9c0.4,0.4,0.9,0.6,1.6,0.6c0.7,0,1.2-0.2,1.6-0.6c0.4-0.4,0.6-1,0.6-1.8
		v-5.1h1.5v5c0,0.7-0.1,1.2-0.3,1.7c-0.2,0.5-0.4,0.9-0.8,1.2c-0.3,0.3-0.7,0.6-1.2,0.7C722.2,489.2,721.7,489.3,721.1,489.3"/>
	<polygon class="st3" points="729.4,481.8 726.6,481.8 726.6,480.3 733.8,480.3 733.8,481.8 731,481.8 731,489.1 729.4,489.1 	"/>
	<polygon class="st3" points="735.6,480.3 737.1,480.3 737.1,484 741.3,484 741.3,480.3 742.9,480.3 742.9,489.1 741.3,489.1 
		741.3,485.4 737.1,485.4 737.1,489.1 735.6,489.1 	"/>
	<path class="st3" d="M749.6,487.9c0.4,0,0.8-0.1,1.2-0.2c0.4-0.2,0.7-0.4,0.9-0.7c0.3-0.3,0.5-0.6,0.6-1c0.1-0.4,0.2-0.8,0.2-1.2v0
		c0-0.4-0.1-0.8-0.2-1.2c-0.1-0.4-0.4-0.7-0.6-1c-0.3-0.3-0.6-0.5-0.9-0.7c-0.4-0.2-0.8-0.3-1.2-0.3c-0.4,0-0.8,0.1-1.2,0.2
		c-0.4,0.2-0.7,0.4-0.9,0.7c-0.3,0.3-0.5,0.6-0.6,1c-0.1,0.4-0.2,0.8-0.2,1.2v0c0,0.4,0.1,0.8,0.2,1.2c0.1,0.4,0.4,0.7,0.6,1
		c0.3,0.3,0.6,0.5,0.9,0.7C748.7,487.8,749.1,487.9,749.6,487.9 M749.5,489.3c-0.7,0-1.3-0.1-1.9-0.4c-0.6-0.2-1-0.6-1.4-1
		c-0.4-0.4-0.7-0.9-0.9-1.4c-0.2-0.6-0.3-1.1-0.3-1.8v0c0-0.6,0.1-1.2,0.3-1.8c0.2-0.5,0.5-1,1-1.4c0.4-0.4,0.9-0.7,1.5-1
		c0.6-0.2,1.2-0.4,1.9-0.4c0.7,0,1.3,0.1,1.9,0.4c0.6,0.2,1,0.6,1.4,1c0.4,0.4,0.7,0.9,0.9,1.4c0.2,0.6,0.3,1.1,0.3,1.8v0
		c0,0.6-0.1,1.2-0.3,1.8c-0.2,0.6-0.5,1-1,1.4c-0.4,0.4-0.9,0.7-1.5,1C750.8,489.2,750.2,489.3,749.5,489.3"/>
	<path class="st3" d="M760,484.7c0.6,0,1-0.1,1.3-0.4c0.3-0.3,0.5-0.6,0.5-1.1v0c0-0.5-0.2-0.8-0.5-1.1c-0.3-0.2-0.8-0.4-1.4-0.4
		h-2.3v3H760z M756.2,480.3h3.9c0.6,0,1,0.1,1.5,0.2c0.4,0.2,0.8,0.4,1.1,0.6c0.2,0.2,0.4,0.5,0.5,0.8c0.1,0.3,0.2,0.7,0.2,1.1v0
		c0,0.4-0.1,0.7-0.2,1c-0.1,0.3-0.3,0.5-0.4,0.8c-0.2,0.2-0.4,0.4-0.7,0.6c-0.3,0.2-0.5,0.3-0.9,0.4l2.4,3.3h-1.8l-2.2-3.1h0h-1.9
		v3.1h-1.5V480.3z"/>
	<rect x="765.6" y="480.3" class="st3" width="1.5" height="8.8"/>
	<polygon class="st3" points="771.8,481.8 769,481.8 769,480.3 776.2,480.3 776.2,481.8 773.4,481.8 773.4,489.1 771.8,489.1 	"/>
	<polygon class="st3" points="780.6,485.7 777.1,480.3 778.9,480.3 781.4,484.2 783.9,480.3 785.7,480.3 782.2,485.6 782.2,489.1 
		780.6,489.1 	"/>
	<path class="st3" d="M624.7,465.5c0-1.9-0.7-2.7-2.4-2.7c-0.7,0-1.4,0.1-1.4,0.1v6.7h-3.1c-4.2,0-5.9-1.7-5.9-4.9
		c0-1,0.2-2.1,0.6-2.8l1.6-0.3c-0.4,0.8-0.6,1.9-0.6,2.9c0,2.6,1,3.8,4.5,3.8h1.4v-6.5c0,0,1.5-0.3,3.1-0.3c2.8,0,3.7,1.4,3.7,3.7
		v3.2h4v1.2h-5.5V465.5z M611.7,459.2c0.5,0,0.9,0,1.2,0.1c-0.3-0.1-0.5-0.5-0.5-0.8c0-0.8,0.6-1.7,2.1-1.7c0.4,0,0.7,0,0.9,0.1
		l-0.2,0.9c-0.2,0-0.5-0.1-0.8-0.1c-0.6,0-0.9,0.3-0.9,0.7c0,0.4,0.4,0.8,1.3,0.8h0.9v1h-4.1V459.2z"/>
	<path class="st3" d="M632.3,459.1c0-0.5,0.4-0.9,0.9-0.9c0.5,0,0.9,0.4,0.9,0.9c0,0.5-0.4,0.9-0.9,0.9
		C632.7,460,632.3,459.6,632.3,459.1 M630,468.5h2.5v-6.7h1.5v7.9h-4V468.5z"/>
	<rect x="637.1" y="457.9" class="st3" width="1.5" height="11.8"/>
	<path class="st3" d="M647,463.2c0,0-0.8-0.4-2-0.4c-1.6,0-2.5,1.1-2.5,2.8c0,1.9,0.9,2.9,3.1,2.9h1.5V463.2z M641.1,473.7l0.1-1.3
		c0,0,1.4,0.3,2.7,0.3c1.8,0,3.2-0.7,3.2-2.6v-0.4h-1.7c-3.2,0-4.4-1.5-4.4-3.9c0-2.2,1.4-4.2,4.2-4.2c1.8,0,3.4,0.6,3.4,0.6v6.3
		h5.1v1.2h-5.1v0.3c0,2-1.3,3.9-4.9,3.9C642.4,473.9,641.1,473.7,641.1,473.7"/>
	<path class="st3" d="M661.5,465.9c0-2.2-0.8-3-2.3-3c-1.5,0-2.4,1.1-2.4,3c0,1.8,0.8,2.6,2.8,2.6h1.9V465.9z M655.9,468.3
		c-0.4,0.9-1.2,1.4-2.2,1.4h-0.3v-1.2h0.3c0.9,0,1.5-0.5,1.5-2.5c0-2.5,1.4-4.4,4.1-4.4c2.5,0,3.7,1.4,3.7,4v2.9h4.9v1.2h-8.5
		C657.4,469.7,656.4,469.2,655.9,468.3"/>
	<polygon class="st3" points="664.4,468.5 669.9,468.5 669.9,457.9 671.5,457.9 671.5,468.5 673.3,468.5 673.3,469.7 664.4,469.7 	
		"/>
	<polygon class="st3" points="673.1,468.5 675.4,468.5 675.4,457.9 677,457.9 677,469.7 673.1,469.7 	"/>
	<path class="st3" d="M687.9,459.4c0-0.5,0.4-0.9,0.9-0.9c0.5,0,0.9,0.4,0.9,0.9c0,0.5-0.4,0.9-0.9,0.9
		C688.3,460.3,687.9,459.9,687.9,459.4 M685.4,459.4c0-0.5,0.4-0.9,0.9-0.9c0.5,0,0.9,0.4,0.9,0.9c0,0.5-0.4,0.9-0.9,0.9
		C685.8,460.3,685.4,459.9,685.4,459.4 M689.5,463.2c0,0-0.8-0.4-2-0.4c-1.6,0-2.5,1.1-2.5,2.8c0,1.9,0.9,2.9,3.1,2.9h1.5V463.2z
		 M687.8,469.7c-3.2,0-4.4-1.5-4.4-3.9c0-2.2,1.4-4.2,4.2-4.2c1.8,0,3.4,0.6,3.4,0.6v6.3h3.5v1.2H687.8z"/>
	<path class="st3" d="M702.3,465.9c0-2.2-0.8-3-2.3-3c-1.5,0-2.4,1.1-2.4,3c0,1.8,0.8,2.6,2.8,2.6h1.9V465.9z M700.2,469.7
		c-1.9,0-3-0.5-3.5-1.4c-0.4,0.9-1.2,1.4-2.2,1.4h-0.3v-1.2h0.3c0.9,0,1.5-0.5,1.5-2.5c0-2.5,1.4-4.4,4.1-4.4c2.5,0,3.7,1.4,3.7,4
		v4.1H700.2z"/>
	<polygon class="st3" points="706.9,457.9 708.4,457.9 708.4,468.5 711.1,468.5 711.1,469.7 706.9,469.7 	"/>
	<path class="st3" d="M717.1,466.9c1-0.7,1.5-1.6,1.5-2.5c0-0.9-0.6-1.6-1.9-1.6c-1.2,0-2.5,0.8-3.2,1.3
		C715,464.6,716,465.9,717.1,466.9 M710.8,468.5h0.6c1.9,0,3.4-0.3,4.6-0.9c-1.2-1.1-2.3-2.4-4-2.9l0.1-1.1c1.3-1,3.2-2,4.9-2
		c2.3,0,3.2,1.2,3.2,2.6c0,1.2-0.7,2.5-2,3.5c0.7,0.5,1.5,0.8,2.4,0.8h1.8v1.2h-2c-1.4,0-2.5-0.5-3.4-1.2c-1.4,0.8-3.4,1.2-5.7,1.2
		h-0.4V468.5z"/>
	<polygon class="st3" points="722.1,468.5 724.5,468.5 724.5,457.9 726,457.9 726,469.7 722.1,469.7 	"/>
	<rect x="729.2" y="457.9" class="st3" width="1.5" height="11.8"/>
	<path class="st3" d="M741.6,459.4c0-0.5,0.4-0.9,0.9-0.9c0.5,0,0.9,0.4,0.9,0.9c0,0.5-0.4,0.9-0.9,0.9
		C742,460.3,741.6,459.9,741.6,459.4 M739.2,459.4c0-0.5,0.4-0.9,0.9-0.9c0.5,0,0.9,0.4,0.9,0.9c0,0.5-0.4,0.9-0.9,0.9
		C739.6,460.3,739.2,459.9,739.2,459.4 M743.3,463.2c0,0-0.8-0.4-2-0.4c-1.6,0-2.5,1.1-2.5,2.8c0,1.9,0.9,2.9,3.1,2.9h1.5V463.2z
		 M741.6,469.7c-3.2,0-4.4-1.5-4.4-3.9c0-2.2,1.4-4.2,4.2-4.2c1.8,0,3.4,0.6,3.4,0.6v6.3h5.1v1.2H741.6z"/>
	<path class="st3" d="M750.4,459.2c0.5,0,0.9,0,1.2,0.1c-0.3-0.1-0.5-0.5-0.5-0.8c0-0.8,0.6-1.7,2.1-1.7c0.4,0,0.7,0,0.9,0.1
		l-0.2,0.9c-0.2,0-0.5-0.1-0.8-0.1c-0.6,0-0.9,0.3-0.9,0.7c0,0.4,0.4,0.8,1.3,0.8h0.9v1h-4.1V459.2z M749.6,468.5h2.5v-6.7h1.5v6.7
		h1.9v1.2h-5.9V468.5z"/>
	<path class="st3" d="M759.2,473.1c-0.5,0-0.9-0.4-0.9-0.9c0-0.5,0.4-0.9,0.9-0.9c0.5,0,0.9,0.4,0.9,0.9
		C760,472.7,759.6,473.1,759.2,473.1 M756.7,473.1c-0.5,0-0.9-0.4-0.9-0.9c0-0.5,0.4-0.9,0.9-0.9c0.5,0,0.9,0.4,0.9,0.9
		C757.6,472.7,757.2,473.1,756.7,473.1 M755.2,468.5h3.4v-6.7h1.5v6.7h4.2v1.2h-9.2V468.5z"/>
	<path class="st3" d="M770.7,467.8c0-1.4-0.5-2.5-1.7-2.5c-1.1,0-1.6,0.7-1.6,1.6c0,1.1,0.8,1.7,1.9,1.7h1.4V467.8z M764.2,469.7
		v-1.2h2c0.3,0,0.6,0,0.6,0c0,0-0.7-0.5-0.7-1.5c0-1.6,1.2-2.8,3-2.8c2,0,2.9,1.4,2.9,3.5v0.7h2.2v-0.3c0-4.2-1.6-5.9-5-5.9
		c-1.1,0-2.5,0.2-3.6,0.6l-0.2-1.1c1.1-0.4,2.6-0.6,3.9-0.6c4,0,6.3,2,6.3,7.1v0.3h1.5v1.2H764.2z"/>
	<polygon class="st3" points="777,468.5 779.4,468.5 779.4,457.9 780.9,457.9 780.9,469.7 777,469.7 	"/>
	<rect x="784.1" y="457.9" class="st3" width="1.5" height="11.8"/>
	<path class="st2" d="M696.2,398.7h4.6c0.3,0,0.5-0.1,0.7-0.3c0.2-0.2,0.3-0.5,0.3-0.7v-31.2c0-0.3-0.1-0.5-0.3-0.7
		c-0.2-0.2-0.4-0.3-0.7-0.3h-4.6c-0.3,0-0.5,0.1-0.7,0.3c-0.2,0.2-0.3,0.4-0.3,0.7v31.2c0,0.3,0.1,0.5,0.3,0.7
		C695.7,398.6,696,398.7,696.2,398.7"/>
	<path class="st2" d="M683.7,371.7h3.6c0.3,0,0.5-0.1,0.7-0.3c0.2-0.2,0.3-0.4,0.3-0.7v-4.3c0-0.3-0.1-0.5-0.3-0.7
		c-0.2-0.2-0.5-0.3-0.7-0.3h-3.6c-0.3,0-0.5,0.1-0.7,0.3c-0.2,0.2-0.3,0.4-0.3,0.7v4.3c0,0.3,0.1,0.5,0.3,0.7
		C683.2,371.6,683.5,371.7,683.7,371.7"/>
	<path class="st2" d="M612.8,376.6h8.4c0.3,0,0.6,0,0.8-0.1c0.2-0.1,0.3-0.3,0.3-0.6v-1c0-0.5-0.4-0.7-1.1-0.7h-4.2
		c-0.3-0.2-0.6-0.5-0.9-1.1c-0.3-0.6-0.4-1.3-0.4-2.1c0-1.9,1.1-2.8,3.3-2.8c0.2,0,0.6,0,1.1,0c0.5,0,0.8,0,0.9,0
		c0.5,0,0.8-0.2,0.8-0.7v-0.9c0-0.3-0.2-0.6-0.7-0.7c-0.4-0.1-0.8-0.1-1.2-0.2c-0.4,0-0.8-0.1-1.1-0.1c-1.9,0-3.3,0.4-4.3,1.2
		c-1,0.8-1.5,2.1-1.5,3.8c0,0.6,0.1,1.3,0.2,1.9c0.2,0.6,0.4,1.2,0.8,1.7h-1.1c-0.7,0-1.1,0.2-1.1,0.6v1.1
		C611.7,376.4,612.1,376.6,612.8,376.6"/>
	<path class="st2" d="M784.9,377.5c-0.5-1.5-1.3-2.8-2.2-3.9c-1-1.1-2.2-1.9-3.7-2.6c-1.3-0.6-2.8-0.9-4.6-0.9l-0.5,0
		c-3.7,0.1-6.5,1.2-8.3,3.3c-1.9,2.2-2.9,5.2-2.9,9.1v3.8c0,1-0.1,2-0.2,2.8c-0.1,0.9-0.4,1.6-0.8,2.2c-0.4,0.6-0.9,1.1-1.6,1.5
		c-0.7,0.4-1.6,0.5-2.6,0.5h-26.1v-20.6c0-0.4-0.1-0.6-0.2-0.8c-0.2-0.2-0.5-0.4-1.1-0.5c-1.5-0.4-3.2-0.7-4.9-0.9
		c-1.7-0.2-3.4-0.3-5-0.3c-4,0-6.9,1.1-8.9,3.3c-1.9,2.2-2.9,5.2-2.9,9.1v3.8c0,3.9,1,6.9,2.9,9.1c1.8,2,4.5,3.1,8,3.3
		c0.5,0,0.9-0.4,0.9-0.9V394c0-0.4-0.3-0.7-0.6-0.7c-0.8-0.1-1.4-0.2-2-0.5c-0.7-0.4-1.2-0.9-1.6-1.5c-0.4-0.6-0.7-1.4-0.8-2.2
		c-0.1-0.9-0.2-1.8-0.2-2.8v-3.8c0-1,0.1-2,0.2-2.8c0.2-0.9,0.4-1.6,0.8-2.2s0.9-1.1,1.6-1.5c0.7-0.4,1.6-0.5,2.6-0.5
		c0.9,0,1.8,0.1,2.7,0.1c0.9,0.1,1.6,0.2,2,0.3v17.4v5.3c0,0.9,0,1.4-0.1,2c-0.1,0.6-0.3,1-0.6,1.4c-0.3,0.3-0.8,0.6-1.4,0.7
		c-0.6,0.1-1.4,0.2-2.4,0.2c-0.6,0-1.2,0-2.1-0.1c-0.8-0.1-1.7-0.1-2.5-0.1c-0.9-0.1-1.7-0.1-2.5-0.2c-0.8-0.1-1.5-0.1-2-0.2h-0.1
		c-0.6,0-0.9,0.3-0.9,0.8v2.6c0,0.4,0.1,0.6,0.2,0.8c0.1,0.2,0.4,0.3,0.8,0.4c0.9,0.3,2.2,0.6,3.7,0.8c1.6,0.2,3.4,0.4,5.5,0.4
		c3.8,0,6.6-0.8,8.4-2.3c1.7-1.5,2.6-3.9,2.7-7.1h26.1c3.8,0,6.6-1,8.5-3c2.7-2.5,3.2-6.8,3.3-9.2c0-0.1,0-3.7,0-3.7
		c0-1,0.1-2,0.2-2.8c0.1-0.9,0.4-1.6,0.8-2.2c0.4-0.6,0.9-1.1,1.6-1.5c0.6-0.3,1.4-0.5,2.3-0.5l0,0c1.7,0,3.1,0.6,3.9,1.8
		c0.9,1.2,1.3,2.8,1.3,4.9v4v6.9h-5c0,0-0.5,0-0.7,0c-0.6-0.1-1.1,0.2-1.3,0.8c-0.4,1-0.9,2-1.5,2.9c-0.4,0.5-0.1,1.2,0.5,1.4
		c0.9,0.2,1.9,0.3,3,0.3h9.5c0.3,0,0.6,0,0.8-0.1c0.3-0.1,0.5-0.2,0.6-0.4c0.2-0.2,0.2-0.5,0.2-0.8v-10.9v-4
		C785.7,380.7,785.4,379,784.9,377.5"/>
	<path class="st2" d="M647.9,377.4c0.4,0.6,0.7,1.3,0.8,2.2c0.1,0.8,0.2,1.8,0.2,2.8V398c0,0.4,0.3,0.7,0.7,0.7h4.9c0,0,0,0,0,0
		l22.9,0c0.5,0,1.1-0.1,1.9-0.1c0.7-0.1,1.5-0.3,2.4-0.6c0.8-0.3,1.7-0.7,2.5-1.2c0.8-0.5,1.6-1.2,2.2-2.1c0.7-0.9,1.2-2,1.6-3.3
		c0.4-1.3,0.6-2.8,0.6-4.6v-10c0-0.3-0.1-0.5-0.3-0.7c-0.2-0.2-0.4-0.3-0.7-0.3h-4.6c-0.3,0-0.5,0.1-0.7,0.3
		c-0.2,0.2-0.3,0.5-0.3,0.7v10.3c0,1.3-0.1,2.3-0.3,3.2c-0.2,0.8-0.6,1.5-1,1.9c-0.4,0.5-0.9,0.8-1.5,1c-0.6,0.2-1.2,0.2-2,0.2H658
		h-2.7v-10.7c0-4.1-1-7.1-2.9-9.3c-1.9-2.1-4.8-3.2-8.7-3.2h-3.1h-4.8c-0.9,0-1.6,0.7-1.6,1.6v26.8h0c0,0.8,0,1.3-0.1,1.9
		c-0.1,0.5-0.3,1-0.6,1.3s-0.8,0.6-1.4,0.7c-0.6,0.1-1.4,0.2-2.3,0.2h-2.4c-2.3,0-4.1-0.4-5.5-1c-1.5-0.7-2.6-1.6-3.3-2.7
		c-0.8-1.2-1.2-2.5-1.4-4c-0.2-1.5-0.3-3.1-0.3-4.8c0-0.6,0-1.3,0.1-2.2c0.1-0.9,0.1-0.4,0.1-1.2c0.1-0.7-0.2-1-0.8-1h-3.2
		c-0.5,0-0.9,0.3-1,1c-0.1,0.5-0.2,1-0.3,1.6c-0.1,0.6-0.1,1.2-0.2,1.8c-0.1,0.6-0.1,1.1-0.1,1.6c0,0.5,0,0.9,0,1.2
		c0,2.3,0.2,4.5,0.7,6.4c0.5,1.9,1.2,3.5,2.4,4.8c1.1,1.3,2.7,2.3,4.7,3c2,0.7,4.4,1.1,7.4,1.1h3.1v0c3.6,0,6.3-0.8,8-2.3
		c1.7-1.5,2.6-4,2.7-7.3h0v-23.1h3.1c1,0,1.9,0.2,2.6,0.5C647,376.3,647.5,376.8,647.9,377.4"/>
	<path class="st2" d="M640.7,415.9h-4.5c-0.5,0-0.9,0.3-1.1,0.7l-8.3,17.4l-8.4-17.4c-0.2-0.4-0.6-0.7-1.1-0.7h-4.5
		c-0.7,0-1.2,0.5-1.2,1.2v31c0,0.7,0.5,1.2,1.2,1.2h4.1c0.7,0,1.2-0.5,1.2-1.2v-18.3l6.1,12c0.2,0.4,0.6,0.7,1.1,0.7h2.9
		c0.5,0,0.9-0.3,1.1-0.7l6-12V448c0,0.7,0.5,1.2,1.2,1.2h4.1c0.7,0,1.2-0.5,1.2-1.2v-31C641.9,416.4,641.3,415.9,640.7,415.9"/>
	<path class="st2" d="M663.3,416.6c-0.2-0.5-0.6-0.8-1.1-0.8h-3.5c-0.5,0-0.9,0.3-1.1,0.8l-11.3,31c-0.3,0.8,0.3,1.6,1.1,1.6h4.2
		c0.5,0,1-0.3,1.1-0.8l1.7-5.1h6.1c0.8,0,1.4-0.8,1.1-1.6l-1-3.1c-0.2-0.5-0.6-0.8-1.1-0.8h-3.3l4.2-12.2l5.8,17.7h0l1.7,5.1
		c0.2,0.5,0.6,0.8,1.1,0.8h4.2c0.8,0,1.4-0.8,1.1-1.6L663.3,416.6z"/>
	<path class="st2" d="M713.2,415.9h-4.3c-0.5,0-1,0.4-1.2,0.9l-5,20.1l-5.8-20.2c-0.1-0.5-0.6-0.9-1.1-0.9h-3.1
		c-0.5,0-1,0.4-1.1,0.9l-5.8,20.2l-4.9-20.1c-0.1-0.5-0.6-0.9-1.2-0.9h-4.3c-0.8,0-1.4,0.7-1.1,1.5l8.3,31c0.1,0.5,0.6,0.9,1.2,0.9
		h3.6c0.5,0,1-0.3,1.1-0.8l5.9-19.4l5.9,19.4c0.2,0.5,0.6,0.8,1.1,0.8h3.6c0.5,0,1-0.4,1.2-0.9l8.3-31
		C714.5,416.6,714,415.9,713.2,415.9"/>
	<path class="st2" d="M731.8,416.6c-0.2-0.5-0.6-0.8-1.1-0.8h-3.5c-0.5,0-0.9,0.3-1.1,0.8l-11.3,31c-0.3,0.8,0.3,1.6,1.1,1.6h4.2
		c0.5,0,1-0.3,1.1-0.8l1.7-5.1h6.1c0.8,0,1.4-0.8,1.1-1.6l-1-3.1c-0.2-0.5-0.6-0.8-1.1-0.8h-3.3l4.2-12.2l5.8,17.7h0l1.7,5.1
		c0.2,0.5,0.6,0.8,1.1,0.8h4.2c0.8,0,1.4-0.8,1.1-1.6L731.8,416.6z"/>
	<path class="st2" d="M771.4,415.9h-4.1c-0.7,0-1.2,0.5-1.2,1.2v19.2l-12.9-19.9c-0.2-0.3-0.6-0.5-1-0.5h-4c-0.7,0-1.2,0.5-1.2,1.2
		v31c0,0.7,0.5,1.2,1.2,1.2h4.1c0.7,0,1.2-0.5,1.2-1.2v-19.3l12.9,19.9c0.2,0.3,0.6,0.5,1,0.5h4c0.7,0,1.2-0.5,1.2-1.2v-31
		C772.6,416.4,772.1,415.9,771.4,415.9"/>
	<path class="st2" d="M784.5,415.9h-4.1c-0.7,0-1.2,0.5-1.2,1.2v31c0,0.7,0.5,1.2,1.2,1.2h4.1c0.7,0,1.2-0.5,1.2-1.2v-31
		C785.7,416.4,785.1,415.9,784.5,415.9"/>
</g>
</svg>
